<svg xmlns="http://www.w3.org/2000/svg" viewBox="0 0 357.34 65.76"><defs><style>.cls-1{fill:#3f2929;}</style></defs><g id="Layer_2" data-name="Layer 2"><g id="Layer_7" data-name="Layer 7"><path class="cls-1" d="M110.52,6.28c-.42.68-.84,1.38-1.25,2.06a2.09,2.09,0,0,0,2,3.17,84.27,84.27,0,0,0,10.55-1.83,2.09,2.09,0,0,1,2.56,1.92l.11,2a2.1,2.1,0,0,1-1.81,2.19c-8.36,1.15-11.64,1.52-18.12,1.9a2.12,2.12,0,0,0-1.63.94c-.36.56-.74,1.14-1.13,1.71a2.09,2.09,0,0,0,1.79,3.25H104c6.52,0,8.55,3.53,9.22,6.17a2.08,2.08,0,0,0,2.76,1.41c5.1-1.94,10.24-3.84,15.38-5.7A2.09,2.09,0,0,1,134,26.73l.9,2.71a2.08,2.08,0,0,1-1.53,2.69,148.64,148.64,0,0,0-18.28,5.45,2.08,2.08,0,0,0-1.39,2c0,2.17,0,4.76.08,6.9a2.09,2.09,0,0,1-2.09,2.11h-2.34a2.09,2.09,0,0,1-2.09-2.09V43.67a2.09,2.09,0,0,0-3-1.9c-5,2.29-9.56,4.95-9.56,8.62,0,6.12,12.16,6.12,16.05,6.12a117.62,117.62,0,0,0,16.71-1.1,2.09,2.09,0,0,1,2.37,2.07v2.58a2.08,2.08,0,0,1-1.93,2.08c-7.5.59-12.93.71-15.06.71-5.33,0-15-.22-20.23-4.32a9.61,9.61,0,0,1-4.18-7.71C88.47,43,98,38.55,106,35a2.06,2.06,0,0,0,1.23-2c-.15-2.08-.88-4.14-4.42-4.14-6.37,0-9.55,3.07-18.78,13.73a2.1,2.1,0,0,1-3,.14l-1.85-1.8a2.09,2.09,0,0,1,.05-3A100.56,100.56,0,0,0,93.7,21.7a2.09,2.09,0,0,0-1.79-3.29c-2.51.1-4.86.16-5.46.16-.42,0-.86,0-1.31,0a2.09,2.09,0,0,1-2-2l-.07-2a2.08,2.08,0,0,1,2.18-2.16c2.19.11,4.59.15,7.46.15,1.38,0,3,0,5.63-.15a2.08,2.08,0,0,0,1.75-1.14c1.45-2.87,2.52-5.32,3.65-8A2.09,2.09,0,0,1,106.45,2l3,1.21A2.1,2.1,0,0,1,110.52,6.28Z"/><path class="cls-1" d="M183.61,37.79h0A2.41,2.41,0,0,0,186,40.2h22.76a2.41,2.41,0,0,1,2.41,2.41v.65a2.41,2.41,0,0,1-2.41,2.41H190.7a1,1,0,0,0-.58,1.8c7.08,4.89,15.12,7.1,20.16,8.13a2.41,2.41,0,0,1,1.54,3.64c-.34.57-.68,1.18-1,1.82A2.43,2.43,0,0,1,208,62.32c-8.69-2.26-14.6-4.86-23-11.58a.89.89,0,0,0-1.45.69V63.35a2.41,2.41,0,0,1-2.41,2.41h-1.87a2.41,2.41,0,0,1-2.41-2.41v-12a1,1,0,0,0-1.61-.78c-7.77,6.16-15.52,9.16-22.17,11.48a2.41,2.41,0,0,1-2.88-1c-.25-.41-.51-.81-.77-1.2a2.41,2.41,0,0,1,1.3-3.68c6.88-2.09,12.84-4.42,19-8.7a1,1,0,0,0-.57-1.81H152.33a2.41,2.41,0,0,1-2.42-2.41v-.65a2.41,2.41,0,0,1,2.42-2.41H174.5a2.41,2.41,0,0,0,2.42-2.41h0a2.41,2.41,0,0,1,2.41-2.42h1.87A2.41,2.41,0,0,1,183.61,37.79ZM163.28,29c-5.1,2.23-7.63,3.28-10.18,4.26A2.42,2.42,0,0,1,150,31.91l-.6-1.54a2.41,2.41,0,0,1,1.47-3.15c2.89-1,6.58-2.27,10.55-3.9a2.41,2.41,0,0,1,3.32,2.21v1.26A2.43,2.43,0,0,1,163.28,29ZM154.86,5A58.14,58.14,0,0,1,162,8.71a2.39,2.39,0,0,1,.76,3.35l-1,1.59a2.4,2.4,0,0,1-3.32.7q-2.59-1.65-6.58-3.7A2.42,2.42,0,0,1,151,7.08L152,5.79A2.39,2.39,0,0,1,154.86,5Zm38.69,4.5V30.8a2.41,2.41,0,0,1-2.41,2.41H169.39A2.41,2.41,0,0,1,167,30.8V9.49a2.41,2.41,0,0,1,2.41-2.42h4.45a2.4,2.4,0,0,0,2.39-2.13c.11-.92.21-1.83.31-2.77A2.41,2.41,0,0,1,179.22,0l1.51.17a2.41,2.41,0,0,1,2,3.07l-.21.72a2.41,2.41,0,0,0,2.31,3.09h6.28A2.41,2.41,0,0,1,193.55,9.49ZM185.16,22.2h-9.94m12.35-7.46v-.43a2.41,2.41,0,0,0-2.41-2.41h-9.94a2.41,2.41,0,0,0-2.41,2.41V25.69a2.41,2.41,0,0,0,2.41,2.41h9.94a2.41,2.41,0,0,0,2.41-2.41Zm20.8-4.31c-2.3,1.57-5,3.36-8,5.3A2.44,2.44,0,0,1,197,15c-.23-.36-.46-.71-.7-1a2.39,2.39,0,0,1,.68-3.37c2.45-1.59,5.14-3.4,7.84-5.3a2.41,2.41,0,0,1,3.41.64L209,7.11A2.4,2.4,0,0,1,208.37,10.43Zm-2.9,22.37c-2.95-2.18-5.77-4-8.46-5.67a2.41,2.41,0,0,1-.76-3.35l.66-1a2.39,2.39,0,0,1,3.15-.84c2.81,1.49,6,3.38,9.16,5.4a2.41,2.41,0,0,1,.7,3.41l-1,1.51A2.42,2.42,0,0,1,205.47,32.8Z"/><path class="cls-1" d="M240.43,4.72a1.87,1.87,0,0,1,1.82,2c-1,10.44-2,25.94-2,34.59,0,5.18.22,9,1.66,10.94,2.09,2.45,5.47,3.32,8.64,3.32,14,0,21.88-12.35,25.45-18.84a1.86,1.86,0,0,1,2.75-.59c.82.61,1.66,1.18,2.45,1.66a1.87,1.87,0,0,1,.62,2.56c-5.07,8.22-10.16,14.16-17.66,17.94a30,30,0,0,1-14.11,3.6c-7,0-11.45-2.95-13.4-5.61-2.44-3.24-3.09-7.49-3.09-15.12,0-4.81.48-26.61.56-34.76a1.87,1.87,0,0,1,1.92-1.85Z"/><path class="cls-1" d="M318.87,4.43c-.14,1.6-.3,3.61-.44,5.26a2.34,2.34,0,0,0,2.71,2.5c2.58-.41,4.69-.88,6.55-1.36A2.34,2.34,0,0,1,330.63,13l0,1.8a2.36,2.36,0,0,1-1.91,2.35c-3.3.64-6.42,1.11-9.29,1.39a2.33,2.33,0,0,0-2.08,2.05c-.4,3.31-.91,6.54-1.38,9.06a2.55,2.55,0,0,0,0,.73,30.69,30.69,0,0,1,.31,4.09,25.89,25.89,0,0,1-1.66,8.35c-1.15,3.24-2.45,7.27-2.45,9.87a2.93,2.93,0,0,0,1.95,3.09c2.3.87,10.65,1.16,13.25,1.16,3.6,0,12.53-.15,14.54-2.24C343,53.52,343,50.93,343,50.28c0-2.89-.51-6.3-1.65-13a2.37,2.37,0,0,1,2.11-2.73c.61-.06,1.23-.14,1.88-.26a2.39,2.39,0,0,1,2.67,1.8,75.72,75.72,0,0,1,2.12,16.23c0,2,0,6.77-6,9.15-3.31,1.22-11.45,1.94-17.21,1.94-15,0-21.17-2.23-21.17-8.64a14.55,14.55,0,0,1,.51-3.45,2.35,2.35,0,0,0-2.42-2.9l-.53,0c-4.9,0-7.64-5-7.64-9.08,0-7.56,6.34-14.9,12-14.9a2.75,2.75,0,0,1,.4,0,2.38,2.38,0,0,0,2.66-2.1c0-.18,0-.35,0-.52a2.33,2.33,0,0,0-2.29-2.53c-3-.05-6.07-.18-8.78-.38a2.33,2.33,0,0,1-2.16-2.36l0-1.84a2.34,2.34,0,0,1,2.66-2.29,64.23,64.23,0,0,0,9,.54,2.35,2.35,0,0,0,2.36-2.23c.05-.93.05-1.67.05-2.44V4.16A2.34,2.34,0,0,1,314,1.82l2.57.07A2.33,2.33,0,0,1,318.87,4.43ZM307.81,29.18c-2.45,0-6.48,5.11-6.48,9.36,0,2.52,1.37,5.33,3.38,5.33,1.73,0,3.6-1.73,4.4-3.67a23.27,23.27,0,0,0,1.22-7.27C310.33,30.77,310,29.18,307.81,29.18Zm41.54-14.47a83.44,83.44,0,0,1,7.71,12.09A2.34,2.34,0,0,1,356,30l-1.7.82a2.34,2.34,0,0,1-3.1-1,87.73,87.73,0,0,0-7-11.4,2.34,2.34,0,0,1,.6-3.31l1.35-.9A2.35,2.35,0,0,1,349.35,14.71Z"/><rect class="cls-1" x="176.84" y="16.88" width="6.86" height="6.86" rx="1.3" transform="translate(38.44 133.41) rotate(-45)"/><path class="cls-1" d="M64.94,53.67a24.18,24.18,0,0,1-2.37-1.49,1.53,1.53,0,0,0-2.37.88c-.45,1.78-1,3.56-1.67,3.56s-4.31-5.53-5.76-22.47a1.55,1.55,0,0,1,1.54-1.69h8.22a1.54,1.54,0,0,0,1.55-1.54V28.39a1.54,1.54,0,0,0-1.55-1.54H54a1.54,1.54,0,0,1-1.54-1.54c0-5.09.09-10.36.36-15A1.52,1.52,0,0,1,54,8.9c1.84-.44,3.79-.92,5.8-1.51a1.54,1.54,0,0,0,.91-2.23L58.94,2.05a1.54,1.54,0,0,0-1.84-.71A199.09,199.09,0,0,1,34.57,7.53a1.52,1.52,0,0,1-.67,0l-1.83-.41a1.54,1.54,0,0,0-1.88,1.5V53.68a3.72,3.72,0,0,1-3.07,3.66l-2.89.49a1.54,1.54,0,0,0-1.23,2l1,3.47a1.54,1.54,0,0,0,1.83,1.06c4.75-1.14,13.28-3.26,20.93-5.51a1.55,1.55,0,0,0,1.1-1.48V54.61A1.54,1.54,0,0,0,46,53.12c-2.78.68-5.61,1.29-8,1.84a1.54,1.54,0,0,1-1.89-1.5V34a1.54,1.54,0,0,1,1.54-1.55h7.55a1.55,1.55,0,0,1,1.54,1.42c.57,7.32,1.55,17.85,6.21,25.58,1.92,3.13,5,5.4,7,5.4,2.87,0,4.48-4.91,5.72-9.46A1.51,1.51,0,0,0,64.94,53.67ZM36.08,25.31V13.78a1.53,1.53,0,0,1,1.26-1.51c2.37-.45,4.72-.89,7-1.3a1.54,1.54,0,0,1,1.81,1.52V25.32a1.53,1.53,0,0,1-1.54,1.53h-7A1.54,1.54,0,0,1,36.08,25.31Z"/><path class="cls-1" d="M22.11,37.33h0a1.49,1.49,0,0,0,2,1l2.75-1.08a1.49,1.49,0,0,0,.86-1.91,88,88,0,0,0-3.59-8.13,1.51,1.51,0,0,0-1.81-.74l-2.65.9a1.49,1.49,0,0,0-.87,2.06l.2.4a1.5,1.5,0,0,1-1.19,2.14c-.85.09-1.73.17-2.59.24a1.49,1.49,0,0,1-1.38-2.26c2.75-4.51,8-13,10.39-16.93a1.49,1.49,0,0,0-.54-2.08L20.33,9a1.5,1.5,0,0,0-2.07.63C16.9,12.36,15.4,15.37,14,17.91a1.48,1.48,0,0,1-2.13.51l-.89-.6a1.54,1.54,0,0,1-.64-2C12.23,12.17,14.48,7.69,16,4.7a1.48,1.48,0,0,0-.63-2L12.29,1.09a1.49,1.49,0,0,0-2.1.77C8.85,5.33,7.24,9.08,5.77,12.43a1.49,1.49,0,0,1-2.09.7l0,0a1.5,1.5,0,0,0-2.06.65L.26,16.43a1.49,1.49,0,0,0,.6,1.95,73.72,73.72,0,0,1,8.23,5.56,1.51,1.51,0,0,1,.4,1.9C8.33,28,7.23,30,6.25,31.91a1.08,1.08,0,0,1-.91.59l-3.72.23A1.48,1.48,0,0,0,.23,34.37L.54,37.2a1.49,1.49,0,0,0,1.67,1.32c2.2-.29,4.65-.58,7-.9a1.49,1.49,0,0,1,1.7,1.48V63a1.5,1.5,0,0,0,1.5,1.49h3.27A1.49,1.49,0,0,0,17.12,63V38a1.51,1.51,0,0,1,1.3-1.49c.71-.09,1.42-.18,2.09-.25A1.49,1.49,0,0,1,22.11,37.33Z"/><path class="cls-1" d="M24.79,53.06h0A1.55,1.55,0,0,0,26,51.18c-.38-1.67-.7-3.35-1-5a4.12,4.12,0,0,0-4.57-3.44h0a1.55,1.55,0,0,0-1.35,1.73q.34,2.67.89,5.33A4.17,4.17,0,0,0,24.79,53.06Z"/><path class="cls-1" d="M2.45,47A83.42,83.42,0,0,1,.05,57.08a1.11,1.11,0,0,0,.77,1.4H.87a4.84,4.84,0,0,0,6-3.57Q8,49.73,8.79,44.46a1.11,1.11,0,0,0-.9-1.25h0A4.67,4.67,0,0,0,2.45,47Z"/></g></g></svg>