<svg xmlns="http://www.w3.org/2000/svg" viewBox="0 0 69.36 85.17"><defs><style>.cls-1{fill:#3f2929;}</style></defs><g id="Layer_2" data-name="Layer 2"><g id="Layer_7" data-name="Layer 7"><path class="cls-1" d="M42.77,85.17c-10.11,0-19.26-5-23.8-13.16-.52-.87-2-3.14-3.66-5.75-5-7.76-7.93-12.47-8.46-13.52a15.71,15.71,0,0,0-3.22-4.36,13.8,13.8,0,0,1-3-3.92h0a7,7,0,0,1,.35-6.28,5.27,5.27,0,0,1,4.62-2.61,15.68,15.68,0,0,1,8.37,2.7,24.88,24.88,0,0,1,5.84,5.67V17.26a7.68,7.68,0,0,1,7.67-7.67,7.57,7.57,0,0,1,4.62,1.57V7.67a7.67,7.67,0,0,1,15.34,0v.44a6.54,6.54,0,0,1,4-1.31,7,7,0,0,1,7,7v4.54a7,7,0,0,1,11,5.75v37.4C67.88,82.47,54.37,85.17,42.77,85.17ZM4.41,42.37A9.07,9.07,0,0,0,6.33,44.9a17.42,17.42,0,0,1,4.36,5.75c.52,1.05,5.58,9,8.28,13.25,1.75,2.71,3.14,5,3.66,5.84l.09.09c3.75,6.8,11.42,11,20.05,11,10.81,0,20.93-2.36,22.15-19.62V24.06a2.62,2.62,0,0,0-5.23,0V41.15a2.88,2.88,0,1,1-5.76,0V13.77a2.62,2.62,0,0,0-5.23,0V38.36a2.88,2.88,0,1,1-5.75,0V7.58a3.32,3.32,0,0,0-6.63,0V38.36a2.88,2.88,0,1,1-5.75,0V17.17a3.31,3.31,0,0,0-3.32-3.31,3.1,3.1,0,0,0-3.05,3.31v35l-2.52-.43a5.08,5.08,0,0,1-3.58-2.53,22.16,22.16,0,0,0-6.54-7.32,11.21,11.21,0,0,0-5.93-2,1.07,1.07,0,0,0-1,.44A3.16,3.16,0,0,0,4.41,42.37Z"/></g></g></svg>