<svg xmlns="http://www.w3.org/2000/svg" viewBox="0 0 75.42 77.89"><defs><style>.cls-1{fill:#3f2929;}</style></defs><g id="Layer_2" data-name="Layer 2"><g id="Layer_7" data-name="Layer 7"><path class="cls-1" d="M63.37,23H59.2V0h-43V23H12.05A12.05,12.05,0,0,0,0,35.06V53.15a12,12,0,0,0,11.56,12V44.11h52.3V65.17a12,12,0,0,0,11.56-12V35.06A12.05,12.05,0,0,0,63.37,23ZM19.26,23V3h36.9V23H19.26ZM50.61,35.23H24.81a1.83,1.83,0,0,1,0-3.65h25.8a1.83,1.83,0,0,1,0,3.65Z"/><path class="cls-1" d="M16.49,77.89H58.93V48.72H16.49Zm3-26.13H55.89V74.84H19.53Z"/><path class="cls-1" d="M51.65,56.63H23.77a1.22,1.22,0,0,0,0,2.44H51.65a1.22,1.22,0,0,0,0-2.44Z"/><path class="cls-1" d="M51.65,61.88H23.77a1.22,1.22,0,1,0,0,2.43H51.65a1.22,1.22,0,1,0,0-2.43Z"/><path class="cls-1" d="M51.65,67.35H23.77a1.22,1.22,0,0,0,0,2.44H51.65a1.22,1.22,0,0,0,0-2.44Z"/></g></g></svg>