<svg xmlns="http://www.w3.org/2000/svg" viewBox="0 0 360.59 65.17"><defs><style>.cls-1{fill:#3f2929;}</style></defs><g id="Layer_2" data-name="Layer 2"><g id="Layer_7" data-name="Layer 7"><path class="cls-1" d="M348.82,7.19a2.11,2.11,0,0,1-.48,2.94c-2.12,1.52-3.94,3.14-10.43,8.88l-3.82,3.41a2.1,2.1,0,0,0,1.71,3.65,34.77,34.77,0,0,1,5-.36c10.59,0,19.8,6.12,19.8,17.36,0,10.87-8.57,19.72-23.47,19.72C327,62.79,318.4,59,318.4,51.71c0-5.26,5.61-8.21,10.65-8.21a14.86,14.86,0,0,1,9.51,3.6,15.35,15.35,0,0,1,4.82,6.82,2.1,2.1,0,0,0,3,1.12c4.71-2.61,6.72-6.76,6.72-11.9,0-8.5-7.34-12-15-12-10.9,0-18.56,6.37-26.74,13.71a2.1,2.1,0,0,1-3-.16l-2-2.28a2.1,2.1,0,0,1,.2-3c8.27-7,19.69-17.28,27-24.16a2.1,2.1,0,0,0-1.8-3.61c-3.38.61-7.7,1.21-13.5,1.7A2.11,2.11,0,0,1,316,11.38l-.22-2.5a2.11,2.11,0,0,1,2-2.28c12.05-.62,21.82-1.76,26.71-3.13a2.08,2.08,0,0,1,2.25.8ZM335,57.39a2.1,2.1,0,0,0,1.83-3.15c-1.49-2.53-4-5.42-7.95-5.42-3.38,0-4.61,2.38-4.61,3.68,0,1.94,3.39,4.89,10.73,4.89Z"/><path class="cls-1" d="M92.4,6.6a1.48,1.48,0,0,1,1.06,1.74,150.31,150.31,0,0,0-4,32.4,127.1,127.1,0,0,0,1.65,19.43A1.5,1.5,0,0,1,90,61.86l-3.93.91a1.49,1.49,0,0,1-1.8-1.23,119.18,119.18,0,0,1-1.62-19.8A196.76,196.76,0,0,1,86,6.54,1.5,1.5,0,0,1,87.9,5.37Zm11.7,34.65a1.49,1.49,0,0,1,1.42,1.44c.18,5.93,1.68,9.85,19.48,9.85a50.71,50.71,0,0,0,10.78-.88A1.49,1.49,0,0,1,137.55,53l.2,4.11a1.48,1.48,0,0,1-1.29,1.55,77.69,77.69,0,0,1-10.23.61c-22.85,0-26.79-6.63-27.12-16.68a1.49,1.49,0,0,1,1.55-1.54ZM134,17a1.49,1.49,0,0,1-1.63,1.43,81.65,81.65,0,0,0-8.36-.35,98.53,98.53,0,0,0-20.17,2,1.49,1.49,0,0,1-1.76-1.29l-.39-3.62a1.48,1.48,0,0,1,1.17-1.62c5.21-1.08,10.8-1.88,21.29-1.88,2.18,0,4.7.06,8.54.23a1.48,1.48,0,0,1,1.42,1.53Z"/><path class="cls-1" d="M253.24,13.93l1.39,2.5a1.55,1.55,0,0,1-.33,1.93A48.93,48.93,0,0,0,250,22.58a1.61,1.61,0,0,0-.4,1h0a1.56,1.56,0,0,0,2.55,1.24c5.55-4.5,10.42-8.18,14.17-10.24a16.88,16.88,0,0,1,7.49-2.09c8.64,0,8.64,8.06,8.64,9.86C282.4,26.55,281,45.2,281,49c0,1.58,0,4.82,2.45,4.82,1.89,0,2.9-1.55,3.7-6.66a1.57,1.57,0,0,1,2.31-1.13,17,17,0,0,0,3.3,1.37,1.55,1.55,0,0,1,1.08,1.84c-1.14,4.87-3.27,11.42-10.18,11.42a10.25,10.25,0,0,1-6.48-2.3c-2.23-2.09-2.95-4.9-2.95-8.5,0-4,1.29-22.83,1.29-25.49,0-3-.72-5.4-4-5.4-2,0-3.74,1-5.61,2.3-2.4,1.62-7.89,5.79-16,12.78a1.6,1.6,0,0,0-.55,1.19v8.28c0,6.36.07,10.17.19,18.06a1.57,1.57,0,0,1-1.57,1.6h-3.6a1.56,1.56,0,0,1-1.56-1.57c0-3.85.16-12,.23-16.92a1.56,1.56,0,0,0-2.7-1.08c-2.26,2.41-5.24,5.57-7,7.51a1.56,1.56,0,0,1-2.44-.17l-2.21-3.22a1.56,1.56,0,0,1,.23-2c3-2.8,4.66-4.43,6.42-6l7.37-6.83a1.51,1.51,0,0,0,.5-1.09c.06-2.19.16-4.79.23-7.56a1.57,1.57,0,0,0-1.9-1.57c-2.64.57-5.3,1.05-7.68,1.4A1.55,1.55,0,0,1,232,22.62l-.18-3.13a1.55,1.55,0,0,1,1.4-1.64c2.9-.29,6.24-.77,9.17-1.34a1.53,1.53,0,0,0,1.23-1.5c0-2.86.1-8.56.13-11.59a1.55,1.55,0,0,1,1.65-1.54l4.15.24A1.55,1.55,0,0,1,251,3.83c-.23,2.34-.58,6.16-.78,8.56a1.11,1.11,0,0,0,1.59,1.08h0A1.1,1.1,0,0,1,253.24,13.93Z"/><circle class="cls-1" cx="212.18" cy="57.61" r="5.59"/><rect class="cls-1" x="164.84" y="29.24" width="6.86" height="6.86" rx="1.3" transform="translate(26.18 128.55) rotate(-45)"/><path class="cls-1" d="M179.79,18.34h-3.35a1.58,1.58,0,0,1-1.28-2.51,53.13,53.13,0,0,1,3.58-4.57,1.58,1.58,0,0,0-.12-2.21l-2.79-2.58a1.11,1.11,0,0,0-1.37-.1l-.29.19a1.12,1.12,0,0,1-.61.19h-4.65a1.59,1.59,0,0,1-1.43-2.29c.15-.29.29-.58.44-.88a1.58,1.58,0,0,0-.74-2.13L164.44.15a1.6,1.6,0,0,0-2.11.75,79.88,79.88,0,0,1-11.41,17.41,1.57,1.57,0,0,0,.1,2.16,29.72,29.72,0,0,1,2.06,2.16,1.59,1.59,0,0,0,2.46-.06L156,22c0,23.15-.2,28.83-4.69,37.73a1.57,1.57,0,0,0,.51,2,24.87,24.87,0,0,1,2.49,1.95,1.58,1.58,0,0,0,2.49-.51,45,45,0,0,0,4.11-13.28,1.58,1.58,0,0,1,1.56-1.32h11.32a1.59,1.59,0,0,1,1.58,1.59v5.54a3,3,0,0,1-3,2.95h-.09A1.59,1.59,0,0,0,170.87,61a17.85,17.85,0,0,1,1.25,3,1.61,1.61,0,0,0,1.79,1.15c7.4-1.21,7.47-3.42,7.47-6.27V19.93A1.59,1.59,0,0,0,179.79,18.34Zm-19.25-2.47c.84-1.24,1.69-2.49,2.51-3.64a1.58,1.58,0,0,1,1.29-.66h4A1.59,1.59,0,0,1,169.67,14c-.8,1.24-1.56,2.46-2.3,3.6a1.55,1.55,0,0,1-1.33.72h-4.19A1.58,1.58,0,0,1,160.54,15.87Zm14.79,12.91V41.53a1.58,1.58,0,0,1-1.58,1.58h-6.46l-5.8-5.8c0-.11,0-.23,0-.34V25.11a1.58,1.58,0,0,1,1.59-1.58h10.66a1.58,1.58,0,0,1,1.58,1.58Z"/><path class="cls-1" d="M201.9,54.9c-.11-2.7,0-10.49,0-10.49a1.59,1.59,0,0,1,1.58-1.59h7.78a1.59,1.59,0,0,0,1.59-1.58V17.12a1.59,1.59,0,0,0-1.59-1.59h-7.78A1.58,1.58,0,0,1,201.9,14V2.43A1.59,1.59,0,0,0,200.32.84h-2.6a1.59,1.59,0,0,0-1.58,1.59V14a1.58,1.58,0,0,1-1.58,1.58h-7.92a1.59,1.59,0,0,0-1.59,1.59V44.41A1.59,1.59,0,0,0,186.64,46h2.65a1.57,1.57,0,0,0,1.52-1.61,1.59,1.59,0,0,1,1.59-1.56h2.16a1.59,1.59,0,0,1,1.58,1.59V55.66a1.59,1.59,0,0,1-1.42,1.58c-3.34.34-6.74.58-10,.76a1.58,1.58,0,0,0-1.47,1.82l.49,3.17a1.58,1.58,0,0,0,1.74,1.32c4.76-.6,12.78-1.41,18.65-2.09a1.31,1.31,0,0,0,1.16-1.47,2.48,2.48,0,0,0-.93-2.1C203.5,58,202,58,201.9,54.9Zm0-32.09a1.59,1.59,0,0,1,1.58-1.59h1.8a1.59,1.59,0,0,1,1.59,1.59v13a1.59,1.59,0,0,1-1.59,1.58h-1.8a1.58,1.58,0,0,1-1.58-1.58Zm-5.76,13a1.58,1.58,0,0,1-1.58,1.58H192.4a1.59,1.59,0,0,1-1.59-1.58v-13a1.59,1.59,0,0,1,1.59-1.59h2.16a1.59,1.59,0,0,1,1.58,1.59Z"/><path class="cls-1" d="M64.94,53.7a24.18,24.18,0,0,1-2.37-1.49,1.54,1.54,0,0,0-2.37.88c-.45,1.79-1,3.56-1.67,3.56s-4.31-5.53-5.76-22.47a1.54,1.54,0,0,1,1.54-1.68h8.22A1.54,1.54,0,0,0,64.08,31V28.43a1.54,1.54,0,0,0-1.55-1.54H54a1.54,1.54,0,0,1-1.54-1.55c0-5.09.09-10.35.36-15A1.5,1.5,0,0,1,54,8.94c1.84-.44,3.79-.93,5.8-1.52a1.54,1.54,0,0,0,.91-2.23L58.94,2.08a1.54,1.54,0,0,0-1.84-.71A199.09,199.09,0,0,1,34.57,7.56a1.52,1.52,0,0,1-.67,0l-1.83-.42a1.54,1.54,0,0,0-1.88,1.5V53.71a3.71,3.71,0,0,1-3.07,3.66l-2.89.49a1.54,1.54,0,0,0-1.23,2l1,3.47a1.53,1.53,0,0,0,1.83,1.06c4.75-1.14,13.28-3.25,20.93-5.51a1.55,1.55,0,0,0,1.1-1.48v-2.7A1.54,1.54,0,0,0,46,53.15c-2.78.68-5.61,1.3-8,1.85a1.54,1.54,0,0,1-1.89-1.5V34a1.54,1.54,0,0,1,1.54-1.54h7.55a1.54,1.54,0,0,1,1.54,1.41c.57,7.32,1.55,17.86,6.21,25.58,1.92,3.14,5,5.4,7,5.4,2.87,0,4.48-4.91,5.72-9.45A1.53,1.53,0,0,0,64.94,53.7ZM36.08,25.35V13.81a1.54,1.54,0,0,1,1.26-1.51c2.37-.44,4.72-.88,7-1.29a1.53,1.53,0,0,1,1.81,1.51V25.35a1.54,1.54,0,0,1-1.54,1.54h-7A1.54,1.54,0,0,1,36.08,25.35Z"/><path class="cls-1" d="M22.11,37.37h0a1.48,1.48,0,0,0,2,.94l2.75-1.07a1.5,1.5,0,0,0,.86-1.92q-1.59-4.16-3.59-8.13a1.49,1.49,0,0,0-1.81-.73l-2.65.89a1.49,1.49,0,0,0-.87,2.06l.2.41A1.49,1.49,0,0,1,17.78,32c-.85.09-1.73.17-2.59.24a1.48,1.48,0,0,1-1.38-2.25c2.75-4.52,8-13,10.39-16.94a1.48,1.48,0,0,0-.54-2.07L20.33,9.05a1.49,1.49,0,0,0-2.07.62C16.9,12.39,15.4,15.4,14,17.94a1.49,1.49,0,0,1-2.13.52L11,17.85a1.54,1.54,0,0,1-.64-2C12.23,12.2,14.48,7.72,16,4.73a1.48,1.48,0,0,0-.63-2L12.29,1.12a1.5,1.5,0,0,0-2.1.77C8.85,5.36,7.24,9.11,5.77,12.46a1.5,1.5,0,0,1-2.09.71l0,0a1.48,1.48,0,0,0-2.06.64L.26,16.46a1.5,1.5,0,0,0,.6,2A73.64,73.64,0,0,1,9.09,24a1.51,1.51,0,0,1,.4,1.9C8.33,28.06,7.23,30.07,6.25,32a1.12,1.12,0,0,1-.91.59l-3.72.22A1.49,1.49,0,0,0,.23,34.41l.31,2.82a1.49,1.49,0,0,0,1.67,1.32c2.2-.29,4.65-.58,7-.9a1.49,1.49,0,0,1,1.7,1.48V63a1.5,1.5,0,0,0,1.5,1.5h3.27A1.5,1.5,0,0,0,17.12,63v-25a1.49,1.49,0,0,1,1.3-1.48l2.09-.26A1.5,1.5,0,0,1,22.11,37.37Z"/><path class="cls-1" d="M24.79,53.09h0A1.55,1.55,0,0,0,26,51.21c-.38-1.67-.7-3.34-1-5a4.1,4.1,0,0,0-4.57-3.43h0a1.54,1.54,0,0,0-1.35,1.72q.34,2.69.89,5.33A4.17,4.17,0,0,0,24.79,53.09Z"/><path class="cls-1" d="M2.45,47A83.13,83.13,0,0,1,.05,57.12a1.1,1.1,0,0,0,.77,1.39H.87a4.83,4.83,0,0,0,6-3.57Q8,49.76,8.79,44.5a1.1,1.1,0,0,0-.9-1.25h0A4.65,4.65,0,0,0,2.45,47Z"/></g></g></svg>