<svg xmlns="http://www.w3.org/2000/svg" viewBox="0 0 375.94 665.56"><defs><style>.cls-1,.cls-2{fill:none;stroke-miterlimit:10;stroke-width:2px;}.cls-1{stroke:#0173b7;}.cls-2{stroke:#e74e21;}.cls-3{fill:#e09b1c;}.cls-4{fill:#66bd8c;}</style></defs><g id="Layer_2" data-name="Layer 2"><g id="Layer_10" data-name="Layer 10"><path class="cls-1" d="M375.49,1c-37.77,6.63-75,43.64-89.91,63.21-37.17,48.69-48.34,89.26-52.32,129.54-5.66,57.23.5,162.3-54.39,213.85S70.76,447.75.49,487.09"/><path class="cls-2" d="M375.49,141.28C278.32,191.05,218,257.44,182.18,321.88c-52.67,94.74-40.57,184.42-92.09,262C52.8,639.93.49,664.66.49,664.66"/><rect class="cls-3" x="208.52" y="532.17" width="105.28" height="105.28" transform="translate(215.4 -54.03) rotate(19.97)"/><path class="cls-4" d="M370.13,546.82a48.71,48.71,0,1,1-69.2-68.58Z"/></g></g></svg>