<svg xmlns="http://www.w3.org/2000/svg" viewBox="0 0 501.7 143.04"><defs><style>.cls-1{fill:#66bd8c;}.cls-10,.cls-11,.cls-12,.cls-13,.cls-14,.cls-2,.cls-3,.cls-4,.cls-5,.cls-6,.cls-7,.cls-8,.cls-9{fill:none;stroke:#dfdfde;}.cls-2{stroke-miterlimit:10;stroke-width:3px;}.cls-10,.cls-11,.cls-12,.cls-13,.cls-14,.cls-3,.cls-4,.cls-5,.cls-6,.cls-7,.cls-8,.cls-9{stroke-linejoin:round;stroke-width:2px;}.cls-4{stroke-dasharray:6.11 6.11;}.cls-5{stroke-dasharray:9.17 6.11 6.11 6.11;}.cls-6{stroke-dasharray:6.47 6.47;}.cls-7{stroke-dasharray:9.7 6.47 6.47 6.47;}.cls-8{stroke-dasharray:6.15 6.15;}.cls-9{stroke-dasharray:9.23 6.15 6.15 6.15;}.cls-10{stroke-dasharray:5.69 5.69;}.cls-11{stroke-dasharray:8.54 5.69 5.69 5.69;}.cls-12{stroke-dasharray:7.1 7.1;}.cls-13{stroke-dasharray:3.88 3.88;}.cls-14{stroke-dasharray:5.82 3.88 3.88 3.88;}.cls-15{fill:#dfdfde;}</style></defs><g id="Layer_2" data-name="Layer 2"><g id="Layer_7" data-name="Layer 7"><path class="cls-1" d="M452.52,143H6.63A6.63,6.63,0,0,1,0,136.36V6.63A6.63,6.63,0,0,1,6.63,0H493.19a6.63,6.63,0,0,1,6.63,6.63V91.69Z"/><polyline class="cls-2" points="501.7 91.74 454.4 91.74 454.4 143.04"/><polyline class="cls-3" points="454.4 125.36 454.4 129.86 449.9 129.86"/><line class="cls-4" x1="443.79" y1="129.86" x2="434.62" y2="129.86"/><line class="cls-5" x1="431.56" y1="129.86" x2="21.97" y2="129.86"/><polyline class="cls-3" points="18.92 129.86 14.42 129.86 14.42 125.36"/><line class="cls-6" x1="14.42" y1="118.9" x2="14.42" y2="109.2"/><line class="cls-7" x1="14.42" y1="105.97" x2="14.42" y2="21.92"/><polyline class="cls-3" points="14.42 18.69 14.42 14.19 18.92 14.19"/><line class="cls-8" x1="25.07" y1="14.19" x2="34.29" y2="14.19"/><line class="cls-9" x1="37.37" y1="14.19" x2="477.11" y2="14.19"/><polyline class="cls-3" points="480.19 14.19 484.69 14.19 484.69 18.69"/><line class="cls-10" x1="484.69" y1="24.38" x2="484.69" y2="32.92"/><line class="cls-11" x1="484.69" y1="35.76" x2="484.69" y2="84.14"/><polyline class="cls-3" points="484.69 86.99 484.69 91.49 480.19 91.53"/><line class="cls-12" x1="473.09" y1="91.59" x2="462.45" y2="91.67"/><polyline class="cls-3" points="458.9 91.7 454.4 91.74 454.4 96.24"/><line class="cls-13" x1="454.4" y1="100.12" x2="454.4" y2="105.95"/><line class="cls-14" x1="454.4" y1="107.89" x2="454.4" y2="123.42"/><path class="cls-15" d="M221.24,45.49c-.42.69-.84,1.39-1.26,2.06a2.09,2.09,0,0,0,2,3.17,82.14,82.14,0,0,0,10.54-1.82,2.08,2.08,0,0,1,2.57,1.92l.11,1.94A2.1,2.1,0,0,1,233.42,55c-8.36,1.16-11.64,1.53-18.12,1.91a2.08,2.08,0,0,0-1.63.94c-.36.56-.75,1.13-1.13,1.71a2.09,2.09,0,0,0,1.78,3.25h.35c6.52,0,8.55,3.53,9.22,6.17a2.08,2.08,0,0,0,2.76,1.41q7.65-2.91,15.37-5.7a2.1,2.1,0,0,1,2.7,1.32l.9,2.71a2.09,2.09,0,0,1-1.53,2.69,151.2,151.2,0,0,0-18.29,5.44,2.1,2.1,0,0,0-1.38,2c0,2.18.05,4.76.08,6.9a2.1,2.1,0,0,1-2.09,2.12h-2.34A2.1,2.1,0,0,1,218,85.72V82.89A2.1,2.1,0,0,0,215,81c-5,2.29-9.57,5-9.57,8.63,0,6.12,12.17,6.12,16.06,6.12a117.71,117.71,0,0,0,16.71-1.1,2.09,2.09,0,0,1,2.37,2.06v2.58a2.09,2.09,0,0,1-1.93,2.09c-7.5.58-12.94.71-15.06.71-5.33,0-15-.22-20.24-4.32A9.6,9.6,0,0,1,199.19,90c0-7.79,9.47-12.27,17.52-15.85a2.07,2.07,0,0,0,1.23-2c-.15-2.08-.88-4.14-4.42-4.14-6.38,0-9.55,3.06-18.78,13.73a2.11,2.11,0,0,1-3.05.13l-1.84-1.79a2.09,2.09,0,0,1,.05-3,101,101,0,0,0,14.52-16.12,2.09,2.09,0,0,0-1.79-3.29c-2.51.09-4.86.15-5.46.15l-1.31,0a2.08,2.08,0,0,1-2-2l-.07-2A2.08,2.08,0,0,1,196,51.59c2.19.11,4.59.14,7.46.14,1.38,0,3,0,5.63-.14a2.1,2.1,0,0,0,1.75-1.14c1.45-2.87,2.52-5.32,3.64-8a2.1,2.1,0,0,1,2.71-1.15l3.05,1.21A2.09,2.09,0,0,1,221.24,45.49Z"/><path class="cls-15" d="M379.6,46.47a2.09,2.09,0,0,1-.48,2.92c-2.12,1.52-3.93,3.14-10.44,8.9-1.18,1.05-2.43,2.15-3.86,3.44a2.08,2.08,0,0,0,1.69,3.62,34.07,34.07,0,0,1,5.05-.37c10.59,0,19.8,6.12,19.8,17.36,0,10.87-8.57,19.73-23.47,19.73-10.08,0-18.72-3.82-18.72-11.09,0-5.26,5.61-8.21,10.65-8.21a14.86,14.86,0,0,1,9.51,3.6,15.35,15.35,0,0,1,4.82,6.82,2.1,2.1,0,0,0,3,1.12c4.71-2.6,6.72-6.76,6.72-11.9,0-8.5-7.34-12-15-12-10.91,0-18.56,6.38-26.75,13.73a2.09,2.09,0,0,1-2.95-.17l-2.06-2.31a2.08,2.08,0,0,1,.19-3c8.29-7,19.76-17.33,27.06-24.22a2.09,2.09,0,0,0-1.82-3.57c-3.38.61-7.72,1.22-13.54,1.71a2.1,2.1,0,0,1-2.27-1.9l-.22-2.54a2.09,2.09,0,0,1,2-2.26c12.07-.62,21.86-1.76,26.74-3.13a2.07,2.07,0,0,1,2.24.79Zm-13.77,50.2a2.1,2.1,0,0,0,1.8-3.16c-1.49-2.53-4-5.41-7.95-5.41-3.38,0-4.61,2.37-4.61,3.67,0,1.94,3.39,4.9,10.73,4.9Z"/><path class="cls-15" d="M274.44,89.75a54.37,54.37,0,0,1-9.1,12.93,2.09,2.09,0,0,1-3.17-.24,18,18,0,0,0-1.7-2,2.07,2.07,0,0,1,.07-3c5.53-5.22,10.28-11.65,11.74-21.45a2.11,2.11,0,0,0-2.08-2.4h-8.66a2.09,2.09,0,0,1-2.09-2.09V69.88a2.1,2.1,0,0,1,2.09-2.09h9.71a2.08,2.08,0,0,0,2.09-2c.07-1.71.08-4.2.08-8.65a2.09,2.09,0,0,0-2.09-2.09h-.65a2.06,2.06,0,0,0-1.94,1.31c-.83,2.11-1.83,4.43-2.86,6.5a2.07,2.07,0,0,1-2.9.86c-.57-.33-1.17-.66-1.82-1a2.09,2.09,0,0,1-1-2.85,75.57,75.57,0,0,0,6.58-18.53,2.08,2.08,0,0,1,2.62-1.54l2.29.66a2.08,2.08,0,0,1,1.43,2.58c-.31,1.06-.6,2.15-.9,3.21a2.1,2.1,0,0,0,2,2.65h13.52A2.09,2.09,0,0,1,289.84,51V53a2.1,2.1,0,0,1-2.09,2.09h-5.83a2.09,2.09,0,0,0-2.09,2.09c0,4.38,0,6.85-.05,8.52a2.09,2.09,0,0,0,2.09,2.13H289a2.09,2.09,0,0,1,2.09,2.09v1.65A2.08,2.08,0,0,1,289,73.62H281a2.1,2.1,0,0,0-2.07,1.8c-.16,1.11-.24,2.25-.47,3.28C277.63,82.33,278,83,274.44,89.75Z"/><path class="cls-15" d="M317.92,48.93h-22A2.08,2.08,0,0,0,293.8,51v49.32a2.09,2.09,0,0,0,2.09,2.09h1.94a2.1,2.1,0,0,0,2.09-2.09V97.6A2.1,2.1,0,0,1,302,95.51h9a2.1,2.1,0,0,1,2.09,2.09v1.08a2.09,2.09,0,0,0,2.09,2.09h2.73A2.1,2.1,0,0,0,320,98.68V51A2.09,2.09,0,0,0,317.92,48.93ZM313.31,87.3a2.08,2.08,0,0,1-2.09,2.09H302a2.09,2.09,0,0,1-2.09-2.09V62.09l6.9-6.9h4.4a2.09,2.09,0,0,1,2.09,2.09Z"/><circle class="cls-15" cx="283.3" cy="92.43" r="5.59"/><path class="cls-15" d="M175.28,92.3a22.34,22.34,0,0,1-2.37-1.48,1.53,1.53,0,0,0-2.37.88c-.45,1.78-1,3.56-1.67,3.56s-4.31-5.54-5.76-22.48a1.54,1.54,0,0,1,1.53-1.68h8.23a1.54,1.54,0,0,0,1.54-1.54V67a1.54,1.54,0,0,0-1.54-1.54H164.3A1.54,1.54,0,0,1,162.76,64c0-5.09.09-10.36.35-15a1.52,1.52,0,0,1,1.17-1.39c1.85-.44,3.8-.93,5.8-1.51A1.55,1.55,0,0,0,171,43.8l-1.72-3.12a1.54,1.54,0,0,0-1.84-.7,200.25,200.25,0,0,1-22.53,6.19,1.73,1.73,0,0,1-.68,0l-1.83-.42a1.54,1.54,0,0,0-1.88,1.51V92.32A3.71,3.71,0,0,1,137.45,96l-2.89.49a1.53,1.53,0,0,0-1.22,2l1,3.46a1.55,1.55,0,0,0,1.84,1.07c4.75-1.15,13.28-3.26,20.92-5.52a1.52,1.52,0,0,0,1.1-1.47V93.25a1.53,1.53,0,0,0-1.9-1.49c-2.78.67-5.61,1.29-8,1.84a1.53,1.53,0,0,1-1.88-1.5V72.64A1.54,1.54,0,0,1,148,71.1h7.55A1.54,1.54,0,0,1,157,72.52c.57,7.31,1.55,17.85,6.21,25.58,1.92,3.13,5,5.4,7,5.4,2.87,0,4.48-4.92,5.71-9.46A1.52,1.52,0,0,0,175.28,92.3ZM146.42,64V52.42a1.55,1.55,0,0,1,1.26-1.52c2.36-.44,4.72-.88,7-1.29a1.54,1.54,0,0,1,1.81,1.52V64A1.54,1.54,0,0,1,155,65.49h-7A1.54,1.54,0,0,1,146.42,64Z"/><path class="cls-15" d="M132.44,76h0a1.5,1.5,0,0,0,2,1l2.75-1.08a1.49,1.49,0,0,0,.86-1.91,82.91,82.91,0,0,0-3.59-8.13,1.48,1.48,0,0,0-1.81-.74L130,66a1.5,1.5,0,0,0-.87,2.07l.19.4a1.49,1.49,0,0,1-1.18,2.14c-.86.09-1.73.17-2.59.24a1.49,1.49,0,0,1-1.38-2.26c2.75-4.51,8-13.05,10.39-16.93a1.5,1.5,0,0,0-.54-2.08l-3.34-1.88a1.49,1.49,0,0,0-2.06.63c-1.36,2.72-2.86,5.73-4.26,8.27a1.48,1.48,0,0,1-2.13.51l-.9-.6a1.54,1.54,0,0,1-.63-2c1.88-3.63,4.13-8.11,5.63-11.1a1.49,1.49,0,0,0-.63-2l-3.05-1.63a1.49,1.49,0,0,0-2.1.77c-1.34,3.47-3,7.22-4.43,10.57a1.49,1.49,0,0,1-2.09.7l0,0a1.49,1.49,0,0,0-2.06.65l-1.31,2.67a1.48,1.48,0,0,0,.6,2,74.65,74.65,0,0,1,8.23,5.56,1.52,1.52,0,0,1,.4,1.9c-1.17,2.18-2.27,4.19-3.25,6.07a1,1,0,0,1-.9.59l-3.72.23A1.48,1.48,0,0,0,110.57,73l.3,2.82a1.49,1.49,0,0,0,1.68,1.32c2.2-.28,4.65-.57,7-.9a1.5,1.5,0,0,1,1.7,1.48v23.92a1.49,1.49,0,0,0,1.49,1.49H126a1.5,1.5,0,0,0,1.5-1.49v-25a1.49,1.49,0,0,1,1.3-1.48l2.09-.26A1.49,1.49,0,0,1,132.44,76Z"/><path class="cls-15" d="M135.13,91.69h0a1.55,1.55,0,0,0,1.25-1.88c-.38-1.66-.71-3.34-1-5a4.11,4.11,0,0,0-4.57-3.44h0a1.55,1.55,0,0,0-1.34,1.72q.35,2.69.89,5.34A4.15,4.15,0,0,0,135.13,91.69Z"/><path class="cls-15" d="M112.78,85.63a83.13,83.13,0,0,1-2.4,10.09,1.11,1.11,0,0,0,.77,1.39l.06,0a4.83,4.83,0,0,0,6-3.57q1.17-5.19,1.94-10.46a1.12,1.12,0,0,0-.9-1.25h0A4.68,4.68,0,0,0,112.78,85.63Z"/></g></g></svg>