<svg xmlns="http://www.w3.org/2000/svg" viewBox="0 0 501.7 143.04"><defs><style>.cls-1{fill:#e4ab3b;}.cls-10,.cls-11,.cls-12,.cls-13,.cls-14,.cls-2,.cls-3,.cls-4,.cls-5,.cls-6,.cls-7,.cls-8,.cls-9{fill:none;stroke:#dfdfde;}.cls-2{stroke-miterlimit:10;stroke-width:3px;}.cls-10,.cls-11,.cls-12,.cls-13,.cls-14,.cls-3,.cls-4,.cls-5,.cls-6,.cls-7,.cls-8,.cls-9{stroke-linejoin:round;stroke-width:2px;}.cls-4{stroke-dasharray:6.11 6.11;}.cls-5{stroke-dasharray:9.17 6.11 6.11 6.11;}.cls-6{stroke-dasharray:6.47 6.47;}.cls-7{stroke-dasharray:9.7 6.47 6.47 6.47;}.cls-8{stroke-dasharray:6.15 6.15;}.cls-9{stroke-dasharray:9.23 6.15 6.15 6.15;}.cls-10{stroke-dasharray:5.69 5.69;}.cls-11{stroke-dasharray:8.54 5.69 5.69 5.69;}.cls-12{stroke-dasharray:7.1 7.1;}.cls-13{stroke-dasharray:3.88 3.88;}.cls-14{stroke-dasharray:5.82 3.88 3.88 3.88;}.cls-15{fill:#dfdfde;}</style></defs><g id="Layer_2" data-name="Layer 2"><g id="Layer_7" data-name="Layer 7"><path class="cls-1" d="M452.52,143H6.63A6.63,6.63,0,0,1,0,136.36V6.63A6.63,6.63,0,0,1,6.63,0H493.19a6.63,6.63,0,0,1,6.63,6.63V91.69Z"/><polyline class="cls-2" points="501.7 91.74 454.4 91.74 454.4 143.04"/><polyline class="cls-3" points="454.4 125.36 454.4 129.86 449.9 129.86"/><line class="cls-4" x1="443.79" y1="129.86" x2="434.62" y2="129.86"/><line class="cls-5" x1="431.56" y1="129.86" x2="21.97" y2="129.86"/><polyline class="cls-3" points="18.92 129.86 14.42 129.86 14.42 125.36"/><line class="cls-6" x1="14.42" y1="118.9" x2="14.42" y2="109.2"/><line class="cls-7" x1="14.42" y1="105.97" x2="14.42" y2="21.92"/><polyline class="cls-3" points="14.42 18.69 14.42 14.19 18.92 14.19"/><line class="cls-8" x1="25.07" y1="14.19" x2="34.29" y2="14.19"/><line class="cls-9" x1="37.37" y1="14.19" x2="477.11" y2="14.19"/><polyline class="cls-3" points="480.19 14.19 484.69 14.19 484.69 18.69"/><line class="cls-10" x1="484.69" y1="24.38" x2="484.69" y2="32.92"/><line class="cls-11" x1="484.69" y1="35.76" x2="484.69" y2="84.14"/><polyline class="cls-3" points="484.69 86.99 484.69 91.49 480.19 91.53"/><line class="cls-12" x1="473.09" y1="91.59" x2="462.45" y2="91.67"/><polyline class="cls-3" points="458.9 91.7 454.4 91.74 454.4 96.24"/><line class="cls-13" x1="454.4" y1="100.12" x2="454.4" y2="105.95"/><line class="cls-14" x1="454.4" y1="107.89" x2="454.4" y2="123.42"/><path class="cls-15" d="M419.37,46.12a2.1,2.1,0,0,1-.48,3c-2.12,1.52-3.93,3.14-10.43,8.88-1.17,1-2.4,2.13-3.81,3.4a2.11,2.11,0,0,0,1.7,3.66,33.38,33.38,0,0,1,5-.36c10.59,0,19.81,6.12,19.81,17.35,0,10.88-8.57,19.73-23.48,19.73-10.08,0-18.72-3.81-18.72-11.09,0-5.25,5.62-8.21,10.66-8.21a14.87,14.87,0,0,1,9.5,3.6,15.42,15.42,0,0,1,4.82,6.83,2.12,2.12,0,0,0,3,1.12c4.7-2.61,6.72-6.77,6.72-11.91,0-8.49-7.35-12-15-12-10.9,0-18.55,6.37-26.73,13.71a2.12,2.12,0,0,1-3-.16l-2-2.29a2.1,2.1,0,0,1,.2-3c8.27-7,19.69-17.28,27-24.17a2.11,2.11,0,0,0-1.81-3.61c-3.37.61-7.7,1.22-13.49,1.71a2.12,2.12,0,0,1-2.29-1.92l-.21-2.5a2.12,2.12,0,0,1,2-2.29c12.06-.61,21.83-1.75,26.71-3.13a2.1,2.1,0,0,1,2.26.81ZM405.58,96.33a2.11,2.11,0,0,0,1.83-3.16c-1.49-2.52-4-5.41-8-5.41-3.38,0-4.61,2.38-4.61,3.68,0,1.94,3.39,4.89,10.73,4.89Z"/><path class="cls-15" d="M163,45.53A1.49,1.49,0,0,1,164,47.28a150.37,150.37,0,0,0-3.95,32.39,126.69,126.69,0,0,0,1.64,19.44,1.49,1.49,0,0,1-1.13,1.69l-3.92.91a1.49,1.49,0,0,1-1.8-1.23,118.26,118.26,0,0,1-1.63-19.8,195.8,195.8,0,0,1,3.38-35.2,1.49,1.49,0,0,1,1.85-1.17Zm11.7,34.66a1.48,1.48,0,0,1,1.42,1.44c.18,5.93,1.68,9.85,19.49,9.85a50.61,50.61,0,0,0,10.77-.88A1.48,1.48,0,0,1,208.1,92l.21,4.11A1.49,1.49,0,0,1,207,97.63a76.12,76.12,0,0,1-10.24.62c-22.85,0-26.78-6.63-27.12-16.68A1.49,1.49,0,0,1,171.21,80Zm29.89-24.28a1.5,1.5,0,0,1-1.63,1.43,78.9,78.9,0,0,0-8.36-.35,98.6,98.6,0,0,0-20.17,2,1.48,1.48,0,0,1-1.75-1.3l-.4-3.62a1.48,1.48,0,0,1,1.17-1.61c5.21-1.08,10.81-1.88,21.29-1.88,2.18,0,4.71.06,8.54.22a1.49,1.49,0,0,1,1.42,1.53Z"/><path class="cls-15" d="M323.79,52.87l1.39,2.5a1.54,1.54,0,0,1-.33,1.93,47.56,47.56,0,0,0-4.35,4.22,1.61,1.61,0,0,0-.4,1h0a1.57,1.57,0,0,0,2.56,1.24c5.54-4.51,10.42-8.19,14.16-10.25a17.05,17.05,0,0,1,7.49-2.08c8.64,0,8.64,8.06,8.64,9.86,0,4.18-1.44,22.83-1.44,26.64,0,1.59,0,4.83,2.45,4.83,1.89,0,2.9-1.56,3.71-6.66A1.56,1.56,0,0,1,360,85a18.36,18.36,0,0,0,3.3,1.37,1.56,1.56,0,0,1,1.09,1.83c-1.15,4.88-3.28,11.43-10.19,11.43a10.23,10.23,0,0,1-6.48-2.31c-2.23-2.08-2.95-4.89-2.95-8.49,0-4,1.3-22.83,1.3-25.49,0-3-.72-5.4-4-5.4-2,0-3.74,1-5.61,2.3a204.51,204.51,0,0,0-16,12.78,1.55,1.55,0,0,0-.55,1.19v8.28c0,6.35.06,10.17.19,18a1.59,1.59,0,0,1-1.57,1.61h-3.6a1.57,1.57,0,0,1-1.57-1.57c0-3.85.16-12,.23-16.92a1.56,1.56,0,0,0-2.69-1.09c-2.27,2.42-5.25,5.57-7,7.52a1.56,1.56,0,0,1-2.44-.17l-2.22-3.22a1.58,1.58,0,0,1,.23-2c3-2.81,4.67-4.43,6.43-6l7.36-6.82a1.55,1.55,0,0,0,.5-1.1c.06-2.18.16-4.78.23-7.56a1.58,1.58,0,0,0-1.9-1.57c-2.64.58-5.3,1.06-7.67,1.41a1.56,1.56,0,0,1-1.79-1.46l-.18-3.13a1.56,1.56,0,0,1,1.4-1.64c2.91-.29,6.25-.77,9.17-1.35a1.54,1.54,0,0,0,1.24-1.5c0-2.85.09-8.55.12-11.59a1.56,1.56,0,0,1,1.65-1.54l4.15.24a1.57,1.57,0,0,1,1.47,1.71c-.23,2.34-.59,6.16-.78,8.57a1.1,1.1,0,0,0,1.58,1.08h0A1.1,1.1,0,0,1,323.79,52.87Z"/><circle class="cls-15" cx="282.74" cy="96.54" r="5.59"/><rect class="cls-15" x="235.39" y="68.18" width="6.86" height="6.86" rx="1.3" transform="translate(19.31 189.84) rotate(-45)"/><path class="cls-15" d="M250.35,57.28H247a1.59,1.59,0,0,1-1.29-2.52c1.2-1.66,2.38-3.22,3.58-4.57a1.56,1.56,0,0,0-.12-2.2l-2.79-2.58A1.12,1.12,0,0,0,245,45.3l-.3.2a1.1,1.1,0,0,1-.61.19h-4.65A1.59,1.59,0,0,1,238,43.4c.14-.29.29-.58.43-.88a1.58,1.58,0,0,0-.74-2.13L235,39.09a1.6,1.6,0,0,0-2.11.75,79.89,79.89,0,0,1-11.42,17.41,1.57,1.57,0,0,0,.1,2.16,25.94,25.94,0,0,1,2.06,2.15,1.58,1.58,0,0,0,2.46-.05l.42-.56c0,23.15-.19,28.83-4.69,37.73a1.57,1.57,0,0,0,.52,2,24.65,24.65,0,0,1,2.48,1.94,1.59,1.59,0,0,0,2.49-.5,44.72,44.72,0,0,0,4.11-13.28A1.59,1.59,0,0,1,233,87.52H244.3a1.59,1.59,0,0,1,1.58,1.59v5.54a3,3,0,0,1-2.95,2.95h-.08a1.57,1.57,0,0,0-1.42,2.28,17.86,17.86,0,0,1,1.24,3.06,1.62,1.62,0,0,0,1.79,1.15c7.41-1.21,7.47-3.42,7.47-6.27v-39A1.58,1.58,0,0,0,250.35,57.28ZM231.1,54.8c.83-1.23,1.69-2.48,2.5-3.63a1.58,1.58,0,0,1,1.29-.66h4A1.58,1.58,0,0,1,240.22,53l-2.3,3.6a1.57,1.57,0,0,1-1.32.72h-4.19A1.58,1.58,0,0,1,231.1,54.8Zm14.78,12.92V80.46a1.59,1.59,0,0,1-1.58,1.59h-6.46l-5.8-5.8c0-.11,0-.23,0-.34V64.05a1.59,1.59,0,0,1,1.58-1.59H244.3a1.59,1.59,0,0,1,1.58,1.59Z"/><path class="cls-15" d="M272.45,93.84c-.11-2.7,0-10.49,0-10.49A1.59,1.59,0,0,1,274,81.76h7.77a1.59,1.59,0,0,0,1.59-1.58V56.06a1.59,1.59,0,0,0-1.59-1.59H274a1.59,1.59,0,0,1-1.59-1.58V41.37a1.59,1.59,0,0,0-1.58-1.59h-2.59a1.59,1.59,0,0,0-1.59,1.59V52.89a1.58,1.58,0,0,1-1.58,1.58h-7.92a1.59,1.59,0,0,0-1.59,1.59V83.35a1.59,1.59,0,0,0,1.59,1.58h2.65a1.56,1.56,0,0,0,1.52-1.62A1.59,1.59,0,0,1,263,81.76h2.16a1.59,1.59,0,0,1,1.58,1.59V94.59a1.58,1.58,0,0,1-1.41,1.58c-3.35.35-6.75.58-10,.76a1.59,1.59,0,0,0-1.48,1.83l.5,3.17a1.57,1.57,0,0,0,1.74,1.32c4.75-.6,12.77-1.41,18.64-2.09a1.32,1.32,0,0,0,1.16-1.48,2.46,2.46,0,0,0-.93-2.09C274.05,96.89,272.58,96.93,272.45,93.84Zm0-32.1A1.59,1.59,0,0,1,274,60.16h1.8a1.58,1.58,0,0,1,1.58,1.58v13a1.58,1.58,0,0,1-1.58,1.58H274a1.59,1.59,0,0,1-1.59-1.58Zm-5.76,13a1.58,1.58,0,0,1-1.58,1.58H263a1.59,1.59,0,0,1-1.59-1.58v-13A1.59,1.59,0,0,1,263,60.16h2.16a1.58,1.58,0,0,1,1.58,1.58Z"/><path class="cls-15" d="M135.5,92.64a24.33,24.33,0,0,1-2.38-1.49,1.53,1.53,0,0,0-2.36.88c-.45,1.79-1,3.56-1.67,3.56s-4.32-5.53-5.77-22.47a1.55,1.55,0,0,1,1.54-1.68h8.23a1.54,1.54,0,0,0,1.54-1.55V67.36a1.54,1.54,0,0,0-1.54-1.54h-8.57A1.53,1.53,0,0,1,123,64.28c0-5.09.08-10.35.35-15a1.53,1.53,0,0,1,1.17-1.39c1.84-.44,3.8-.92,5.8-1.51a1.55,1.55,0,0,0,.92-2.23L129.49,41a1.53,1.53,0,0,0-1.83-.71,200.25,200.25,0,0,1-22.53,6.19,1.42,1.42,0,0,1-.68,0l-1.83-.41a1.54,1.54,0,0,0-1.88,1.5V92.65a3.7,3.7,0,0,1-3.07,3.66l-2.89.49a1.54,1.54,0,0,0-1.22,2l1,3.47a1.54,1.54,0,0,0,1.83,1.06c4.75-1.14,13.29-3.25,20.93-5.51a1.55,1.55,0,0,0,1.1-1.48V93.58a1.54,1.54,0,0,0-1.9-1.49c-2.79.68-5.61,1.29-8,1.85a1.54,1.54,0,0,1-1.88-1.51V73a1.54,1.54,0,0,1,1.54-1.54h7.54a1.53,1.53,0,0,1,1.54,1.41c.57,7.32,1.55,17.85,6.21,25.58,1.92,3.13,5,5.4,7,5.4,2.88,0,4.49-4.91,5.72-9.46A1.51,1.51,0,0,0,135.5,92.64ZM106.64,64.28V52.75a1.52,1.52,0,0,1,1.25-1.51c2.37-.45,4.73-.88,7-1.3a1.54,1.54,0,0,1,1.8,1.52V64.29a1.53,1.53,0,0,1-1.54,1.53h-7A1.54,1.54,0,0,1,106.64,64.28Z"/><path class="cls-15" d="M92.66,76.31h0a1.49,1.49,0,0,0,2,.94l2.75-1.08a1.49,1.49,0,0,0,.86-1.91,85.36,85.36,0,0,0-3.59-8.13,1.5,1.5,0,0,0-1.81-.74l-2.65.9a1.48,1.48,0,0,0-.86,2.06l.19.4a1.5,1.5,0,0,1-1.18,2.14c-.86.09-1.73.17-2.59.24a1.49,1.49,0,0,1-1.39-2.26c2.75-4.51,8-13.05,10.4-16.93a1.5,1.5,0,0,0-.55-2.08L90.88,48a1.5,1.5,0,0,0-2.07.63c-1.35,2.72-2.86,5.73-4.25,8.27a1.48,1.48,0,0,1-2.13.51l-.9-.6a1.55,1.55,0,0,1-.64-2c1.89-3.63,4.14-8.11,5.64-11.1a1.48,1.48,0,0,0-.63-2l-3.06-1.64a1.48,1.48,0,0,0-2.09.77c-1.35,3.47-3,7.22-4.43,10.57a1.5,1.5,0,0,1-2.09.71l0,0a1.5,1.5,0,0,0-2.06.65L70.81,55.4a1.49,1.49,0,0,0,.6,2,72.81,72.81,0,0,1,8.23,5.56,1.5,1.5,0,0,1,.4,1.9C78.88,67,77.78,69,76.8,70.88a1.07,1.07,0,0,1-.9.59l-3.73.23a1.48,1.48,0,0,0-1.38,1.65l.3,2.82a1.49,1.49,0,0,0,1.68,1.32c2.19-.29,4.65-.58,7-.9a1.49,1.49,0,0,1,1.7,1.48V102a1.48,1.48,0,0,0,1.49,1.49h3.27A1.48,1.48,0,0,0,87.67,102V77A1.51,1.51,0,0,1,89,75.52c.71-.09,1.42-.18,2.09-.25A1.48,1.48,0,0,1,92.66,76.31Z"/><path class="cls-15" d="M95.35,92h0a1.55,1.55,0,0,0,1.24-1.88c-.37-1.67-.7-3.34-1-5A4.11,4.11,0,0,0,91,81.68h0a1.55,1.55,0,0,0-1.34,1.73c.23,1.79.52,3.57.89,5.33A4.16,4.16,0,0,0,95.35,92Z"/><path class="cls-15" d="M73,86a83.42,83.42,0,0,1-2.4,10.08,1.11,1.11,0,0,0,.77,1.4h.06a4.83,4.83,0,0,0,6-3.57q1.17-5.19,1.94-10.46a1.12,1.12,0,0,0-.91-1.25h0A4.67,4.67,0,0,0,73,86Z"/></g></g></svg>