<svg xmlns="http://www.w3.org/2000/svg" width="454.602" height="476.602" viewBox="0 0 454.602 476.602">
  <g id="Group_23" data-name="Group 23" transform="translate(161.7 -2117.699)">
    <path id="Polygon_46" data-name="Polygon 46" d="M17.5,0,35,58H0Z" transform="matrix(0.5, -0.866, 0.866, 0.5, 225.173, 2463)" fill="#fbaf3a"/>
    <path id="Polygon_29" data-name="Polygon 29" d="M17.5,0,35,58H0Z" transform="translate(81.318 2315.19) rotate(179)" fill="#65c190"/>
    <path id="Polygon_41" data-name="Polygon 41" d="M17.5,0,35,58H0Z" transform="translate(81.105 2175.69) rotate(179)" fill="#65c190"/>
    <path id="Polygon_37" data-name="Polygon 37" d="M17.5,0,35,58H0Z" transform="translate(143.482 2249.02) rotate(-150)" fill="#65c190"/>
    <path id="Polygon_40" data-name="Polygon 40" d="M17.5,0,35,58H0Z" transform="translate(-23.416 2454.436) rotate(30)" fill="#65c190"/>
    <path id="Polygon_32" data-name="Polygon 32" d="M17.5,0,35,58H0Z" transform="translate(45.098 2388.266) rotate(-1)" fill="#65c190"/>
    <path id="Polygon_42" data-name="Polygon 42" d="M17.5,0,35,58H0Z" transform="translate(45.309 2536.31) rotate(-1)" fill="#65c190"/>
    <path id="Polygon_30" data-name="Polygon 30" d="M17.5,0,35,58H0Z" transform="translate(91.307 2387.956) rotate(-60)" fill="#fbaf3a"/>
    <path id="Polygon_34" data-name="Polygon 34" d="M17.5,0,35,58H0Z" transform="translate(35.107 2315.5) rotate(120)" fill="#fbaf3a"/>
    <path id="Polygon_36" data-name="Polygon 36" d="M17.5,0,35,58H0Z" transform="matrix(-0.866, 0.5, -0.5, -0.866, 16.684, 2231.52)" fill="#fbaf3a"/>
    <path id="Polygon_38" data-name="Polygon 38" d="M17.5,0,35,58H0Z" transform="matrix(0.866, -0.5, 0.5, 0.866, 113.172, 2471.936)" fill="#fbaf3a"/>
    <path id="Polygon_31" data-name="Polygon 31" d="M17.5,0,35,58H0Z" transform="translate(17.395 2357.645) rotate(60)" fill="#eb633d"/>
    <path id="Polygon_33" data-name="Polygon 33" d="M17.5,0,35,58H0Z" transform="translate(109.021 2345.811) rotate(-120)" fill="#eb633d"/>
    <path id="Polygon_45" data-name="Polygon 45" d="M17.5,0,35,58H0Z" transform="translate(241.326 2274.466) rotate(-120)" fill="#eb633d"/>
    <path id="Polygon_35" data-name="Polygon 35" d="M17.5,0,35,58H0Z" transform="translate(191.387 2375.145) rotate(-90)" fill="#eb633d"/>
    <path id="Polygon_44" data-name="Polygon 44" d="M17.5,0,35,58H0Z" transform="translate(-93.971 2205.301) rotate(120)" fill="#fbaf3a"/>
    <path id="Polygon_43" data-name="Polygon 43" d="M17.5,0,35,58H0Z" transform="translate(-111.471 2444.345) rotate(60)" fill="#eb633d"/>
    <path id="Polygon_39" data-name="Polygon 39" d="M17.5,0,35,58H0Z" transform="translate(-64.971 2328.311) rotate(90)" fill="#eb633d"/>
  </g>
</svg>
