<svg xmlns="http://www.w3.org/2000/svg" viewBox="0 0 1432.36 517.76"><defs><style>.cls-1{fill:#e49f1c;}.cls-2,.cls-4,.cls-5{fill:none;stroke-miterlimit:10;stroke-width:2px;}.cls-2{stroke:#0173bb;}.cls-3{fill:#66c190;}.cls-4{stroke:#eb4e21;}.cls-5{stroke:#de5e3a;}</style></defs><g id="Layer_2" data-name="Layer 2"><g id="Layer_8" data-name="Layer 8"><rect class="cls-1" x="728.45" y="295.73" width="194.65" height="194.65" transform="translate(183.86 -258.36) rotate(19.97)"/><path class="cls-2" d="M1430.72,1S1274-.13,1183.73,24.38c-114,31-178.6,80-231.9,137-75.75,81-155.57,202.25-300,216.83S376,309.39,222.33,287.24C67.29,264.9.72,335,.72,335"/><path class="cls-3" d="M1027.24,322.82A90.06,90.06,0,0,1,899.3,196Z"/><path class="cls-4" d="M1432.08,285.79c-216.67-64.27-529.1-39.56-685,6.09-160.62,47-357.53,160.71-522.77,198.77C97.76,519.81.72,472.76.72,472.76"/><circle class="cls-5" cx="316.12" cy="79.37" r="54.99"/></g></g></svg>