<svg xmlns="http://www.w3.org/2000/svg" viewBox="0 0 501.7 143.04"><defs><style>.cls-1{fill:#3f2929;}.cls-10,.cls-11,.cls-12,.cls-13,.cls-14,.cls-2,.cls-3,.cls-4,.cls-5,.cls-6,.cls-7,.cls-8,.cls-9{fill:none;stroke:#dfdfde;}.cls-2{stroke-miterlimit:10;stroke-width:3px;}.cls-10,.cls-11,.cls-12,.cls-13,.cls-14,.cls-3,.cls-4,.cls-5,.cls-6,.cls-7,.cls-8,.cls-9{stroke-linejoin:round;stroke-width:2px;}.cls-4{stroke-dasharray:6.11 6.11;}.cls-5{stroke-dasharray:9.17 6.11 6.11 6.11;}.cls-6{stroke-dasharray:6.47 6.47;}.cls-7{stroke-dasharray:9.7 6.47 6.47 6.47;}.cls-8{stroke-dasharray:6.15 6.15;}.cls-9{stroke-dasharray:9.23 6.15 6.15 6.15;}.cls-10{stroke-dasharray:5.69 5.69;}.cls-11{stroke-dasharray:8.54 5.69 5.69 5.69;}.cls-12{stroke-dasharray:7.1 7.1;}.cls-13{stroke-dasharray:3.88 3.88;}.cls-14{stroke-dasharray:5.82 3.88 3.88 3.88;}.cls-15{fill:#dfdfde;}</style></defs><g id="Layer_2" data-name="Layer 2"><g id="Layer_7" data-name="Layer 7"><path class="cls-1" d="M452.52,143H6.63A6.63,6.63,0,0,1,0,136.36V6.63A6.63,6.63,0,0,1,6.63,0H493.19a6.63,6.63,0,0,1,6.63,6.63V91.69Z"/><polyline class="cls-2" points="501.7 91.74 454.4 91.74 454.4 143.04"/><polyline class="cls-3" points="454.4 125.36 454.4 129.86 449.9 129.86"/><line class="cls-4" x1="443.79" y1="129.86" x2="434.62" y2="129.86"/><line class="cls-5" x1="431.56" y1="129.86" x2="21.97" y2="129.86"/><polyline class="cls-3" points="18.92 129.86 14.42 129.86 14.42 125.36"/><line class="cls-6" x1="14.42" y1="118.9" x2="14.42" y2="109.2"/><line class="cls-7" x1="14.42" y1="105.97" x2="14.42" y2="21.92"/><polyline class="cls-3" points="14.42 18.69 14.42 14.19 18.92 14.19"/><line class="cls-8" x1="25.07" y1="14.19" x2="34.29" y2="14.19"/><line class="cls-9" x1="37.37" y1="14.19" x2="477.11" y2="14.19"/><polyline class="cls-3" points="480.19 14.19 484.69 14.19 484.69 18.69"/><line class="cls-10" x1="484.69" y1="24.38" x2="484.69" y2="32.92"/><line class="cls-11" x1="484.69" y1="35.76" x2="484.69" y2="84.14"/><polyline class="cls-3" points="484.69 86.99 484.69 91.49 480.19 91.53"/><line class="cls-12" x1="473.09" y1="91.59" x2="462.45" y2="91.67"/><polyline class="cls-3" points="458.9 91.7 454.4 91.74 454.4 96.24"/><line class="cls-13" x1="454.4" y1="100.12" x2="454.4" y2="105.95"/><line class="cls-14" x1="454.4" y1="107.89" x2="454.4" y2="123.42"/><path class="cls-15" d="M182.69,44.92c-.41.69-.83,1.38-1.25,2.06a2.1,2.1,0,0,0,2,3.17A82.6,82.6,0,0,0,194,48.32a2.09,2.09,0,0,1,2.57,1.92l.11,1.95a2.1,2.1,0,0,1-1.81,2.19c-8.36,1.16-11.64,1.52-18.12,1.9a2.11,2.11,0,0,0-1.63.94c-.36.56-.75,1.14-1.13,1.72a2.08,2.08,0,0,0,1.78,3.24h.35c6.52,0,8.55,3.53,9.22,6.16a2.07,2.07,0,0,0,2.76,1.41c5.09-1.94,10.23-3.84,15.37-5.69a2.09,2.09,0,0,1,2.7,1.31l.9,2.71a2.09,2.09,0,0,1-1.53,2.69,149.35,149.35,0,0,0-18.29,5.45,2.07,2.07,0,0,0-1.38,2c0,2.17.05,4.76.07,6.9a2.08,2.08,0,0,1-2.09,2.11h-2.33a2.09,2.09,0,0,1-2.09-2.09V82.31a2.09,2.09,0,0,0-3-1.9c-5,2.29-9.57,5-9.57,8.62,0,6.12,12.17,6.12,16.06,6.12a116.22,116.22,0,0,0,16.71-1.1,2.09,2.09,0,0,1,2.37,2.07V98.7a2.09,2.09,0,0,1-1.93,2.08c-7.5.59-12.94.71-15.06.71-5.33,0-15.05-.21-20.24-4.32a9.6,9.6,0,0,1-4.17-7.7c0-7.8,9.47-12.28,17.52-15.86a2.09,2.09,0,0,0,1.23-2c-.15-2.08-.88-4.14-4.42-4.14-6.38,0-9.55,3.07-18.78,13.73a2.1,2.1,0,0,1-3,.14l-1.84-1.8a2.09,2.09,0,0,1,.05-3,101,101,0,0,0,14.52-16.11,2.1,2.1,0,0,0-1.79-3.3c-2.51.1-4.87.16-5.46.16-.42,0-.86,0-1.31,0a2.09,2.09,0,0,1-2-2l-.06-2A2.08,2.08,0,0,1,157.44,51c2.19.11,4.59.15,7.46.15,1.38,0,3,0,5.63-.14a2.12,2.12,0,0,0,1.75-1.14c1.45-2.88,2.52-5.32,3.64-8a2.09,2.09,0,0,1,2.7-1.15l3.06,1.2A2.09,2.09,0,0,1,182.69,44.92Z"/><path class="cls-15" d="M255.79,76.43h0a2.41,2.41,0,0,0,2.41,2.41H281a2.41,2.41,0,0,1,2.41,2.41v.65A2.41,2.41,0,0,1,281,84.31H262.88a1,1,0,0,0-.58,1.81c7.07,4.88,15.12,7.09,20.15,8.12A2.41,2.41,0,0,1,284,97.88c-.35.58-.68,1.18-1,1.82A2.44,2.44,0,0,1,280.2,101c-8.68-2.26-14.59-4.85-23-11.58a.88.88,0,0,0-1.44.69V102a2.41,2.41,0,0,1-2.41,2.41h-1.87a2.41,2.41,0,0,1-2.42-2.41V90a1,1,0,0,0-1.6-.77c-7.77,6.15-15.53,9.15-22.17,11.48a2.45,2.45,0,0,1-2.89-1c-.24-.41-.5-.8-.77-1.2a2.42,2.42,0,0,1,1.3-3.68c6.89-2.09,12.84-4.41,19-8.7a1,1,0,0,0-.58-1.81H224.5a2.41,2.41,0,0,1-2.41-2.41v-.65a2.41,2.41,0,0,1,2.41-2.41h22.18a2.41,2.41,0,0,0,2.41-2.41h0A2.41,2.41,0,0,1,251.51,74h1.87A2.41,2.41,0,0,1,255.79,76.43Zm-20.34-8.76c-5.1,2.23-7.63,3.28-10.18,4.26a2.4,2.4,0,0,1-3.11-1.37l-.6-1.55A2.4,2.4,0,0,1,223,65.86c2.9-1,6.59-2.26,10.55-3.9a2.41,2.41,0,0,1,3.32,2.21l0,1.26A2.42,2.42,0,0,1,235.45,67.67Zm-8.41-24a59.55,59.55,0,0,1,7.17,3.72A2.4,2.4,0,0,1,235,50.7l-1,1.59a2.4,2.4,0,0,1-3.32.7q-2.6-1.65-6.58-3.7a2.41,2.41,0,0,1-.84-3.57l1-1.29A2.4,2.4,0,0,1,227,43.63Zm38.69,4.5V69.44a2.42,2.42,0,0,1-2.42,2.42H241.57a2.41,2.41,0,0,1-2.41-2.42V48.13a2.41,2.41,0,0,1,2.41-2.41H246a2.41,2.41,0,0,0,2.4-2.14c.11-.91.21-1.83.31-2.77a2.41,2.41,0,0,1,2.68-2.15l1.5.17a2.42,2.42,0,0,1,2,3.07l-.21.73A2.41,2.41,0,0,0,257,45.72h6.27A2.41,2.41,0,0,1,265.73,48.13Zm-8.39,12.71H247.4m12.35-7.45V53a2.41,2.41,0,0,0-2.41-2.41H247.4A2.41,2.41,0,0,0,245,53V64.33a2.41,2.41,0,0,0,2.41,2.41h9.94a2.41,2.41,0,0,0,2.41-2.41Zm20.8-4.32c-2.31,1.57-5,3.36-8,5.3a2.43,2.43,0,0,1-3.32-.72c-.23-.36-.47-.71-.7-1a2.4,2.4,0,0,1,.68-3.37c2.45-1.59,5.14-3.4,7.84-5.3a2.4,2.4,0,0,1,3.4.64l.78,1.18A2.42,2.42,0,0,1,280.55,49.07Zm-2.9,22.37c-2.95-2.17-5.77-4-8.46-5.67a2.4,2.4,0,0,1-.77-3.34l.66-1a2.41,2.41,0,0,1,3.15-.84c2.81,1.49,6,3.38,9.17,5.4a2.42,2.42,0,0,1,.69,3.42l-1,1.5A2.4,2.4,0,0,1,277.65,71.44Z"/><path class="cls-15" d="M312.61,43.36a1.87,1.87,0,0,1,1.81,2c-.95,10.44-2,25.94-2,34.59,0,5.19.22,9,1.66,11,2.09,2.44,5.47,3.31,8.64,3.31,13.95,0,21.88-12.35,25.44-18.84a1.87,1.87,0,0,1,2.75-.59c.83.62,1.67,1.18,2.46,1.66A1.87,1.87,0,0,1,354,79C349,87.26,343.86,93.2,336.36,97a30.12,30.12,0,0,1-14.12,3.6c-7,0-11.44-3-13.39-5.62-2.45-3.24-3.1-7.49-3.1-15.12,0-4.81.49-26.61.57-34.76a1.86,1.86,0,0,1,1.92-1.84Z"/><path class="cls-15" d="M391.05,43.07c-.14,1.6-.31,3.61-.44,5.26a2.33,2.33,0,0,0,2.7,2.5c2.59-.41,4.69-.88,6.56-1.36a2.35,2.35,0,0,1,2.94,2.22l0,1.79a2.33,2.33,0,0,1-1.91,2.35c-3.29.65-6.42,1.11-9.28,1.39a2.33,2.33,0,0,0-2.08,2.05c-.4,3.31-.91,6.55-1.38,9.06a2.24,2.24,0,0,0,0,.73,30.35,30.35,0,0,1,.3,4.09,26.14,26.14,0,0,1-1.65,8.35c-1.15,3.24-2.45,7.28-2.45,9.87a2.91,2.91,0,0,0,1.94,3.09c2.31.87,10.66,1.16,13.25,1.16,3.6,0,12.53-.15,14.55-2.24,1.08-1.22,1.08-3.81,1.08-4.46,0-2.89-.52-6.29-1.65-13a2.35,2.35,0,0,1,2.11-2.72c.6-.07,1.23-.15,1.87-.27a2.39,2.39,0,0,1,2.68,1.81,75.72,75.72,0,0,1,2.12,16.23c0,2,0,6.76-6,9.14-3.31,1.23-11.45,2-17.21,2-15,0-21.17-2.24-21.17-8.65a14.05,14.05,0,0,1,.51-3.45,2.36,2.36,0,0,0-2.42-2.9l-.54,0c-4.89,0-7.63-5-7.63-9.07,0-7.57,6.34-14.91,11.95-14.91l.41,0a2.39,2.39,0,0,0,2.66-2.1c0-.18,0-.35,0-.52a2.33,2.33,0,0,0-2.3-2.53c-3,0-6.06-.18-8.77-.38a2.34,2.34,0,0,1-2.17-2.36l0-1.83a2.36,2.36,0,0,1,2.67-2.3,65.48,65.48,0,0,0,9,.55,2.36,2.36,0,0,0,2.37-2.24c0-.93,0-1.67,0-2.44V42.8a2.34,2.34,0,0,1,2.41-2.34l2.57.07A2.34,2.34,0,0,1,391.05,43.07ZM380,67.82c-2.45,0-6.48,5.12-6.48,9.36,0,2.52,1.37,5.33,3.38,5.33,1.73,0,3.6-1.73,4.39-3.67a23.08,23.08,0,0,0,1.23-7.27C382.51,69.41,382.15,67.82,380,67.82Zm41.53-14.46a82.73,82.73,0,0,1,7.72,12.08,2.35,2.35,0,0,1-1,3.23l-1.7.81a2.34,2.34,0,0,1-3.1-1,88.07,88.07,0,0,0-7-11.4,2.35,2.35,0,0,1,.61-3.31l1.35-.9A2.34,2.34,0,0,1,421.52,53.36Z"/><rect class="cls-15" x="249.01" y="55.52" width="6.86" height="6.86" rx="1.3" transform="translate(32.25 195.77) rotate(-45)"/><path class="cls-15" d="M137.12,92.31a24.18,24.18,0,0,1-2.37-1.49,1.53,1.53,0,0,0-2.37.88c-.45,1.79-1,3.56-1.67,3.56S126.4,89.73,125,72.79a1.54,1.54,0,0,1,1.53-1.68h8.23a1.54,1.54,0,0,0,1.54-1.54V67a1.54,1.54,0,0,0-1.54-1.54h-8.57A1.54,1.54,0,0,1,124.6,64c0-5.09.09-10.35.36-15a1.51,1.51,0,0,1,1.16-1.39c1.85-.44,3.8-.92,5.81-1.51a1.55,1.55,0,0,0,.91-2.23l-1.72-3.11a1.54,1.54,0,0,0-1.84-.71,199.67,199.67,0,0,1-22.53,6.19,1.52,1.52,0,0,1-.67,0l-1.83-.42a1.54,1.54,0,0,0-1.89,1.5V92.32A3.7,3.7,0,0,1,99.29,96l-2.88.49a1.54,1.54,0,0,0-1.23,2l1,3.47A1.54,1.54,0,0,0,98,103c4.75-1.14,13.28-3.25,20.92-5.51a1.54,1.54,0,0,0,1.1-1.48v-2.7a1.54,1.54,0,0,0-1.9-1.5c-2.78.68-5.61,1.29-8,1.85a1.54,1.54,0,0,1-1.88-1.51V72.65a1.54,1.54,0,0,1,1.54-1.54h7.55a1.53,1.53,0,0,1,1.53,1.41c.58,7.32,1.56,17.85,6.22,25.58,1.91,3.13,5,5.4,7,5.4,2.87,0,4.48-4.91,5.72-9.46A1.52,1.52,0,0,0,137.12,92.31ZM108.26,64V52.42a1.53,1.53,0,0,1,1.26-1.51c2.36-.44,4.72-.88,7-1.29a1.53,1.53,0,0,1,1.81,1.51V64a1.53,1.53,0,0,1-1.54,1.53h-7A1.54,1.54,0,0,1,108.26,64Z"/><path class="cls-15" d="M94.28,76h0a1.5,1.5,0,0,0,2,.94L99,75.84a1.49,1.49,0,0,0,.86-1.91,86.41,86.41,0,0,0-3.58-8.13,1.52,1.52,0,0,0-1.82-.74l-2.64.9A1.49,1.49,0,0,0,91,68l.19.4A1.49,1.49,0,0,1,90,70.56c-.86.09-1.73.17-2.59.24A1.49,1.49,0,0,1,86,68.54C88.74,64,94,55.49,96.38,51.61a1.49,1.49,0,0,0-.54-2.07l-3.33-1.89a1.49,1.49,0,0,0-2.07.63C89.08,51,87.58,54,86.18,56.55a1.48,1.48,0,0,1-2.13.51l-.89-.6a1.54,1.54,0,0,1-.64-2c1.88-3.63,4.13-8.11,5.63-11.1a1.48,1.48,0,0,0-.63-2l-3-1.64a1.49,1.49,0,0,0-2.1.77c-1.34,3.47-3,7.22-4.43,10.57a1.5,1.5,0,0,1-2.09.71l0,0a1.5,1.5,0,0,0-2.06.65l-1.31,2.67a1.48,1.48,0,0,0,.6,2,74.65,74.65,0,0,1,8.23,5.56,1.51,1.51,0,0,1,.4,1.9c-1.16,2.19-2.27,4.2-3.24,6.07a1.08,1.08,0,0,1-.91.59l-3.72.23A1.49,1.49,0,0,0,72.41,73l.31,2.82a1.49,1.49,0,0,0,1.67,1.32c2.2-.29,4.65-.58,7-.9A1.49,1.49,0,0,1,83,77.74v23.91a1.5,1.5,0,0,0,1.49,1.5H87.8a1.5,1.5,0,0,0,1.5-1.5v-25a1.48,1.48,0,0,1,1.3-1.48c.71-.1,1.42-.18,2.09-.26A1.47,1.47,0,0,1,94.28,76Z"/><path class="cls-15" d="M97,91.7h0a1.55,1.55,0,0,0,1.25-1.88c-.38-1.67-.71-3.34-1-5a4.12,4.12,0,0,0-4.57-3.44h0a1.55,1.55,0,0,0-1.35,1.73q.34,2.69.89,5.33A4.17,4.17,0,0,0,97,91.7Z"/><path class="cls-15" d="M74.63,85.64a85.51,85.51,0,0,1-2.4,10.09A1.1,1.1,0,0,0,73,97.12h.06a4.82,4.82,0,0,0,6-3.57Q80.21,88.37,81,83.1a1.11,1.11,0,0,0-.9-1.25h0A4.67,4.67,0,0,0,74.63,85.64Z"/></g></g></svg>