<svg xmlns="http://www.w3.org/2000/svg" viewBox="0 0 478.22 125.21"><defs><style>.a{fill:#fff;}.b{fill:none;stroke:#fff;stroke-miterlimit:10;stroke-width:0.99px;}</style></defs><path class="a" d="M106.92,41.89V25.27A25.3,25.3,0,0,0,81.65,0H39.53A25.3,25.3,0,0,0,14.26,25.27V67.39A25.3,25.3,0,0,0,39.53,92.68H81.65a25.32,25.32,0,0,0,25.27-25.29v-8.7H56.64c-2,0-8.42-.44-8.42-6.37V8.42H81.65A16.87,16.87,0,0,1,98.5,25.27V41.89ZM56.64,67.13H98.5v.26A16.87,16.87,0,0,1,81.65,84.24H39.53A16.85,16.85,0,0,1,22.69,67.39V25.27A16.85,16.85,0,0,1,39.53,8.42h.27v43.9C39.8,61.18,46.57,67.13,56.64,67.13Z"/><path class="a" d="M119.84,117.39a1.54,1.54,0,0,0,1.55-1.55,1.54,1.54,0,0,0-.45-1.09,1.56,1.56,0,0,0-1.1-.45h-6v-3.09h6a1.55,1.55,0,0,0,1.55-1.54,1.57,1.57,0,0,0-.46-1.1,1.54,1.54,0,0,0-1.09-.45H112.2a1.54,1.54,0,0,0-1.09.45,1.57,1.57,0,0,0-.46,1.1v13.9a1.55,1.55,0,0,0,1.55,1.54h7.72a1.55,1.55,0,0,0,1.55-1.54,1.55,1.55,0,0,0-1.55-1.55h-6v-4.63Z"/><path class="a" d="M0,109.5v13.9a1.54,1.54,0,0,0,1.54,1.54H9.27a1.54,1.54,0,0,0,1.54-1.54,1.56,1.56,0,0,0-.45-1.1,1.58,1.58,0,0,0-1.09-.45H3.09V109.5A1.54,1.54,0,0,0,1.54,108a1.54,1.54,0,0,0-1.09.45A1.56,1.56,0,0,0,0,109.5Z"/><path class="a" d="M105.23,114.3h-6v-3.09h6.05a1.56,1.56,0,0,0,1.1-.45,1.54,1.54,0,0,0,.45-1.09,1.54,1.54,0,0,0-1.55-1.55H97.66a1.54,1.54,0,0,0-1.09.45,1.56,1.56,0,0,0-.45,1.1v13.9a1.52,1.52,0,0,0,.12.59,1.41,1.41,0,0,0,.33.5,1.61,1.61,0,0,0,.5.33,1.54,1.54,0,0,0,1.19,0,1.61,1.61,0,0,0,.5-.33,1.56,1.56,0,0,0,.33-.5,1.52,1.52,0,0,0,.12-.59v-6.18h6a1.54,1.54,0,0,0,1.09-.45,1.57,1.57,0,0,0,.46-1.1,1.55,1.55,0,0,0-1.55-1.54Z"/><path class="a" d="M27.8,123l-5.65-14.11a1.57,1.57,0,0,0-.52-.67,1.52,1.52,0,0,0-.81-.3h-.26a1.59,1.59,0,0,0-.82.29,1.62,1.62,0,0,0-.53.68L13.56,123a1.58,1.58,0,0,0,2.09,2,1.61,1.61,0,0,0,.85-.87l1-2.53h6.34l1,2.53a1.61,1.61,0,0,0,.85.87,1.58,1.58,0,0,0,2.09-2Zm-9-4.53,1.9-4.74,1.92,4.74Z"/><path class="a" d="M92.51,123l-5.67-14.11a1.51,1.51,0,0,0-.53-.67,1.46,1.46,0,0,0-.8-.3h-.26a1.59,1.59,0,0,0-.82.29,1.54,1.54,0,0,0-.53.68L78.25,123a1.59,1.59,0,0,0,0,1.21,1.63,1.63,0,0,0,.87.84,1.56,1.56,0,0,0,2.05-.88l1-2.53h6.35l1,2.53a1.56,1.56,0,0,0,2,.88,1.63,1.63,0,0,0,.87-.84,1.59,1.59,0,0,0,0-1.21Zm-9.1-4.53,1.9-4.74,1.91,4.74Z"/><path class="a" d="M40.16,115.66a4.67,4.67,0,0,0,.93-2.81,4.8,4.8,0,0,0-1.41-3.39,4.75,4.75,0,0,0-3.38-1.4H33.21a1.55,1.55,0,0,0-1.55,1.54v13.81a1.53,1.53,0,0,0,.46,1.09,1.55,1.55,0,0,0,1.09.46h3.66a5.28,5.28,0,0,0,4.81-3.53,5.3,5.3,0,0,0-1.52-5.77Zm-5.44-4.45h1.55a1.61,1.61,0,0,1,1.14.47,1.63,1.63,0,0,1,0,2.29,1.61,1.61,0,0,1-1.14.47H34.72Zm2.09,10.66H34.72v-4.25h2.07a2.13,2.13,0,1,1,0,4.26Z"/><path class="a" d="M54.06,114.75h-2v-2a1.55,1.55,0,1,0-3.09,0v2H46.88a1.55,1.55,0,1,0,0,3.09h2v2a1.55,1.55,0,0,0,3.09,0v-2h2.05a1.55,1.55,0,0,0,0-3.09Z"/><path class="a" d="M59.53,116.48a8.74,8.74,0,0,0,15.61,5.39,1.6,1.6,0,0,0,.32-1.19,1.62,1.62,0,0,0-.62-1.06,1.61,1.61,0,0,0-2.24.3,5.57,5.57,0,1,1,0-6.87,1.48,1.48,0,0,0,.46.4,1.52,1.52,0,0,0,.59.19,1.58,1.58,0,0,0,.61,0,1.59,1.59,0,0,0,.55-.28,1.5,1.5,0,0,0,.4-.47,1.54,1.54,0,0,0,.2-.58,1.62,1.62,0,0,0,0-.62,1.68,1.68,0,0,0-.28-.55,8.69,8.69,0,0,0-4.4-3,8.74,8.74,0,0,0-9.58,3.3,8.65,8.65,0,0,0-1.63,5.06Z"/><line class="b" x1="145.06" y1="40.15" x2="183.7" y2="78.79"/><line class="b" x1="183.7" y1="40.15" x2="145.06" y2="78.79"/><path class="a" d="M226.15,43.35h-6.66V48.9H214v6.66h5.48V61h6.66V55.56h5.49V48.9h-5.49ZM255,33.3a18.25,18.25,0,0,0,0,36.5h.93l-10,15.84h9.13L269.8,62.15A18.25,18.25,0,0,0,255,33.3Zm0,28.79a10.54,10.54,0,1,1,10.49-10.54A10.53,10.53,0,0,1,255,62.09Z"/><path class="a" d="M312.9,64.8h-1.85V63a4.08,4.08,0,0,1-3.83,2.09,5.43,5.43,0,0,1-.06-10.85,4.11,4.11,0,0,1,3.76,2V50.87h2ZM304,59.69a3.45,3.45,0,0,0,3.57,3.57,3.63,3.63,0,0,0,2.53-1,3.25,3.25,0,0,0,1-2.59A3.37,3.37,0,0,0,310,57.1a3.58,3.58,0,0,0-2.53-1A3.49,3.49,0,0,0,304,59.69Z"/><path class="a" d="M316.41,60.3a3.36,3.36,0,0,0,3.45,3.15,3.22,3.22,0,0,0,3-1.73h2a5.84,5.84,0,0,1-2.1,2.53,5.42,5.42,0,1,1-2.9-10,5.26,5.26,0,0,1,5.3,6Zm6.78-1.54a3.45,3.45,0,0,0-6.78,0Z"/><path class="a" d="M331.58,57.22a1.28,1.28,0,0,0-1.48-1.36,1.32,1.32,0,0,0-1.48,1.3c.06.8.8,1.17,1.85,1.48,1.54.43,3.26.86,3.32,3.08a3.35,3.35,0,0,1-3.63,3.33,3.43,3.43,0,0,1-3.7-3.27h1.91a1.7,1.7,0,0,0,1.79,1.67,1.6,1.6,0,0,0,1.66-1.54c0-1-.8-1.36-2.59-2-1.42-.43-2.52-1.11-2.59-2.65a3.19,3.19,0,0,1,3.46-3.08,3.1,3.1,0,0,1,3.39,3h-1.91Z"/><path class="a" d="M335.46,50.87h2V53h-2Zm0,3.7h2V64.8h-2Z"/><path class="a" d="M349.89,63.63a5.26,5.26,0,0,1-1.24,3.82,5.63,5.63,0,0,1-4.31,1.85,4.91,4.91,0,0,1-5.06-3.39h2.28a3.34,3.34,0,0,0,1.11,1.17,3.12,3.12,0,0,0,1.79.56,3.39,3.39,0,0,0,3.45-3.58V63a4,4,0,0,1-3.7,2.09,5.4,5.4,0,0,1,0-10.79,4.12,4.12,0,0,1,3.7,2V54.63h2ZM341,59.69a3.44,3.44,0,0,0,3.51,3.57,3.3,3.3,0,0,0,2.53-1,3.49,3.49,0,0,0,1-2.52,3.88,3.88,0,0,0-.8-2.41,3.16,3.16,0,0,0-2.71-1.23A3.58,3.58,0,0,0,341,59.69Z"/><path class="a" d="M352.11,54.57H354v1.6a3.62,3.62,0,0,1,3.46-1.91c3.26.06,4.13,2.41,4.13,4.5v6h-2V59.19c0-1.85-.74-3.14-2.71-3.14s-2.77,1.23-2.77,3v5.67h-2Z"/><path class="a" d="M363.63,50.87h2V53h-2Zm0,3.7h2V64.8h-2Z"/><path class="a" d="M368.2,54.57h1.85v1.6a3.6,3.6,0,0,1,3.45-1.91c3.27.06,4.13,2.41,4.13,4.5v6h-2V59.19c0-1.85-.74-3.14-2.72-3.14s-2.77,1.23-2.77,3v5.67h-2Z"/><path class="a" d="M390.08,63.63a5.26,5.26,0,0,1-1.23,3.82,5.66,5.66,0,0,1-4.32,1.85,4.91,4.91,0,0,1-5-3.39h2.28a3.34,3.34,0,0,0,1.11,1.17,3.1,3.1,0,0,0,1.79.56,3.4,3.4,0,0,0,3.45-3.58V63a4,4,0,0,1-3.7,2.09,5.4,5.4,0,0,1,0-10.79,4.13,4.13,0,0,1,3.7,2V54.63h2Zm-8.94-3.94a3.45,3.45,0,0,0,3.52,3.57,3.28,3.28,0,0,0,2.52-1,3.46,3.46,0,0,0,1-2.52,3.94,3.94,0,0,0-.8-2.41,3.19,3.19,0,0,0-2.71-1.23A3.58,3.58,0,0,0,381.14,59.69Z"/><path class="a" d="M398.16,54.57H400v1.79a4.37,4.37,0,0,1,3.88-2.1,5.43,5.43,0,0,1,0,10.85,4.32,4.32,0,0,1-3.82-2V68.5h-2V54.57Zm9,5.12a3.49,3.49,0,0,0-3.58-3.58,3.37,3.37,0,0,0-2.52,1,3.58,3.58,0,0,0-1,2.53,3.46,3.46,0,0,0,1,2.52,3.61,3.61,0,0,0,2.52,1A3.5,3.5,0,0,0,407.16,59.69Z"/><path class="a" d="M411,50.87h2V64.8h-2Z"/><path class="a" d="M424.54,64.8H422.7V63.2a3.56,3.56,0,0,1-3.46,1.91c-3.26,0-4.13-2.4-4.13-4.56v-6h2v5.55c0,1.85.73,3.14,2.71,3.14s2.77-1.23,2.77-3V54.57h2Z"/><path class="a" d="M431.2,57.22a1.28,1.28,0,0,0-1.48-1.36,1.33,1.33,0,0,0-1.48,1.3c.07.8.74,1.17,1.85,1.48,1.54.43,3.27.86,3.33,3.08a3.36,3.36,0,0,1-3.63,3.33,3.43,3.43,0,0,1-3.7-3.27H428a1.7,1.7,0,0,0,1.79,1.67,1.6,1.6,0,0,0,1.66-1.54c0-1-.8-1.36-2.59-2-1.42-.43-2.53-1.11-2.59-2.65a3.18,3.18,0,0,1,3.45-3.08,3.09,3.09,0,0,1,3.39,3H431.2Z"/><path class="a" d="M440.33,54.57h1.85v1.6a3.6,3.6,0,0,1,3.45-1.91c3.27.06,4.13,2.41,4.13,4.5v6h-2V59.19c0-1.85-.74-3.14-2.72-3.14s-2.77,1.23-2.77,3v5.67h-2Z"/><path class="a" d="M452.1,50.87h2V53h-2Zm0,3.7h2V64.8h-2Z"/><path class="a" d="M456.6,54.57h1.85v1.6a3.62,3.62,0,0,1,3.46-1.91c3.26.06,4.13,2.41,4.13,4.5v6h-2V59.19c0-1.85-.74-3.14-2.71-3.14s-2.77,1.23-2.77,3v5.67h-2Z"/><path class="a" d="M469.43,60.3a3.36,3.36,0,0,0,3.45,3.15,3.23,3.23,0,0,0,3-1.73h2a5.41,5.41,0,1,1-5-7.46,5.45,5.45,0,0,1,3.76,1.48,5.61,5.61,0,0,1,1.54,4.56Zm6.84-1.54a3.45,3.45,0,0,0-6.78,0Z"/></svg>