<svg xmlns="http://www.w3.org/2000/svg" viewBox="0 0 754.52 446.36"><defs><style>.cls-1{fill:#e3e3e1;}.cls-2{fill:#3e2828;}.cls-3{fill:#fff;}.cls-4{fill:#727171;}.cls-5{fill:#231815;}.cls-10,.cls-6,.cls-7,.cls-8,.cls-9{fill:none;stroke:#231815;}.cls-6,.cls-7,.cls-8,.cls-9{stroke-linejoin:bevel;}.cls-7{stroke-dasharray:3.01 3.01;}.cls-8{stroke-dasharray:3.03 3.03;}.cls-9{stroke-dasharray:3.14 3.14;}.cls-10{stroke-miterlimit:10;stroke-dasharray:3 3;}</style></defs><title>アセット 3</title><g id="レイヤー_2" data-name="レイヤー 2"><g id="レイヤー_1-2" data-name="レイヤー 1"><rect class="cls-1" width="754.52" height="446.36"/><rect class="cls-2" x="482.14" y="196.31" width="16.72" height="24.31"/><rect class="cls-3" x="435.58" y="185.14" width="4.31" height="39.75"/><rect class="cls-3" x="436.42" y="86.27" width="4.18" height="193.55" transform="translate(255.46 621.56) rotate(-90)"/><rect class="cls-3" x="341.73" y="182.35" width="4.31" height="57.17"/><circle class="cls-3" cx="567.98" cy="210.94" r="5.21"/><circle class="cls-3" cx="517.91" cy="262.44" r="5.21"/><rect class="cls-3" x="623.62" y="248.99" width="4.31" height="64.95"/><circle class="cls-3" cx="463.71" cy="213.36" r="5.21"/><polygon class="cls-3" points="729.87 221.08 729.87 248.99 557.96 248.99 557.96 426.21 530.05 426.21 530.05 248.99 170.11 248.99 262.63 341.4 262.63 425.05 238.76 425.05 238.76 351.39 136.36 248.99 104.14 248.99 16.11 337.02 16.08 303.3 70.39 248.99 16.08 248.99 16.08 221.08 127.67 221.08 127.67 20.28 151.53 20.28 151.53 221.08 529.48 221.08 529.48 20.14 557.39 20.14 557.39 221.08 729.87 221.08"/><rect class="cls-4" x="43.09" y="198.29" width="19.89" height="73.89" transform="translate(-182.2 288.26) rotate(-90)"/><path class="cls-5" d="M327.49,132a.85.85,0,0,1,.47.33.9.9,0,0,1,.17.53.83.83,0,0,1-.24.62.78.78,0,0,1-.58.24h-.12l-.12,0a14.52,14.52,0,0,1-2.29-.95,24.93,24.93,0,0,1-4.41-2.87c-.09-.06-.14,0-.14.08v3.5a.78.78,0,0,1-.25.59.81.81,0,0,1-.61.25.85.85,0,0,1-.6-.25.79.79,0,0,1-.26-.59V130c0-.12,0-.14-.14-.08a14.3,14.3,0,0,1-1.64,1.23,18,18,0,0,1-1.84,1.08c-.62.33-1.22.61-1.78.85a14.6,14.6,0,0,1-1.48.56.23.23,0,0,1-.11,0h-.11a.74.74,0,0,1-.55-.23.81.81,0,0,1-.23-.59.92.92,0,0,1,.17-.52.9.9,0,0,1,.45-.32,18.8,18.8,0,0,0,2.06-.86,18.13,18.13,0,0,0,2-1.1,16.47,16.47,0,0,0,1.69-1.2s.06-.05,0-.09,0-.05-.1-.05h-2.68a1.33,1.33,0,0,1-1.32-1.32v-4.82a1.33,1.33,0,0,1,1.32-1.32h4.14a.11.11,0,0,0,.12-.12v-.94a.11.11,0,0,0-.12-.12h-6.7a.84.84,0,0,1-.59-.24.82.82,0,0,1-.25-.6.84.84,0,0,1,.24-.59.82.82,0,0,1,.6-.25h6.7a.11.11,0,0,0,.12-.12v-.74a.89.89,0,0,1,.25-.6.83.83,0,0,1,.61-.26.86.86,0,0,1,.6.25.8.8,0,0,1,.26.61v.74a.11.11,0,0,0,.12.12h6.7a.85.85,0,0,1,.84.84.79.79,0,0,1-.25.6.81.81,0,0,1-.59.24h-6.7a.11.11,0,0,0-.12.12v.94a.11.11,0,0,0,.12.12h4.18a1.33,1.33,0,0,1,1.32,1.32v4.82a1.33,1.33,0,0,1-1.32,1.32H322a.16.16,0,0,0-.11,0s0,.06,0,.1a21.81,21.81,0,0,0,2.58,1.73A15.6,15.6,0,0,0,327.49,132Zm-9.1-7.78a.11.11,0,0,0,.12-.12v-.94a.11.11,0,0,0-.12-.12h-3.6a.11.11,0,0,0-.12.12v.94a.11.11,0,0,0,.12.12Zm.12,1.78a.11.11,0,0,0-.12-.12h-3.6a.11.11,0,0,0-.12.12v1a.11.11,0,0,0,.12.12h3.6a.11.11,0,0,0,.12-.12ZM324,124.2a.11.11,0,0,0,.12-.12v-.94A.11.11,0,0,0,324,123h-3.64a.11.11,0,0,0-.12.12v.94a.11.11,0,0,0,.12.12Zm-3.64,1.66a.11.11,0,0,0-.12.12v1a.11.11,0,0,0,.12.12H324a.11.11,0,0,0,.12-.12v-1a.11.11,0,0,0-.12-.12Z"/><path class="cls-5" d="M347.07,120.48h-15.4a.85.85,0,0,1-.6-.25.82.82,0,0,1-.26-.61.89.89,0,0,1,.25-.6.83.83,0,0,1,.61-.26h6.7a.11.11,0,0,0,.12-.12V117.5a.89.89,0,0,1,.88-.88.85.85,0,0,1,.62.26.83.83,0,0,1,.26.62v1.14a.11.11,0,0,0,.12.12h6.7a.86.86,0,0,1,.6.25.8.8,0,0,1,.26.61.78.78,0,0,1-.26.61A.82.82,0,0,1,347.07,120.48Zm-11,7.82a.79.79,0,0,1,.5.76.7.7,0,0,1-.1.4,8.53,8.53,0,0,1-1.18,1.62,12,12,0,0,1-1.56,1.47,11.36,11.36,0,0,1-1.66,1.13.82.82,0,0,1-.42.1.87.87,0,0,1-.46-.13.74.74,0,0,1-.32-.39.86.86,0,0,1-.08-.38.92.92,0,0,1,.5-.84,9.73,9.73,0,0,0,2.05-1.5,9.23,9.23,0,0,0,1.55-1.86,1.16,1.16,0,0,1,.36-.34.94.94,0,0,1,.44-.12A.86.86,0,0,1,336.09,128.3Zm7.74-.78h-3.46a.11.11,0,0,0-.12.12v5a1.38,1.38,0,0,1-.57,1.23,3.35,3.35,0,0,1-1.85.39h-.42l-.46,0a.85.85,0,0,1-.63-.32,1.06,1.06,0,0,1-.25-.68.76.76,0,0,1,.27-.58.78.78,0,0,1,.61-.2l.72.06a4.12,4.12,0,0,0,.46,0,.85.85,0,0,0,.29,0,.09.09,0,0,0,.07-.09v-4.74a.11.11,0,0,0-.12-.12h-3.46a1.33,1.33,0,0,1-1.32-1.32v-3.12a1.33,1.33,0,0,1,1.32-1.32h8.92a1.3,1.3,0,0,1,.93.38,1.28,1.28,0,0,1,.39.94v3.12a1.24,1.24,0,0,1-.39.94A1.26,1.26,0,0,1,343.83,127.52Zm-.46-3.92a.11.11,0,0,0-.12-.12h-7.76a.11.11,0,0,0-.12.12v2.08a.11.11,0,0,0,.12.12h7.76a.11.11,0,0,0,.12-.12Zm4.12,8.48a.83.83,0,0,1,.48.76.7.7,0,0,1-.12.4.85.85,0,0,1-.8.48.82.82,0,0,1-.42-.1,11.14,11.14,0,0,1-2.54-1.88,11.41,11.41,0,0,1-1.82-2.24.77.77,0,0,1-.14-.44.86.86,0,0,1,.52-.8,1,1,0,0,1,.38-.1.92.92,0,0,1,.86.5,8.49,8.49,0,0,0,1.54,1.93A9.55,9.55,0,0,0,347.49,132.08Z"/><path class="cls-5" d="M367.47,132.5a.84.84,0,0,1,.5.82.77.77,0,0,1-.26.63.81.81,0,0,1-.58.23.63.63,0,0,1-.34-.08,10.69,10.69,0,0,1-2.17-1.39,17.6,17.6,0,0,1-2-1.94,23.16,23.16,0,0,1-1.76-2.22,19.53,19.53,0,0,1-1.36-2.25.07.07,0,0,0-.07-.06s-.06,0-.09.08a14.63,14.63,0,0,1-1.9,3.13,18,18,0,0,1-2.59,2.71,14.2,14.2,0,0,1-2.89,1.94.74.74,0,0,1-.38.08.87.87,0,0,1-.46-.13.74.74,0,0,1-.32-.39.77.77,0,0,1-.08-.34.88.88,0,0,1,.5-.82,12.51,12.51,0,0,0,2.46-1.66,15.34,15.34,0,0,0,2.14-2.2,15,15,0,0,0,1.63-2.47,9.4,9.4,0,0,0,.93-2.47v0c0-.06,0-.1-.12-.1h-6.32a.86.86,0,0,1-.62-.25.82.82,0,0,1-.26-.61.83.83,0,0,1,.26-.61.9.9,0,0,1,.62-.25h6.46a.11.11,0,0,0,.12-.12v-4a.88.88,0,0,1,.26-.61.84.84,0,0,1,.62-.27,1,1,0,0,1,.62.28.82.82,0,0,1,.26.6v4a.11.11,0,0,0,.12.12h6.46a.89.89,0,0,1,.62.25.8.8,0,0,1,.26.61.78.78,0,0,1-.26.61.84.84,0,0,1-.62.25h-6.4c-.09,0-.12.07-.08.2a11.86,11.86,0,0,0,1.25,2.81,18.43,18.43,0,0,0,1.86,2.54,19,19,0,0,0,2.08,2A10.79,10.79,0,0,0,367.47,132.5Z"/><circle class="cls-3" cx="285.8" cy="213.27" r="5.21"/><path class="cls-5" d="M277.43,200.07a8.86,8.86,0,0,1-.57.83,9.49,9.49,0,0,1-.73.82,7.14,7.14,0,0,1-.76.65.44.44,0,0,1-.21.07.45.45,0,0,1-.39-.24.53.53,0,0,1,0-.23.51.51,0,0,1,.21-.44,7.61,7.61,0,0,0,.93-.87,6.63,6.63,0,0,0,.73-1,.45.45,0,0,1,.42-.26.43.43,0,0,1,.33.15.47.47,0,0,1,.12.31A.4.4,0,0,1,277.43,200.07Zm6.91-1.65h-2.68c-.05,0-.07,0-.07.07v4.31c0,.84-.54,1.26-1.63,1.26a.43.43,0,0,1-.33-.15.51.51,0,0,1-.14-.34.48.48,0,0,1,.14-.35.43.43,0,0,1,.35-.13,2.28,2.28,0,0,0,.55,0,.23.23,0,0,0,.15-.25v-4.31a.06.06,0,0,0-.07-.07h-1.55c-.05,0-.07,0-.07.07a8.29,8.29,0,0,1-.28,2,7.43,7.43,0,0,1-.63,1.58,6.36,6.36,0,0,1-.8,1.16,6.45,6.45,0,0,1-.78.74.39.39,0,0,1-.23.07.42.42,0,0,1-.37-.23.4.4,0,0,1-.07-.24.52.52,0,0,1,.22-.41,4.83,4.83,0,0,0,1.54-2.09,7.91,7.91,0,0,0,.5-2.61c0-.05,0-.07-.08-.07h-2.74a.44.44,0,0,1-.32-.13.44.44,0,0,1-.13-.32.44.44,0,0,1,.45-.44h4c.05,0,.08,0,.08-.07V196s0-.07-.08-.07h-2.76a.42.42,0,0,1-.31-.13.39.39,0,0,1-.13-.31.41.41,0,0,1,.13-.32.42.42,0,0,1,.31-.13h2.76c.05,0,.08,0,.08-.07v-.86a.44.44,0,0,1,.13-.33.46.46,0,0,1,.32-.13.44.44,0,0,1,.46.46V195c0,.05,0,.07.07.07h2.76a.42.42,0,0,1,.31.13.41.41,0,0,1,.13.32.39.39,0,0,1-.13.31.42.42,0,0,1-.31.13h-2.76c-.05,0-.07,0-.07.07v1.42s0,.07.07.07h4a.42.42,0,0,1,.31.13.4.4,0,0,1,.13.31.41.41,0,0,1-.13.32A.42.42,0,0,1,284.34,198.42Zm.33,3a.55.55,0,0,1,.22.45.51.51,0,0,1-.06.25.42.42,0,0,1-.37.23.36.36,0,0,1-.25-.1,7.85,7.85,0,0,1-1.85-2.15.39.39,0,0,1-.05-.2.46.46,0,0,1,.44-.46.49.49,0,0,1,.45.27A6.06,6.06,0,0,0,284.67,201.39Z"/><path class="cls-5" d="M287.83,193.88h2.84a.7.7,0,0,1,.52.21.69.69,0,0,1,.2.51v3.11a.69.69,0,0,1-.2.51.7.7,0,0,1-.52.21h-2.59c-.05,0-.07,0-.07.07v5.14a.44.44,0,0,1-.44.44.44.44,0,0,1-.33-.13.42.42,0,0,1-.13-.31v-9a.72.72,0,0,1,.72-.72Zm2.6,1.85c.05,0,.08,0,.08-.07v-.82a.07.07,0,0,0-.08-.07h-2.35a.06.06,0,0,0-.07.07v.82c0,.05,0,.07.07.07Zm-2.35.86c-.05,0-.07,0-.07.08v.81c0,.05,0,.07.07.07h2.35c.05,0,.08,0,.08-.07v-.81a.07.07,0,0,0-.08-.08Zm4.85-2.71h2.84a.72.72,0,0,1,.72.72v8.24a1.07,1.07,0,0,1-.39.93,2.22,2.22,0,0,1-1.26.28.43.43,0,0,1-.33-.15.51.51,0,0,1-.13-.33.44.44,0,0,1,.13-.31.4.4,0,0,1,.33-.12h.31c.23,0,.36,0,.4-.08a.43.43,0,0,0,0-.23V198.5c0-.05,0-.07-.07-.07h-2.59a.72.72,0,0,1-.72-.72V194.6a.72.72,0,0,1,.72-.72Zm2.59,1.85c.05,0,.07,0,.07-.07v-.82a.06.06,0,0,0-.07-.07h-2.35a.06.06,0,0,0-.07.07v.82c0,.05,0,.07.07.07Zm-2.35.86c-.05,0-.07,0-.07.08v.81c0,.05,0,.07.07.07h2.35c.05,0,.07,0,.07-.07v-.81s0-.08-.07-.08Z"/><circle class="cls-3" cx="218.49" cy="213.27" r="5.21"/><path class="cls-5" d="M213.12,202.82c0,.05,0,.07.07.07h3.95a.46.46,0,0,1,.31.13.4.4,0,0,1,.13.31.39.39,0,0,1-.13.31.42.42,0,0,1-.31.13h-9.29a.43.43,0,0,1-.43-.44.43.43,0,0,1,.12-.31.46.46,0,0,1,.31-.13h1.33s.07,0,.07-.07V198.2a.48.48,0,0,1,.13-.32.44.44,0,0,1,.33-.13.42.42,0,0,1,.32.13.44.44,0,0,1,.13.32v4.62c0,.05,0,.07.08.07h1.89c.05,0,.07,0,.07-.07v-7.6c0-.05,0-.08-.07-.08h-3.87A.4.4,0,0,1,208,195a.46.46,0,0,1-.13-.31.44.44,0,0,1,.13-.31.4.4,0,0,1,.31-.13h8.47a.42.42,0,0,1,.31.13.4.4,0,0,1,.13.31.44.44,0,0,1-.44.44h-3.54c-.05,0-.07,0-.07.08v3c0,.05,0,.08.07.08h2.75a.44.44,0,0,1,0,.88h-2.75c-.05,0-.07,0-.07.08Z"/><path class="cls-5" d="M220.52,193.88h2.84a.7.7,0,0,1,.52.21.69.69,0,0,1,.2.51v3.11a.69.69,0,0,1-.2.51.7.7,0,0,1-.52.21h-2.59a.06.06,0,0,0-.07.07v5.14a.44.44,0,0,1-.44.44.44.44,0,0,1-.33-.13.42.42,0,0,1-.13-.31v-9a.72.72,0,0,1,.72-.72Zm2.6,1.85s.08,0,.08-.07v-.82a.07.07,0,0,0-.08-.07h-2.35a.06.06,0,0,0-.07.07v.82c0,.05,0,.07.07.07Zm-2.35.86c-.05,0-.07,0-.07.08v.81c0,.05,0,.07.07.07h2.35s.08,0,.08-.07v-.81a.07.07,0,0,0-.08-.08Zm4.85-2.71h2.84a.72.72,0,0,1,.72.72v8.24a1.07,1.07,0,0,1-.39.93,2.22,2.22,0,0,1-1.26.28.43.43,0,0,1-.33-.15.49.49,0,0,1-.13-.33.44.44,0,0,1,.13-.31.4.4,0,0,1,.33-.12h.31a.69.69,0,0,0,.4-.07.49.49,0,0,0,0-.24V198.5a.06.06,0,0,0-.07-.07h-2.59a.72.72,0,0,1-.72-.72V194.6a.72.72,0,0,1,.72-.72Zm2.59,1.85s.07,0,.07-.07v-.82a.06.06,0,0,0-.07-.07h-2.35a.06.06,0,0,0-.07.07v.82c0,.05,0,.07.07.07Zm-2.35.86c-.05,0-.07,0-.07.08v.81c0,.05,0,.07.07.07h2.35s.07,0,.07-.07v-.81s0-.08-.07-.08Z"/><path class="cls-5" d="M384.44,206.08a.57.57,0,0,1,.09.29.53.53,0,0,1-.2.42.43.43,0,0,1-.26.09.47.47,0,0,1-.38-.19,6.75,6.75,0,0,0-.9-1.06,8.71,8.71,0,0,0-1.1-.91,6.06,6.06,0,0,0-1.19-.65.12.12,0,0,0-.14,0,14.8,14.8,0,0,1-1.77,1.41,12.67,12.67,0,0,1-2.25,1.26.39.39,0,0,1-.18,0,.46.46,0,0,1-.3-.12.41.41,0,0,1-.13-.32.51.51,0,0,1,.32-.5,11.21,11.21,0,0,0,2.11-1.18,12.09,12.09,0,0,0,1.63-1.36,11.78,11.78,0,0,0,1.15-1.33,7.5,7.5,0,0,0,.68-1.07c.07-.15.13-.3.18-.44a1.24,1.24,0,0,0,.07-.39.48.48,0,0,0-.12-.33.6.6,0,0,0-.43-.12l-.34,0c-.27,0-.63.08-1.09.12l-1.49.1-1.58,0a.42.42,0,0,1-.31-.13.45.45,0,0,1-.12-.31.45.45,0,0,1,.13-.34.53.53,0,0,1,.33-.13h.54c.72,0,1.38,0,2-.07a13.28,13.28,0,0,0,1.45-.17l.25,0,.23,0a1.43,1.43,0,0,1,1.08.39,1.33,1.33,0,0,1,.37,1,3,3,0,0,1-.32,1.24,7.79,7.79,0,0,1-.51.88,9.88,9.88,0,0,1-.75,1,.08.08,0,0,0,0,.07.09.09,0,0,0,.06.08,7.5,7.5,0,0,1,1.22.74,9.41,9.41,0,0,1,1.11,1A7.27,7.27,0,0,1,384.44,206.08Z"/><path class="cls-5" d="M392.37,198.82a.1.1,0,0,0,0,.06c0,.05,0,.07.09.07h1a2.54,2.54,0,0,1,1.09.19,1.21,1.21,0,0,1,.57.52,1.43,1.43,0,0,1,.18.72,2.58,2.58,0,0,1-.1.66,3.12,3.12,0,0,1-.26.66,12.1,12.1,0,0,1-1.21,1.91,11.53,11.53,0,0,1-1.65,1.72,17.34,17.34,0,0,1-2.3,1.65.41.41,0,0,1-.23.07.43.43,0,0,1-.39-.23.41.41,0,0,1-.06-.23.43.43,0,0,1,.23-.38,13.16,13.16,0,0,0,1.75-1.22,14.81,14.81,0,0,0,1.4-1.3.12.12,0,0,0,0-.16,4.23,4.23,0,0,0-.7-.71,3.9,3.9,0,0,0-1-.58.4.4,0,0,1-.26-.4.55.55,0,0,1,0-.17.46.46,0,0,1,.46-.28.58.58,0,0,1,.19,0,4.33,4.33,0,0,1,1,.61,5.47,5.47,0,0,1,.81.77c.06.06.11.06.16,0,.18-.25.35-.51.51-.77s.29-.5.41-.74a2,2,0,0,0,.23-.78.61.61,0,0,0-.22-.51,1.08,1.08,0,0,0-.68-.19h-1.66a.19.19,0,0,0-.13.08,13.94,13.94,0,0,1-1.25,1.47,14.63,14.63,0,0,1-1.46,1.3.43.43,0,0,1-.26.09.44.44,0,0,1-.36-.19.43.43,0,0,1-.09-.26.45.45,0,0,1,.18-.37,12.48,12.48,0,0,0,1.7-1.57,13.31,13.31,0,0,0,1.16-1.5,13.64,13.64,0,0,0,.69-1.18.46.46,0,0,1,.41-.27.42.42,0,0,1,.33.14.43.43,0,0,1,.13.31.41.41,0,0,1,0,.19l-.19.38Z"/><path class="cls-5" d="M407.77,202.73h-7.49a.44.44,0,0,1-.33-.13.49.49,0,0,1-.13-.33A.48.48,0,0,1,400,202a.44.44,0,0,1,.33-.13h7.49a.44.44,0,0,1,.45.45.44.44,0,0,1-.13.33A.44.44,0,0,1,407.77,202.73Z"/><path class="cls-5" d="M412,205.33a.4.4,0,0,1-.3.11.43.43,0,0,1-.36-.18.5.5,0,0,1-.09-.29.46.46,0,0,1,.18-.38,7.49,7.49,0,0,0,1.33-1.41,7.1,7.1,0,0,0,.77-1.37c.19-.45.35-.88.48-1.28a.53.53,0,0,1,.17-.25.49.49,0,0,1,.28-.09.47.47,0,0,1,.35.15.48.48,0,0,1,.13.34.4.4,0,0,1,0,.13,10.84,10.84,0,0,1-.6,1.59,8.39,8.39,0,0,1-.91,1.49A9.48,9.48,0,0,1,412,205.33Zm8.21.17a.44.44,0,0,1-.44-.41,4.76,4.76,0,0,0-.48-1.45,7.33,7.33,0,0,0-.79-1.2c-.3-.36-.6-.69-.89-1a11.28,11.28,0,0,1-.77-.89.5.5,0,0,1-.1-.27.43.43,0,0,1,.22-.38.54.54,0,0,1,.26-.07.45.45,0,0,1,.41.2c.22.27.48.57.78.88s.6.67.91,1.06a7.2,7.2,0,0,1,.85,1.31,5.42,5.42,0,0,1,.53,1.65.47.47,0,0,1-.1.39A.48.48,0,0,1,420.16,205.5Zm-.74-5.6a.29.29,0,0,1-.17,0,.29.29,0,0,1-.26-.15c-.13-.19-.28-.4-.45-.62s-.34-.41-.5-.57a.28.28,0,0,1-.1-.22.29.29,0,0,1,.09-.21.4.4,0,0,1,.24-.09.26.26,0,0,1,.21.08,4.84,4.84,0,0,1,.55.62c.18.23.34.46.48.68a.21.21,0,0,1,.05.16A.32.32,0,0,1,419.42,199.9Zm.9-.52a.25.25,0,0,1-.16.05.3.3,0,0,1-.26-.14c-.13-.2-.28-.4-.45-.62a4.5,4.5,0,0,0-.48-.55.29.29,0,0,1-.09-.21.32.32,0,0,1,.08-.21.4.4,0,0,1,.24-.09.29.29,0,0,1,.22.08c.17.18.35.38.52.6s.33.44.47.66a.23.23,0,0,1,0,.17A.3.3,0,0,1,420.32,199.38Z"/><path class="cls-5" d="M426,203.39a.39.39,0,0,1-.2.05.33.33,0,0,1-.19-.06.28.28,0,0,1-.15-.15,9.3,9.3,0,0,1-.39-1,9.13,9.13,0,0,1-.3-1,.36.36,0,0,1,.09-.34.41.41,0,0,1,.72.19c.07.26.15.55.26.87s.22.6.33.86a.36.36,0,0,1,0,.09s0,.07,0,.1A.39.39,0,0,1,426,203.39Zm1.14,3.59a.43.43,0,0,1-.17,0,.39.39,0,0,1-.28-.12.4.4,0,0,1-.14-.32.45.45,0,0,1,.29-.43,5.27,5.27,0,0,0,1.61-1.1,5.65,5.65,0,0,0,1-1.46,7.9,7.9,0,0,0,.61-1.58,10,10,0,0,0,.28-1.48.39.39,0,0,1,.14-.26.37.37,0,0,1,.26-.1.43.43,0,0,1,.36.18.51.51,0,0,1,.11.37,8.94,8.94,0,0,1-1.35,3.95A6.24,6.24,0,0,1,427.18,207Zm.41-4.18a.35.35,0,0,1-.36-.24c-.1-.27-.2-.58-.29-.92a6.15,6.15,0,0,1-.21-1,.37.37,0,0,1,.09-.32.39.39,0,0,1,.31-.15.45.45,0,0,1,.27.1.34.34,0,0,1,.13.25,7.11,7.11,0,0,0,.2.89q.12.45.24.78a.39.39,0,0,1,0,.18.48.48,0,0,1-.11.29A.34.34,0,0,1,427.59,202.8Z"/><path class="cls-5" d="M440.27,199.09s0,0,0,.06,0,.08.1.08h1.56a1.62,1.62,0,0,1,1.25.4,1.41,1.41,0,0,1,.37,1,3,3,0,0,1-.3,1.25,9.39,9.39,0,0,1-2.1,3.05,11.62,11.62,0,0,1-2.83,2,.6.6,0,0,1-.2,0,.45.45,0,0,1-.43-.27.67.67,0,0,1,0-.18.49.49,0,0,1,.28-.46,9.85,9.85,0,0,0,2.18-1.39,8.55,8.55,0,0,0,1.42-1.58,8.87,8.87,0,0,0,.84-1.55,2.39,2.39,0,0,0,.22-.86c0-.33-.23-.5-.7-.5h-2.12a.16.16,0,0,0-.13.07,17.11,17.11,0,0,1-1.14,1.64,10.56,10.56,0,0,1-1.23,1.31.37.37,0,0,1-.28.11.48.48,0,0,1-.39-.18.5.5,0,0,1-.09-.29.48.48,0,0,1,.16-.38,8,8,0,0,0,1-1.07,12.56,12.56,0,0,0,.92-1.25c.28-.43.53-.85.75-1.27a9.17,9.17,0,0,0,.52-1.14.39.39,0,0,1,.17-.21.4.4,0,0,1,.25-.09.38.38,0,0,1,.17,0,.47.47,0,0,1,.31.45.39.39,0,0,1,0,.18c-.06.16-.13.33-.21.5S440.36,198.92,440.27,199.09Z"/><path class="cls-5" d="M456.44,206.08a.57.57,0,0,1,.09.29.53.53,0,0,1-.2.42.43.43,0,0,1-.26.09.47.47,0,0,1-.38-.19,6.75,6.75,0,0,0-.9-1.06,8.71,8.71,0,0,0-1.1-.91,6.06,6.06,0,0,0-1.19-.65.12.12,0,0,0-.14,0,14.8,14.8,0,0,1-1.77,1.41,12.67,12.67,0,0,1-2.25,1.26.39.39,0,0,1-.18,0,.46.46,0,0,1-.3-.12.41.41,0,0,1-.13-.32.51.51,0,0,1,.32-.5,11.21,11.21,0,0,0,2.11-1.18,12.09,12.09,0,0,0,1.63-1.36,11.78,11.78,0,0,0,1.15-1.33,7.5,7.5,0,0,0,.68-1.07c.07-.15.13-.3.18-.44a1.24,1.24,0,0,0,.07-.39.48.48,0,0,0-.12-.33.6.6,0,0,0-.43-.12l-.34,0c-.27,0-.63.08-1.09.12l-1.49.1-1.58,0a.42.42,0,0,1-.31-.13.45.45,0,0,1-.12-.31.45.45,0,0,1,.13-.34.53.53,0,0,1,.33-.13h.54c.72,0,1.38,0,2-.07a13.28,13.28,0,0,0,1.45-.17l.25,0,.23,0a1.43,1.43,0,0,1,1.08.39,1.33,1.33,0,0,1,.37,1,3,3,0,0,1-.32,1.24,7.79,7.79,0,0,1-.51.88,9.88,9.88,0,0,1-.75,1,.08.08,0,0,0,0,.07.09.09,0,0,0,.06.08,7.5,7.5,0,0,1,1.22.74,9.41,9.41,0,0,1,1.11,1A7.27,7.27,0,0,1,456.44,206.08Z"/><path class="cls-5" d="M476.3,276.55a.47.47,0,0,1,.24.42.42.42,0,0,1-.13.33.41.41,0,0,1-.3.13.48.48,0,0,1-.21-.06,8.69,8.69,0,0,1-.95-.68,12.38,12.38,0,0,1-1.06-.93c-.36-.34-.71-.7-1-1.08a11.2,11.2,0,0,1-.9-1.14s0,0-.06,0,0,0,0,.06v3s0,.07.08.07h1.78a.48.48,0,0,1,.32.13.44.44,0,0,1,.13.31.42.42,0,0,1-.13.31.44.44,0,0,1-.32.13h-1.78c-.05,0-.08,0-.08.07V279a.47.47,0,0,1-.12.32.46.46,0,0,1-.64,0A.47.47,0,0,1,471,279v-1.4c0-.05,0-.07-.08-.07h-1.78a.4.4,0,0,1-.31-.13.42.42,0,0,1-.13-.31.44.44,0,0,1,.44-.44h1.78c.05,0,.08,0,.08-.07v-2.89a.06.06,0,0,0,0-.06s0,0-.06,0a13.79,13.79,0,0,1-1.2,1.46c-.46.48-.93.93-1.4,1.34a8.79,8.79,0,0,1-1.32,1,.49.49,0,0,1-.22.06.45.45,0,0,1-.41-.26.46.46,0,0,1,0-.21.53.53,0,0,1,.25-.44,10.23,10.23,0,0,0,1.12-.81c.4-.33.8-.7,1.2-1.1a13.22,13.22,0,0,0,1.08-1.21,7.09,7.09,0,0,0,.76-1.15c0-.06,0-.08-.06-.08H467a.46.46,0,0,1-.31-.13.41.41,0,0,1-.13-.32.38.38,0,0,1,.13-.3.42.42,0,0,1,.31-.13h3.86a.07.07,0,0,0,.08-.07v-1.7a.47.47,0,0,1,.12-.32.46.46,0,0,1,.64,0,.47.47,0,0,1,.12.32v1.7a.07.07,0,0,0,.08.07h3.86a.42.42,0,0,1,.31.13.41.41,0,0,1,.12.3.44.44,0,0,1-.12.32.46.46,0,0,1-.31.13h-3.55c-.06,0-.07,0-.05.08a7.36,7.36,0,0,0,.79,1.18,14.8,14.8,0,0,0,1.06,1.21c.39.4.78.76,1.17,1.09A9.44,9.44,0,0,0,476.3,276.55Z"/><path class="cls-5" d="M481.15,273.9a.44.44,0,0,1,.34.16.43.43,0,0,1,.11.37,7.88,7.88,0,0,1-.59,1.84,8.09,8.09,0,0,1-1,1.64,5.34,5.34,0,0,1-1.23,1.2.39.39,0,0,1-.55-.18.46.46,0,0,1-.05-.21.54.54,0,0,1,.23-.46,5.5,5.5,0,0,0,1-1,7,7,0,0,0,.69-1.08c0-.07,0-.1-.07-.07l-.66.13-.72.12a.44.44,0,0,1-.31-.11.44.44,0,0,1-.16-.29.86.86,0,0,1,.24-.73,8,8,0,0,0,.53-.66c.18-.25.35-.51.53-.79a.12.12,0,0,0,0-.1,3.84,3.84,0,0,0-.41-.56,5.17,5.17,0,0,0-.46-.47.73.73,0,0,1-.24-.57.82.82,0,0,1,.12-.43,5.61,5.61,0,0,0,.47-1,7.34,7.34,0,0,0,.32-1.2.41.41,0,0,1,.13-.24.35.35,0,0,1,.25-.1.44.44,0,0,1,.37.17.46.46,0,0,1,.11.37c0,.24-.1.5-.18.8a6.55,6.55,0,0,1-.29.85,3.55,3.55,0,0,1-.37.73.11.11,0,0,0,0,.05s.07.11.21.24a3.18,3.18,0,0,1,.4.47c0,.05.07.05.1,0a6.22,6.22,0,0,0,.29-.71,4.89,4.89,0,0,0,.21-.72.39.39,0,0,1,.15-.23.4.4,0,0,1,.25-.09H481a.53.53,0,0,1,.25.17.44.44,0,0,1,.09.27.31.31,0,0,1,0,.11,7.76,7.76,0,0,1-.44,1.31,14.52,14.52,0,0,1-.65,1.31,6.81,6.81,0,0,1-.66,1s0,.05,0,.06,0,0,.06,0l.44-.13.43-.14a.13.13,0,0,0,.06-.07,2.93,2.93,0,0,0,.1-.37c0-.12.06-.24.08-.36a.53.53,0,0,1,.15-.25A.39.39,0,0,1,481.15,273.9Zm2.91,1.11c.19.37.39.79.6,1.24s.38.89.54,1.3a.57.57,0,0,1,0,.16.45.45,0,0,1-.29.44.28.28,0,0,1-.15,0,.46.46,0,0,1-.24-.08.45.45,0,0,1-.16-.2,4.08,4.08,0,0,0-.22-.54q0-.08-.09,0c-.25.14-.52.27-.81.4s-.56.22-.81.3l-.09,0h-.08a.57.57,0,0,1-.53-.56v-7.37a.72.72,0,0,1,.72-.72h1.72a.72.72,0,0,1,.72.72v3.69a.72.72,0,0,1-.72.72h-1.5c-.05,0-.07,0-.07.07V277c0,.06,0,.08.08,0h0a5,5,0,0,0,1-.5.09.09,0,0,0,0-.1l-.27-.54c-.09-.18-.17-.35-.26-.5a.49.49,0,0,1-.06-.2.4.4,0,0,1,.25-.39.42.42,0,0,1,.2-.05.48.48,0,0,1,.26.07A.44.44,0,0,1,484.06,275Zm-.09-3.45s.07,0,.07-.07v-1.15s0-.07-.07-.07h-1.28c-.05,0-.07,0-.07.07v1.15c0,.05,0,.07.07.07Zm-1.28.84a.06.06,0,0,0-.07.07v1.17c0,.05,0,.07.07.07H484s.07,0,.07-.07v-1.17a.06.06,0,0,0-.07-.07Zm4.73.46s0,.06,0,.1a4.64,4.64,0,0,1,1.21,2.81,2.43,2.43,0,0,1-.19,1.05,1.66,1.66,0,0,1-.48.64,1.55,1.55,0,0,1-.62.3,1.92,1.92,0,0,1-.62.05.32.32,0,0,1-.26-.13.45.45,0,0,1-.1-.29.37.37,0,0,1,.17-.33.65.65,0,0,1,.36-.1.83.83,0,0,0,.62-.25,1.29,1.29,0,0,0,.28-.94,3.84,3.84,0,0,0-1-2.23.83.83,0,0,1-.18-.3,1.41,1.41,0,0,1-.05-.35,1,1,0,0,1,.13-.51,10.19,10.19,0,0,0,.43-.95,7.67,7.67,0,0,0,.3-1.08c0-.05,0-.08-.07-.08h-1.12a.06.06,0,0,0-.07.07V279a.4.4,0,0,1-.12.29.42.42,0,0,1-.31.13.45.45,0,0,1-.42-.42v-8.82a.72.72,0,0,1,.72-.72h1.69a.61.61,0,0,1,.47.21.54.54,0,0,1,.13.5,9.46,9.46,0,0,1-.42,1.52A9,9,0,0,1,487.42,272.86Z"/><path class="cls-5" d="M500.29,278.45a.42.42,0,0,1,.25.18.45.45,0,0,1,.09.28.42.42,0,0,1-.15.32.44.44,0,0,1-.32.13H500a13.19,13.19,0,0,1-4.57-2.43.06.06,0,0,0-.1,0,14.38,14.38,0,0,1-2.11,1.42,11.89,11.89,0,0,1-2.45,1h-.12a.42.42,0,0,1-.32-.13.42.42,0,0,1-.13-.33.47.47,0,0,1,.1-.3.52.52,0,0,1,.26-.17,11.88,11.88,0,0,0,4.09-2.13s0-.07,0-.1a8.42,8.42,0,0,1-1.51-2,.35.35,0,0,1-.05-.2.42.42,0,0,1,.25-.41.46.46,0,0,1,.62.2,7.76,7.76,0,0,0,1.35,1.81q0,.07.09,0a8.34,8.34,0,0,0,.77-.92,7.25,7.25,0,0,0,.6-1,.37.37,0,0,1,.37-.25.48.48,0,0,1,.22.06.51.51,0,0,1,.25.46.43.43,0,0,1,0,.23,6.07,6.07,0,0,1-.63,1,8.54,8.54,0,0,1-.84,1,.08.08,0,0,0,0,.11,11.84,11.84,0,0,0,1.93,1.25A13.68,13.68,0,0,0,500.29,278.45Zm-.25-7.32H490.8a.42.42,0,0,1-.32-.13.45.45,0,0,1-.12-.31.48.48,0,0,1,.12-.33.42.42,0,0,1,.32-.13h4.09c.05,0,.07,0,.07-.07v-.76a.43.43,0,0,1,.14-.32.46.46,0,0,1,.64,0,.43.43,0,0,1,.14.32v.76s0,.07.07.07H500a.41.41,0,0,1,.32.13.45.45,0,0,1,.14.33.43.43,0,0,1-.14.31A.41.41,0,0,1,500,271.13Zm-6.22.38a.43.43,0,0,1,.35-.16.4.4,0,0,1,.24.07.41.41,0,0,1,.21.35.37.37,0,0,1-.08.21,7.37,7.37,0,0,1-.9,1.06,9.89,9.89,0,0,1-1.21,1,8.3,8.3,0,0,1-1.28.75.29.29,0,0,1-.16,0,.41.41,0,0,1-.29-.13.44.44,0,0,1-.13-.31.45.45,0,0,1,.28-.44,9.59,9.59,0,0,0,1.5-1A9.29,9.29,0,0,0,493.82,271.51Zm3.21,0a8.76,8.76,0,0,0,1.42,1.37,7.51,7.51,0,0,0,1.55,1,.44.44,0,0,1,.29.44.48.48,0,0,1-.12.33.4.4,0,0,1-.47.09,7.9,7.9,0,0,1-1.23-.7,10.27,10.27,0,0,1-1.23-1,9.15,9.15,0,0,1-1-1,.36.36,0,0,1-.08-.24.42.42,0,0,1,.2-.36.4.4,0,0,1,.24-.07A.5.5,0,0,1,497,271.49Z"/><path class="cls-5" d="M512.2,274.32a.49.49,0,0,1,.38.47.41.41,0,0,1-.13.32.38.38,0,0,1-.29.14l-.12,0c-.26-.07-.56-.16-.91-.28s-.71-.25-1.09-.41-.75-.34-1.11-.52a8.75,8.75,0,0,1-1-.59c-.06,0-.09,0-.09.05v.89a.42.42,0,0,1-.13.32.46.46,0,0,1-.62,0,.42.42,0,0,1-.13-.32v-.84c0-.06,0-.08-.09,0a6.75,6.75,0,0,1-1.4.84,12,12,0,0,1-1.48.57c-.48.15-.88.26-1.21.33h-.11a.41.41,0,0,1-.3-.13.42.42,0,0,1-.13-.32.44.44,0,0,1,.11-.29.46.46,0,0,1,.26-.15,11.43,11.43,0,0,0,1.8-.56,10.13,10.13,0,0,0,1.43-.69s.05,0,0-.06,0,0-.06,0h-2.93a.41.41,0,0,1-.42-.42.43.43,0,0,1,.42-.43h2.25c.08,0,.09,0,0-.08a3.09,3.09,0,0,0-.26-.37c-.09-.11-.18-.23-.28-.33a.45.45,0,0,1-.11-.28.34.34,0,0,1,.18-.31.55.55,0,0,1,.28-.07.56.56,0,0,1,.46.23c.13.17.26.37.39.57s.25.41.35.59,0,0,.08,0h.6c.05,0,.08,0,.08-.07v-1.5c0-.05,0-.07-.08-.07l-1.56.1c-.52,0-1,0-1.57,0a.37.37,0,0,1-.29-.13.43.43,0,0,1-.14-.3.44.44,0,0,1,.12-.3.38.38,0,0,1,.3-.13c1.34,0,2.63-.11,3.89-.23a30.65,30.65,0,0,0,3.38-.47.44.44,0,0,1,.35.09.42.42,0,0,1,.16.33.53.53,0,0,1-.1.29.43.43,0,0,1-.26.17c-.45.08-.95.16-1.5.23s-1.13.15-1.74.21c-.05,0-.08,0-.08.08v1.59c0,.05,0,.07.08.07h.44a.09.09,0,0,0,.08,0,4.9,4.9,0,0,0,.75-.76,4.62,4.62,0,0,0,.5-.75.49.49,0,0,1,.42-.26.39.39,0,0,1,.31.13.44.44,0,0,1,.12.3.28.28,0,0,1,0,.09l0,.09c-.11.2-.23.39-.36.58s-.27.37-.41.54-.05.08,0,.08h2.15a.43.43,0,0,1,.42.43.41.41,0,0,1-.42.42h-2.75a.06.06,0,0,0-.06,0,.07.07,0,0,0,0,.06c.29.16.62.32,1,.48s.71.3,1.06.44A10.31,10.31,0,0,0,512.2,274.32Zm-7.6.67h5.64a.73.73,0,0,1,.72.73v2.89a.72.72,0,0,1-.72.72H504.6a.72.72,0,0,1-.72-.72v-2.89a.73.73,0,0,1,.72-.73Zm2.3,1.73c.05,0,.08,0,.08-.07v-.76a.07.07,0,0,0-.08-.07h-2a.07.07,0,0,0-.07.07v.76a.06.06,0,0,0,.07.07Zm.08.89c0-.05,0-.07-.08-.07h-2a.06.06,0,0,0-.07.07v.82a.07.07,0,0,0,.07.07h2a.07.07,0,0,0,.08-.07Zm.86-1c0,.05,0,.07.07.07H510a.06.06,0,0,0,.07-.07v-.76a.07.07,0,0,0-.07-.07h-2.07a.06.06,0,0,0-.07.07Zm.07.89c-.05,0-.07,0-.07.07v.82a.06.06,0,0,0,.07.07H510a.07.07,0,0,0,.07-.07v-.82a.06.06,0,0,0-.07-.07Z"/><path class="cls-5" d="M576.22,191.67a.35.35,0,0,1-.17,0,.44.44,0,0,1-.44-.3.39.39,0,0,1,0-.18.46.46,0,0,1,.3-.44,9.44,9.44,0,0,0,3.08-2,6.8,6.8,0,0,0,1.67-2.9q.07-.24.12-.45a1.73,1.73,0,0,0,0-.37.65.65,0,0,0-.22-.54,1.45,1.45,0,0,0-.73-.24l-.53,0-.56,0a14.47,14.47,0,0,0-1.92.14c-.67.08-1.37.21-2.09.37a.47.47,0,0,1-.36-.09.42.42,0,0,1-.17-.33.58.58,0,0,1,.11-.35.48.48,0,0,1,.3-.19c.41-.09.86-.17,1.35-.23s1-.11,1.48-.15,1-.05,1.42-.05h.6l.53,0a2.37,2.37,0,0,1,1.07.33,1.47,1.47,0,0,1,.52.6,1.83,1.83,0,0,1,.15.73,2.67,2.67,0,0,1-.06.56c0,.19-.09.36-.13.52a8.07,8.07,0,0,1-1.89,3.27A10.28,10.28,0,0,1,576.22,191.67Z"/><path class="cls-5" d="M592.67,185.11a.86.86,0,0,1,.57.31.88.88,0,0,1,.22.61,1.18,1.18,0,0,1-.13.53,1.54,1.54,0,0,1-.44.54,5.56,5.56,0,0,1-.61.43c-.26.16-.53.32-.82.47s-.56.28-.82.39a.14.14,0,0,0-.09.12,4.35,4.35,0,0,1-.58,1.66,4.61,4.61,0,0,1-1.59,1.49.33.33,0,0,1-.21.06.39.39,0,0,1-.36-.21.42.42,0,0,1,0-.2.44.44,0,0,1,.22-.38,3.7,3.7,0,0,0,1.13-1,3,3,0,0,0,.51-1.07,4,4,0,0,0,.14-1,4.66,4.66,0,0,0,0-.58.5.5,0,0,1,.1-.33.4.4,0,0,1,.32-.14.41.41,0,0,1,.26.09.42.42,0,0,1,.14.24l0,.22c0,.08.06.11.13.08.23-.11.5-.25.79-.42a7.57,7.57,0,0,0,.84-.55,1,1,0,0,0,.21-.2.39.39,0,0,0,.12-.24.15.15,0,0,0-.07-.12.5.5,0,0,0-.28,0c-.62,0-1.16,0-1.61.08l-1.19.11-1,.09c-.32,0-.67,0-1,0h-.56a.42.42,0,0,1-.26-.12.33.33,0,0,1-.11-.26.41.41,0,0,1,.45-.43q.42,0,.84,0c.56,0,1.12,0,1.66-.08l1.53-.17a10,10,0,0,1,1.25-.08h.22Z"/><path class="cls-5" d="M604.38,191.84a10.79,10.79,0,0,0-2.46-1.05,12.15,12.15,0,0,0-2.8-.47.46.46,0,0,1-.32-.15.4.4,0,0,1-.13-.31.53.53,0,0,1,.16-.38.44.44,0,0,1,.39-.13,12.21,12.21,0,0,1,2,.26,13,13,0,0,1,1.9.56,11.84,11.84,0,0,1,1.68.77.52.52,0,0,1,.28.48.49.49,0,0,1-.14.36.47.47,0,0,1-.31.12A.53.53,0,0,1,604.38,191.84Zm-.19-7.26q-.69,0-1.53-.15t-1.65-.3c-.54-.11-1-.24-1.44-.36a.57.57,0,0,1-.24-.19.5.5,0,0,1-.08-.27.4.4,0,0,1,.15-.33.5.5,0,0,1,.32-.13h.06l.07,0a14.19,14.19,0,0,0,1.41.37c.52.11,1,.2,1.58.27s1,.11,1.45.14a.42.42,0,0,1,.29.14.4.4,0,0,1,.12.29.47.47,0,0,1-.15.35A.45.45,0,0,1,604.19,184.58Zm-.47,3.49a10.35,10.35,0,0,0-1.87-.65,12.87,12.87,0,0,0-1.89-.32.43.43,0,0,1-.3-.14.44.44,0,0,1-.12-.3.47.47,0,0,1,.15-.35.4.4,0,0,1,.35-.12c.45,0,.91.11,1.39.2s.94.22,1.39.35a8.77,8.77,0,0,1,1.23.47.47.47,0,0,1,.27.46.45.45,0,0,1-.12.33.46.46,0,0,1-.3.11A.45.45,0,0,1,603.72,188.07Z"/><path class="cls-5" d="M612.9,188.55a.41.41,0,0,1-.31.11.43.43,0,0,1-.36-.18,3.79,3.79,0,0,1-.53-1.15,7.33,7.33,0,0,1-.26-1.35,13.07,13.07,0,0,1-.07-1.39c0-.42,0-.82,0-1.18a.5.5,0,0,1,.15-.32.46.46,0,0,1,.32-.13.43.43,0,0,1,.34.15.42.42,0,0,1,.11.34c0,.2,0,.41-.05.62s0,.43,0,.66a9.37,9.37,0,0,0,.15,1.65,4,4,0,0,0,.58,1.5.61.61,0,0,1,.08.3A.41.41,0,0,1,612.9,188.55Zm0,3.41a.33.33,0,0,1-.17,0,.48.48,0,0,1-.31-.13.43.43,0,0,1-.15-.34.49.49,0,0,1,.31-.48,5.75,5.75,0,0,0,1.92-1.34,4.21,4.21,0,0,0,.93-1.67,6.75,6.75,0,0,0,.26-1.92,12.76,12.76,0,0,0-.1-1.61c-.07-.55-.14-1.11-.22-1.68a.41.41,0,0,1,.11-.35.42.42,0,0,1,.32-.14.53.53,0,0,1,.3.09.4.4,0,0,1,.17.26,13.38,13.38,0,0,1,.24,1.44,13.16,13.16,0,0,1,.12,1.8,9.9,9.9,0,0,1-.1,1.45,5.1,5.1,0,0,1-.32,1.28,5.78,5.78,0,0,1-1.33,2A5.88,5.88,0,0,1,612.86,192Z"/><path class="cls-5" d="M629.68,187.63h-7.49a.42.42,0,0,1-.32-.13.44.44,0,0,1-.13-.33.44.44,0,0,1,.13-.32.42.42,0,0,1,.32-.13h7.49a.41.41,0,0,1,.32.13.45.45,0,0,1,.14.32.45.45,0,0,1-.14.33A.41.41,0,0,1,629.68,187.63Z"/><path class="cls-5" d="M580.79,198.3a2.27,2.27,0,0,1,1.33.3.88.88,0,0,1,.41.75,1.73,1.73,0,0,1-.32.94,4.38,4.38,0,0,1-.85,1c-.49.41-1,.77-1.4,1.08l-1.12.73q-.11.06,0,.15c.22.25.42.51.61.77s.36.53.51.78a.5.5,0,0,1,.07.27.64.64,0,0,1,0,.23.44.44,0,0,1-.17.19.56.56,0,0,1-.25.08.45.45,0,0,1-.39-.22c-.28-.44-.54-.82-.77-1.14a7.52,7.52,0,0,0-.66-.83,4.32,4.32,0,0,0-.67-.62,7,7,0,0,0-.83-.53.41.41,0,0,1-.25-.4.49.49,0,0,1,.06-.22.51.51,0,0,1,.45-.27.55.55,0,0,1,.23.07,5.72,5.72,0,0,1,1.33,1,.16.16,0,0,0,.16,0c.34-.19.73-.42,1.16-.7a11.3,11.3,0,0,0,1.38-1.14,6.21,6.21,0,0,0,.6-.64.81.81,0,0,0,.18-.41.27.27,0,0,0-.22-.26,2.4,2.4,0,0,0-.62-.07,21.5,21.5,0,0,0-2.21.1l-1.91.19a15.12,15.12,0,0,1-1.76.11h-.48l-.5,0a.49.49,0,0,1-.3-.16.47.47,0,0,1-.12-.32.43.43,0,0,1,.16-.35.46.46,0,0,1,.37-.12l.52,0,.53,0c.6,0,1.21,0,1.83-.08l1.92-.17C579.38,198.33,580.07,198.3,580.79,198.3Z"/><path class="cls-5" d="M593.68,201.63h-7.49a.42.42,0,0,1-.32-.13.44.44,0,0,1-.13-.33.44.44,0,0,1,.13-.32.42.42,0,0,1,.32-.13h7.49a.41.41,0,0,1,.32.13.45.45,0,0,1,.14.32.45.45,0,0,1-.14.33A.41.41,0,0,1,593.68,201.63Z"/><path class="cls-5" d="M605.55,202.19a.52.52,0,0,1,.14.35.55.55,0,0,1-.13.36.42.42,0,0,1-.31.13.41.41,0,0,1-.3-.13,7.53,7.53,0,0,0-1.52-1.26,5.09,5.09,0,0,0-1.79-.65h0c-.06,0-.09,0-.09.1v4.26a.45.45,0,0,1-.14.33.48.48,0,0,1-.34.14.45.45,0,0,1-.33-.14.42.42,0,0,1-.14-.33v-8.14a.44.44,0,0,1,.14-.34.45.45,0,0,1,.33-.14.48.48,0,0,1,.48.48V200a.12.12,0,0,0,.1.12,5.16,5.16,0,0,1,1.49.41,7.58,7.58,0,0,1,1.34.75A8,8,0,0,1,605.55,202.19Z"/><line class="cls-6" x1="251.39" y1="425.05" x2="251.39" y2="423.55"/><line class="cls-7" x1="251.39" y1="420.53" x2="251.39" y2="349.69"/><polyline class="cls-6" points="251.39 348.18 251.39 346.68 251.39 346.85 250.33 345.79"/><line class="cls-8" x1="248.19" y1="343.65" x2="142.13" y2="237.59"/><polyline class="cls-6" points="141.06 236.52 140.06 235.53 140.06 235.43 138.56 235.43"/><line class="cls-9" x1="135.42" y1="235.43" x2="93.04" y2="235.43"/><line class="cls-6" x1="91.47" y1="235.43" x2="89.97" y2="235.43"/><line class="cls-10" x1="544" y1="426.22" x2="544" y2="20.14"/><line class="cls-10" x1="544.44" y1="395.71" x2="705.12" y2="235.04"/><line class="cls-10" x1="705.12" y1="235.04" x2="729.87" y2="235.04"/><path class="cls-3" d="M32.57,239.12a.46.46,0,0,1,.28.19.55.55,0,0,1,.1.32.48.48,0,0,1-.14.37.47.47,0,0,1-.35.15h-.07l-.07,0a8.44,8.44,0,0,1-1.38-.57,12.58,12.58,0,0,1-1.41-.82,13.1,13.1,0,0,1-1.23-.9c-.06,0-.09,0-.09,0V240a.47.47,0,0,1-.15.35.51.51,0,0,1-.72,0,.44.44,0,0,1-.16-.35v-2c0-.07,0-.09-.08,0a8.5,8.5,0,0,1-1,.74,12.21,12.21,0,0,1-1.1.65c-.38.2-.73.37-1.07.51s-.63.26-.89.34h-.13a.45.45,0,0,1-.33-.14.48.48,0,0,1-.14-.35.51.51,0,0,1,.11-.31.46.46,0,0,1,.27-.2A12.31,12.31,0,0,0,25.26,238a11,11,0,0,0,1-.72s0,0,0-.06,0,0-.06,0h-1.6a.73.73,0,0,1-.56-.23.76.76,0,0,1-.24-.56V233.5a.76.76,0,0,1,.24-.56.77.77,0,0,1,.56-.23h2.48a.06.06,0,0,0,.07-.07v-.57s0-.07-.07-.07h-4a.5.5,0,0,1-.35-.14.49.49,0,0,1-.15-.36.48.48,0,0,1,.14-.36.49.49,0,0,1,.36-.15h4c.05,0,.07,0,.07-.07v-.44a.49.49,0,0,1,.15-.36.47.47,0,0,1,.37-.16.53.53,0,0,1,.36.15.5.5,0,0,1,.15.37v.44c0,.05,0,.07.08.07h4a.49.49,0,0,1,.35.15.51.51,0,0,1,0,.72.52.52,0,0,1-.35.14h-4c-.05,0-.08,0-.08.07v.57a.07.07,0,0,0,.08.07h2.5a.77.77,0,0,1,.56.23.76.76,0,0,1,.24.56v2.89a.76.76,0,0,1-.24.56.73.73,0,0,1-.56.23h-1.5a.06.06,0,0,0-.06,0s0,0,0,.06a13.28,13.28,0,0,0,1.54,1A9.71,9.71,0,0,0,32.57,239.12Zm-5.46-4.67a.06.06,0,0,0,.07-.07v-.57c0-.05,0-.07-.07-.07H25c-.05,0-.07,0-.07.07v.57a.06.06,0,0,0,.07.07Zm.07,1.07c0-.05,0-.08-.07-.08H25c-.05,0-.07,0-.07.08v.57s0,.07.07.07h2.16c.05,0,.07,0,.07-.07Zm3.29-1.07a.06.06,0,0,0,.07-.07v-.57c0-.05,0-.07-.07-.07H28.29c-.05,0-.08,0-.08.07v.57a.07.07,0,0,0,.08.07Zm-2.18,1a.07.07,0,0,0-.08.08v.57s0,.07.08.07h2.18c.05,0,.07,0,.07-.07v-.57c0-.05,0-.08-.07-.08Z"/><path class="cls-3" d="M44.56,239.43a.5.5,0,0,1,.3.49.46.46,0,0,1-.16.38.52.52,0,0,1-.35.14.42.42,0,0,1-.2-.05,6.51,6.51,0,0,1-1.3-.84,9.49,9.49,0,0,1-1.22-1.16,14.71,14.71,0,0,1-1.06-1.33,11,11,0,0,1-.81-1.35s0,0,0,0,0,0-.06.05a9.25,9.25,0,0,1-1.14,1.88A11.35,11.35,0,0,1,37,239.22a8.85,8.85,0,0,1-1.74,1.17.51.51,0,0,1-.22.05.57.57,0,0,1-.28-.08.42.42,0,0,1-.19-.24.46.46,0,0,1,0-.2.52.52,0,0,1,.3-.49,8.56,8.56,0,0,0,1.48-1,9.39,9.39,0,0,0,1.28-1.32,9.72,9.72,0,0,0,1-1.48,6,6,0,0,0,.56-1.48v0s0-.06-.08-.06H35.22a.51.51,0,0,1-.37-.15.5.5,0,0,1-.16-.36.51.51,0,0,1,.16-.37.51.51,0,0,1,.37-.15H39.1s.07,0,.07-.07v-2.41a.5.5,0,0,1,.16-.37.47.47,0,0,1,.37-.16.53.53,0,0,1,.37.17.5.5,0,0,1,.16.36V233s0,.07.07.07h3.87a.54.54,0,0,1,.38.15.5.5,0,0,1,.15.37.49.49,0,0,1-.15.36.54.54,0,0,1-.38.15H40.33s-.07,0,0,.12a6.48,6.48,0,0,0,.75,1.69,10.05,10.05,0,0,0,1.11,1.52,11.08,11.08,0,0,0,1.25,1.23A6.69,6.69,0,0,0,44.56,239.43Z"/><path class="cls-3" d="M53.71,231.52a.06.06,0,0,0,0,.06s0,0,0,0h2.55a.53.53,0,0,1,.36.15.51.51,0,0,1,.15.37.49.49,0,0,1-.15.36.5.5,0,0,1-.36.16H47.09a.49.49,0,0,1-.36-.15.52.52,0,0,1-.16-.37.49.49,0,0,1,.15-.36.52.52,0,0,1,.37-.16h2.47s0,0,.06,0,0,0,0-.05a.38.38,0,0,1-.11-.11l-.27-.38a3.93,3.93,0,0,0-.31-.38.48.48,0,0,1-.11-.3A.46.46,0,0,1,49,230a.66.66,0,0,1,.36-.11.53.53,0,0,1,.42.2,5.57,5.57,0,0,1,.54.8.43.43,0,0,1,.06.24.55.55,0,0,1-.24.46.12.12,0,0,0,.09,0h2a.11.11,0,0,0,.08,0,3.41,3.41,0,0,0,.9-1.33.49.49,0,0,1,.22-.27.56.56,0,0,1,.31-.11.47.47,0,0,1,.38.17.54.54,0,0,1,.14.36v.08a.13.13,0,0,1,0,.08A4.86,4.86,0,0,1,53.71,231.52Zm-5.56,1.85h2.47a.79.79,0,0,1,.79.79v5.24c0,.71-.49,1.06-1.46,1.06a.46.46,0,0,1-.36-.16.5.5,0,0,1-.15-.37.54.54,0,0,1,.16-.35.48.48,0,0,1,.35-.14c.29,0,.44,0,.44-.08v-1.31c0-.05,0-.07-.07-.07H48.45c-.05,0-.08,0-.08.07V240a.49.49,0,0,1-.15.36.5.5,0,0,1-.36.16.49.49,0,0,1-.36-.15.51.51,0,0,1-.15-.37v-5.82a.79.79,0,0,1,.23-.56A.78.78,0,0,1,48.15,233.37Zm2.17,1.8a.06.06,0,0,0,.07-.07v-.65s0-.07-.07-.07H48.45c-.05,0-.08,0-.08.07v.65a.07.07,0,0,0,.08.07Zm-1.87,1c-.05,0-.08,0-.08.07v.63a.07.07,0,0,0,.08.08h1.87s.07,0,.07-.08v-.63c0-.05,0-.07-.07-.07Zm4.9-2v4.14a.5.5,0,0,1-.15.37.53.53,0,0,1-.36.15.47.47,0,0,1-.37-.16.49.49,0,0,1-.15-.36v-4.14a.53.53,0,0,1,.15-.36.5.5,0,0,1,.37-.15.53.53,0,0,1,.36.15A.49.49,0,0,1,53.35,234.18Zm2-1.21a.5.5,0,0,1,.37.16.51.51,0,0,1,.15.37v5.76c0,.8-.51,1.2-1.54,1.2h-.51a.53.53,0,0,1-.34-.19.57.57,0,0,1-.14-.37.51.51,0,0,1,.17-.39.47.47,0,0,1,.4-.12l.33,0,.25,0a.56.56,0,0,0,.27,0,.11.11,0,0,0,.07-.11V233.5a.51.51,0,0,1,.15-.37A.47.47,0,0,1,55.35,233Z"/><path class="cls-3" d="M60.76,238.74a.39.39,0,0,1-.1.31.42.42,0,0,1-.3.14.29.29,0,0,1-.21-.09.35.35,0,0,1-.1-.21c0-.21,0-.41,0-.6a4.68,4.68,0,0,0-.09-.54s0-.05-.05,0a.05.05,0,0,0,0,0c0,.25-.07.51-.13.79s-.12.56-.19.83a.55.55,0,0,1-.51.37.4.4,0,0,1-.31-.13.44.44,0,0,1-.12-.3v-.06a.35.35,0,0,1,0-.06,9.18,9.18,0,0,0,.23-1c.07-.35.11-.66.15-.95a.42.42,0,0,1,.14-.28.41.41,0,0,1,.28-.11.45.45,0,0,1,.39.2.45.45,0,0,0,0-.08.29.29,0,0,1,.07-.28.4.4,0,0,1,.29-.11.36.36,0,0,1,.22.07.31.31,0,0,1,.13.19c.08.31.15.63.21.94S60.74,238.43,60.76,238.74Zm2.6-2.48c0,.39,0,.8-.08,1.24s-.1.86-.18,1.29a2.39,2.39,0,0,1-.69,1.3,2,2,0,0,1-1.35.38.49.49,0,0,1-.36-.15.53.53,0,0,1-.15-.36.5.5,0,0,1,.15-.37.48.48,0,0,1,.38-.14,1,1,0,0,0,.7-.14,1.34,1.34,0,0,0,.32-.72.35.35,0,0,0,0-.12c0-.07,0-.08-.06,0l-.07,0-.07,0a.23.23,0,0,1-.21-.05.27.27,0,0,1-.11-.2,4.66,4.66,0,0,0-.08-.76c0-.25-.1-.48-.16-.72,0,0,0,0,0-.07a.26.26,0,0,1,.07-.2c.06,0,0-.06,0-.06H59.85a.77.77,0,0,1-.56-.23.74.74,0,0,1-.24-.56v-4.58a.74.74,0,0,1,.24-.56.77.77,0,0,1,.56-.23H63a.5.5,0,0,1,.35.14.47.47,0,0,1,.13.34.45.45,0,0,1-.14.34.49.49,0,0,1-.34.14H62a.07.07,0,0,0-.07.07v.64A.06.06,0,0,0,62,232h.77a.45.45,0,0,1,.33.14.48.48,0,0,1,.14.34.48.48,0,0,1-.47.47H62a.06.06,0,0,0-.07.07v.64a.06.06,0,0,0,.07.07h.77a.47.47,0,0,1,.33.8.43.43,0,0,1-.33.15H62a.06.06,0,0,0-.07.07v.64a.07.07,0,0,0,.07.07h.59a.75.75,0,0,1,.57.23A.72.72,0,0,1,63.36,236.26ZM60.87,232a.06.06,0,0,0,.07-.07v-.64a.07.07,0,0,0-.07-.07h-.72a.07.07,0,0,0-.08.07v.64c0,.05,0,.07.08.07Zm-.8,1.66c0,.05,0,.07.08.07h.72a.06.06,0,0,0,.07-.07V233a.06.06,0,0,0-.07-.07h-.72s-.08,0-.08.07Zm.87,1.09a.06.06,0,0,0-.07-.07h-.72s-.08,0-.08.07v.64a.07.07,0,0,0,.08.07h.72a.07.07,0,0,0,.07-.07Zm.21,4.12a.27.27,0,0,1-.2-.09.3.3,0,0,1-.1-.2,6.83,6.83,0,0,0-.3-1.65s0-.06,0-.12a.31.31,0,0,1,.09-.22.27.27,0,0,1,.24-.1.31.31,0,0,1,.21.07.23.23,0,0,1,.12.17,8.89,8.89,0,0,1,.33,1.74.37.37,0,0,1-.09.28A.38.38,0,0,1,61.15,238.88Zm1-1.17s0,0,0,0,0,0,0,0c0-.21,0-.41.06-.61l0-.6c0-.05,0-.07-.07-.07h-.35c-.05,0-.05,0,0,.07a.25.25,0,0,1,.07.12A6.58,6.58,0,0,1,62.19,237.71Zm6.6,1.74a.57.57,0,0,1,.19.22.74.74,0,0,1,.06.27.43.43,0,0,1-.15.36.44.44,0,0,1-.31.14.44.44,0,0,1-.23-.06,5.06,5.06,0,0,1-1-.89,8.22,8.22,0,0,1-.95-1.3,10.09,10.09,0,0,1-.75-1.55A6.87,6.87,0,0,1,65.2,235a.08.08,0,0,0-.09-.07h-.4s-.08,0-.08.07c0,.2,0,.49,0,.85s0,.79-.08,1.26-.11.95-.19,1.46a12.54,12.54,0,0,1-.34,1.5.5.5,0,0,1-.21.29.53.53,0,0,1-.34.11.46.46,0,0,1-.51-.46.25.25,0,0,1,0-.09.31.31,0,0,1,0-.08,9.41,9.41,0,0,0,.36-1.39c.08-.49.15-1,.19-1.46s.06-.92.08-1.33,0-.74,0-1v-3.51a.78.78,0,0,1,.23-.55.75.75,0,0,1,.57-.24h3.15a.79.79,0,0,1,.79.79v3a.76.76,0,0,1-.23.56.79.79,0,0,1-.56.23H66.29c-.06,0-.08,0-.07.07a7.32,7.32,0,0,0,.49,1.63,8.22,8.22,0,0,0,.89,1.59A5.32,5.32,0,0,0,68.79,239.45Zm-1.48-8c0-.05,0-.07-.07-.07H64.72s-.07,0-.07.07v2.38a.06.06,0,0,0,.07.07h2.52a.06.06,0,0,0,.07-.07Z"/><rect class="cls-4" x="534.06" y="176.42" width="19.89" height="100.04"/><rect class="cls-4" x="617.99" y="261.93" width="19.89" height="100.04" transform="translate(851.37 976.56) rotate(-135)"/><path class="cls-3" d="M548.89,200a.47.47,0,0,1,.24.42.45.45,0,0,1-.13.33.41.41,0,0,1-.3.13.49.49,0,0,1-.22-.06,9.77,9.77,0,0,1-1-.68q-.51-.41-1-.93t-1.05-1.08q-.49-.57-.9-1.14s0,0,0,0,0,0,0,.06v3c0,.05,0,.07.07.07h1.79a.46.46,0,0,1,.31.13.43.43,0,0,1,0,.62.42.42,0,0,1-.31.13h-1.79s-.07,0-.07.07v1.39a.44.44,0,0,1-.13.33.41.41,0,0,1-.32.13.4.4,0,0,1-.31-.13.44.44,0,0,1-.13-.33V201c0-.05,0-.07-.07-.07H541.7a.42.42,0,0,1-.31-.13.46.46,0,0,1,0-.62.46.46,0,0,1,.31-.13h1.79s.07,0,.07-.07v-2.89a.06.06,0,0,0,0-.06,0,0,0,0,0,0,0,15.3,15.3,0,0,1-1.21,1.46c-.46.48-.93.93-1.4,1.34a8.79,8.79,0,0,1-1.32,1,.48.48,0,0,1-.21.06.44.44,0,0,1-.41-.26.46.46,0,0,1,0-.21.53.53,0,0,1,.25-.44,9.35,9.35,0,0,0,1.12-.81,13.57,13.57,0,0,0,1.2-1.1,13.22,13.22,0,0,0,1.08-1.21,7.2,7.2,0,0,0,.77-1.15q0-.09-.06-.09h-3.62a.45.45,0,0,1-.31-.12.42.42,0,0,1-.13-.32.42.42,0,0,1,.13-.31.45.45,0,0,1,.31-.12h3.87a.06.06,0,0,0,.07-.07V193a.44.44,0,0,1,.13-.32.4.4,0,0,1,.31-.13.41.41,0,0,1,.32.13.44.44,0,0,1,.13.32v1.7a.06.06,0,0,0,.07.07h3.86a.43.43,0,0,1,.31.12.46.46,0,0,1,.13.31.46.46,0,0,1-.13.32.43.43,0,0,1-.31.12h-3.55c-.05,0-.07,0-.05.09a8.67,8.67,0,0,0,.79,1.18,13.25,13.25,0,0,0,1.07,1.21c.39.4.78.76,1.17,1.09A8.9,8.9,0,0,0,548.89,200Z"/><path class="cls-3" d="M541.74,209.36a.46.46,0,0,1,.34.16.45.45,0,0,1,.1.37,7.63,7.63,0,0,1-.58,1.83,8.69,8.69,0,0,1-1,1.65,5.56,5.56,0,0,1-1.23,1.2.33.33,0,0,1-.19.06.43.43,0,0,1-.36-.24.51.51,0,0,1-.05-.22.53.53,0,0,1,.23-.45,5.56,5.56,0,0,0,1-1,7,7,0,0,0,.69-1.08c0-.08,0-.1-.07-.08s-.42.1-.66.14-.48.08-.72.11a.41.41,0,0,1-.32-.1.43.43,0,0,1-.15-.29.86.86,0,0,1,.24-.73c.17-.19.34-.42.52-.66s.36-.51.53-.8a.15.15,0,0,0,0-.09,3.28,3.28,0,0,0-.42-.56,4.12,4.12,0,0,0-.46-.47.73.73,0,0,1-.24-.57.8.8,0,0,1,.12-.43,5,5,0,0,0,.47-1,7.61,7.61,0,0,0,.32-1.2.47.47,0,0,1,.13-.24.37.37,0,0,1,.26-.1.44.44,0,0,1,.36.16.54.54,0,0,1,.12.38,8.49,8.49,0,0,1-.47,1.65,4.51,4.51,0,0,1-.37.73l0,.05s.07.1.21.24a3.21,3.21,0,0,1,.41.47s.07,0,.09,0c.11-.23.21-.47.3-.71s.15-.48.21-.72a.33.33,0,0,1,.14-.23.4.4,0,0,1,.25-.09h.11a.49.49,0,0,1,.25.17.39.39,0,0,1,.1.27c0,.05,0,.09,0,.11a8.42,8.42,0,0,1-.45,1.3,11.57,11.57,0,0,1-.65,1.32,6.81,6.81,0,0,1-.66,1s0,0,0,.06a.06.06,0,0,0,.06,0l.44-.13a4.56,4.56,0,0,0,.44-.14.13.13,0,0,0,.06-.07c0-.13.07-.25.1-.37s0-.24.08-.36a.41.41,0,0,1,.15-.25A.36.36,0,0,1,541.74,209.36Zm2.9,1.11c.19.37.39.79.6,1.24s.39.88.54,1.3a.32.32,0,0,1,0,.16.45.45,0,0,1-.28.44.42.42,0,0,1-.16,0,.4.4,0,0,1-.23-.08.47.47,0,0,1-.17-.2,3,3,0,0,0-.21-.54c0-.05,0-.06-.1,0a7.48,7.48,0,0,1-.8.41c-.29.12-.56.22-.82.3l-.08,0h-.09a.51.51,0,0,1-.37-.17.53.53,0,0,1-.15-.39v-7.38a.72.72,0,0,1,.72-.72h1.71a.72.72,0,0,1,.72.72v3.7a.72.72,0,0,1-.72.72h-1.5s-.07,0-.07.07v2.35c0,.06,0,.08.08,0h0a4.92,4.92,0,0,0,1-.5s.06-.06,0-.1l-.26-.54c-.09-.18-.18-.35-.27-.5a.48.48,0,0,1-.06-.21.41.41,0,0,1,.25-.38.46.46,0,0,1,.21-.05.45.45,0,0,1,.25.07A.39.39,0,0,1,544.64,210.47Zm-.08-3.45a.06.06,0,0,0,.07-.07V205.8a.07.07,0,0,0-.07-.08h-1.29s-.07,0-.07.08V207c0,.05,0,.07.07.07Zm-1.29.84a.06.06,0,0,0-.07.07v1.17c0,.05,0,.07.07.07h1.29a.06.06,0,0,0,.07-.07v-1.17a.07.07,0,0,0-.07-.07Zm4.73.46a.07.07,0,0,0,0,.09,4.63,4.63,0,0,1,1.21,2.82,2.61,2.61,0,0,1-.18,1.05,1.75,1.75,0,0,1-.48.63,1.55,1.55,0,0,1-.63.31,1.9,1.9,0,0,1-.62.05.32.32,0,0,1-.26-.13.51.51,0,0,1-.1-.29.37.37,0,0,1,.17-.33.58.58,0,0,1,.36-.1.85.85,0,0,0,.62-.25,1.26,1.26,0,0,0,.28-.94,3.77,3.77,0,0,0-1-2.23.75.75,0,0,1-.17-.3,1.07,1.07,0,0,1-.06-.35,1.14,1.14,0,0,1,.13-.51,8.12,8.12,0,0,0,.43-1,7.65,7.65,0,0,0,.31-1.08c0-.06,0-.09-.08-.09h-1.11c-.05,0-.07,0-.07.08v8.64a.41.41,0,0,1-.13.29.4.4,0,0,1-.31.13.37.37,0,0,1-.29-.13.41.41,0,0,1-.13-.29v-8.82a.72.72,0,0,1,.72-.72h1.7a.59.59,0,0,1,.46.21.55.55,0,0,1,.14.5,12.61,12.61,0,0,1-.42,1.52A8.86,8.86,0,0,1,548,208.32Z"/><path class="cls-3" d="M548.24,226.34h-8.47a.44.44,0,0,1-.33-.13.46.46,0,0,1-.13-.31.44.44,0,0,1,.46-.46h8.47a.44.44,0,0,1,.32.13.45.45,0,0,1,.14.33.43.43,0,0,1-.14.31A.41.41,0,0,1,548.24,226.34Zm-.52-8.11h-7.44a.44.44,0,0,1-.32-.13.42.42,0,0,1-.13-.31.44.44,0,0,1,.13-.33.44.44,0,0,1,.32-.13h7.44a.44.44,0,0,1,.46.46.42.42,0,0,1-.13.31A.44.44,0,0,1,547.72,218.23Zm-1,3.73h-5.47a.4.4,0,0,1-.31-.13.45.45,0,0,1-.14-.32.45.45,0,0,1,.14-.33.4.4,0,0,1,.31-.13h5.47a.44.44,0,0,1,.32.13.45.45,0,0,1,.14.33.45.45,0,0,1-.14.32A.44.44,0,0,1,546.74,222Z"/><path class="cls-3" d="M539.68,229.22h8.62a.44.44,0,0,1,.32.13.45.45,0,0,1,.14.33.43.43,0,0,1-.14.31.41.41,0,0,1-.32.13h-3.56a.07.07,0,0,0-.08.07v6.68a1.75,1.75,0,0,1-.6,1.48,2.48,2.48,0,0,1-1.58.47l-.55,0a.42.42,0,0,1-.3-.17.48.48,0,0,1-.11-.3.4.4,0,0,1,.15-.33.39.39,0,0,1,.34-.1h.49a1.42,1.42,0,0,0,1-.26,1.06,1.06,0,0,0,.27-.78v-6.68a.06.06,0,0,0-.07-.07h-4a.4.4,0,0,1-.31-.13.42.42,0,0,1-.13-.31.44.44,0,0,1,.13-.33A.44.44,0,0,1,539.68,229.22Z"/><path class="cls-3" d="M541.06,240.85H547a.72.72,0,0,1,.72.72V250a.72.72,0,0,1-.72.72h-5.9a.72.72,0,0,1-.72-.72v-8.39a.72.72,0,0,1,.72-.72Zm5.61,2.86c.05,0,.07,0,.07-.08v-1.81s0-.07-.07-.07h-5.34c-.05,0-.07,0-.07.07v1.81c0,.05,0,.08.07.08Zm.07,1c0-.05,0-.07-.07-.07h-5.34c-.05,0-.07,0-.07.07v1.75c0,.05,0,.07.07.07h5.34c.05,0,.07,0,.07-.07Zm-5.41,2.74c-.05,0-.07,0-.07.07v2.21a.06.06,0,0,0,.07.07h5.34a.06.06,0,0,0,.07-.07V247.5c0-.05,0-.07-.07-.07Z"/><path class="cls-3" d="M539.68,259.4a.42.42,0,0,1,.32.14.37.37,0,0,1,.09.32c0,.27-.08.58-.14.92s-.13.69-.22,1a.36.36,0,0,1-.15.23.43.43,0,0,1-.27.08.36.36,0,0,1-.27-.1.37.37,0,0,1-.1-.26.28.28,0,0,1,0-.1,8.13,8.13,0,0,0,.23-1c.06-.35.11-.67.14-1a.42.42,0,0,1,.13-.22A.32.32,0,0,1,539.68,259.4Zm3.92-.69q0,.59-.09,1.23c0,.42-.1.85-.18,1.27a2.54,2.54,0,0,1-.61,1.23,1.82,1.82,0,0,1-1.36.4.4.4,0,0,1-.31-.13.48.48,0,0,1-.12-.33.39.39,0,0,1,.14-.3.4.4,0,0,1,.31-.11,1.1,1.1,0,0,0,.75-.16,1.38,1.38,0,0,0,.35-.75,5.83,5.83,0,0,0,.17-1.11c0-.37.05-.73.07-1.08a.06.06,0,0,0-.07-.07h-2.5a.72.72,0,0,1-.72-.72v-4.57a.72.72,0,0,1,.72-.72h3.11a.41.41,0,1,1,0,.82h-1c-.05,0-.07,0-.07.07v.78s0,.07.07.07h.84a.38.38,0,0,1,.28.12.39.39,0,0,1,.11.29.36.36,0,0,1-.11.27.38.38,0,0,1-.28.12h-.84c-.05,0-.07,0-.07.08v.78a.06.06,0,0,0,.07.07h.84a.41.41,0,0,1,.28.11.37.37,0,0,1,.11.28.39.39,0,0,1-.39.41h-.84a.06.06,0,0,0-.07.07v.78s0,.08.07.08h.66a.69.69,0,0,1,.51.21A.69.69,0,0,1,543.6,258.71ZM541,261.2a.35.35,0,0,1-.08.26.39.39,0,0,1-.23.15.26.26,0,0,1-.24-.06.36.36,0,0,1-.11-.22,7.12,7.12,0,0,0-.09-1,7,7,0,0,0-.21-.88.31.31,0,0,1,0-.1.33.33,0,0,1,.09-.23.29.29,0,0,1,.22-.09.36.36,0,0,1,.22.07.31.31,0,0,1,.13.19,7.06,7.06,0,0,1,.21.91C541,260.55,541,260.87,541,261.2Zm.2-6.67s.08,0,.08-.07v-.78c0-.05,0-.07-.08-.07h-.86s-.07,0-.07.07v.78s0,.07.07.07Zm-.93,1.66a.06.06,0,0,0,.07.07h.86a.07.07,0,0,0,.08-.07v-.78a.07.07,0,0,0-.08-.08h-.86s-.07,0-.07.08Zm1,.94a.07.07,0,0,0-.08-.07h-.86a.06.06,0,0,0-.07.07v.78s0,.08.07.08h.86a.07.07,0,0,0,.08-.08Zm-.15,1.84a.29.29,0,0,1,.31.23,8.52,8.52,0,0,1,.33,1.73.3.3,0,0,1-.09.25.34.34,0,0,1-.26.12.29.29,0,0,1-.19-.08.34.34,0,0,1-.09-.2c0-.29-.06-.56-.1-.83a6,6,0,0,0-.21-.81.32.32,0,0,1,0-.28A.29.29,0,0,1,541.17,259Zm1.07,1.94h0c-.15,0-.23-.08-.25-.24a4.78,4.78,0,0,0-.08-.75c0-.24-.1-.48-.16-.71a.17.17,0,0,1,0-.08.27.27,0,0,1,.07-.2.28.28,0,0,1,.2-.08.27.27,0,0,1,.29.23,5.89,5.89,0,0,1,.25,1.5.26.26,0,0,1-.06.21A.28.28,0,0,1,542.24,260.91Zm6.82,1a.49.49,0,0,1,.21.42.45.45,0,0,1-.12.32.37.37,0,0,1-.26.12.33.33,0,0,1-.19-.06,4.52,4.52,0,0,1-1-.88,8.32,8.32,0,0,1-.95-1.31A9.59,9.59,0,0,1,546,259a7.67,7.67,0,0,1-.42-1.63.07.07,0,0,0-.08-.08h-.54c-.05,0-.07,0-.07.08s0,.44,0,.81,0,.79-.08,1.27-.11,1-.2,1.5a11.28,11.28,0,0,1-.34,1.53.44.44,0,0,1-.18.26.47.47,0,0,1-.3.1.41.41,0,0,1-.31-.12.38.38,0,0,1-.12-.28.17.17,0,0,1,0-.07s0-.05,0-.07a9.88,9.88,0,0,0,.35-1.4c.09-.49.16-1,.2-1.46s.07-.93.08-1.34,0-.75,0-1v-3.52a.72.72,0,0,1,.72-.72h3.16a.72.72,0,0,1,.72.72v3a.72.72,0,0,1-.72.72H546.5s-.07,0-.06.08a6.79,6.79,0,0,0,.49,1.67,8,8,0,0,0,.91,1.64A5.43,5.43,0,0,0,549.06,262Zm-1.37-8.13a.07.07,0,0,0-.07-.07H545a.06.06,0,0,0-.07.07v2.52s0,.08.07.08h2.67a.07.07,0,0,0,.07-.08Z"/><path class="cls-3" d="M651.71,295.55a.48.48,0,0,1-.45.61.41.41,0,0,1-.3-.12.48.48,0,0,1-.11-.2,7.87,7.87,0,0,1-.19-1.15c0-.43-.08-.9-.09-1.4s0-1,0-1.51a12.94,12.94,0,0,1,.16-1.44s0,0,0-.06,0,0-.06,0l-2.11,2.11s0,.06,0,.1l1.27,1.26a.51.51,0,0,1,.13.31.4.4,0,0,1-.13.31.38.38,0,0,1-.31.13.39.39,0,0,1-.31-.13L648,293.13a.06.06,0,0,0-.1,0l-1,1a.45.45,0,0,1-.32.14.4.4,0,0,1-.32-.13.44.44,0,0,1-.13-.32.45.45,0,0,1,.14-.32l1-1a.06.06,0,0,0,0-.1L646,291.13a.38.38,0,0,1-.13-.3.45.45,0,0,1,.14-.32.41.41,0,0,1,.3-.12.45.45,0,0,1,.31.12l1.26,1.27s.07,0,.1,0l2-2s0,0,0-.06a0,0,0,0,0,0,0,13.68,13.68,0,0,1-1.88.17,17.63,17.63,0,0,1-1.94,0,8.44,8.44,0,0,1-1.62-.24.62.62,0,0,1-.2-.11.48.48,0,0,1,0-.66.52.52,0,0,1,.49-.13,10.64,10.64,0,0,0,1.37.22c.52.05,1.06.07,1.62.07a14,14,0,0,0,1.62-.09,6.77,6.77,0,0,0,1.36-.28c.06,0,.06-.05,0-.1l-2.55-2.55a.42.42,0,0,1-.13-.31.4.4,0,0,1,.13-.32.36.36,0,0,1,.31-.12.42.42,0,0,1,.31.13l2.73,2.73a.07.07,0,0,0,.1,0l1.2-1.2a.45.45,0,0,1,.32-.14.44.44,0,0,1,.45.45.49.49,0,0,1-.14.32l-1.2,1.2a.07.07,0,0,0,0,.1l2.73,2.73a.42.42,0,0,1,.13.31.38.38,0,0,1-.13.3.43.43,0,0,1-.31.14.46.46,0,0,1-.31-.13l-2.51-2.51s-.07,0-.09,0a7.53,7.53,0,0,0-.28,1.4,13.92,13.92,0,0,0-.1,1.61c0,.55,0,1.09,0,1.6A10.09,10.09,0,0,0,651.71,295.55Z"/><path class="cls-3" d="M640.05,297.11a.43.43,0,0,1,.12.35.41.41,0,0,1-.18.33,7.3,7.3,0,0,1-1.71.89,8.46,8.46,0,0,1-1.86.47,5.79,5.79,0,0,1-1.72,0,.4.4,0,0,1-.18-.1.39.39,0,0,1-.1-.19.36.36,0,0,1,0-.23.44.44,0,0,1,.12-.19.53.53,0,0,1,.48-.16,5.23,5.23,0,0,0,1.37,0,7.32,7.32,0,0,0,1.25-.28c.07,0,.07-.06,0-.1l-.56-.37c-.2-.14-.4-.28-.59-.43a.41.41,0,0,1-.15-.29.42.42,0,0,1,.1-.32.86.86,0,0,1,.68-.35c.26,0,.54-.05.84-.1a9.07,9.07,0,0,0,.94-.18.11.11,0,0,0,.07-.06,3.82,3.82,0,0,0,.11-.69q0-.34,0-.66a.73.73,0,0,1,.23-.56.77.77,0,0,1,.39-.22,5.55,5.55,0,0,0,1.06-.39,7,7,0,0,0,1.06-.62.5.5,0,0,1,.27-.08.38.38,0,0,1,.25.11.43.43,0,0,1,.14.38.45.45,0,0,1-.18.34c-.2.14-.43.29-.69.44s-.54.28-.81.4a5.08,5.08,0,0,1-.78.26l0,0a1.11,1.11,0,0,0,0,.32,3.34,3.34,0,0,1-.05.61c0,.07,0,.09.06.07a5.56,5.56,0,0,0,.71-.29,7,7,0,0,0,.66-.36.37.37,0,0,1,.27-.07.46.46,0,0,1,.24.12l.07.08a.54.54,0,0,1,.06.3.43.43,0,0,1-.13.26.23.23,0,0,1-.08.07,8.43,8.43,0,0,1-1.24.61,12,12,0,0,1-1.39.47A7.88,7.88,0,0,1,638,297s-.06,0-.06,0,0,0,0,0l.4.23.4.2h.1l.33-.19.31-.2a.51.51,0,0,1,.29-.08A.41.41,0,0,1,640.05,297.11Zm1.27,2.83c-.13.4-.28.84-.46,1.3s-.35.9-.53,1.31l-.1.12a.44.44,0,0,1-.52.11.26.26,0,0,1-.13-.08.42.42,0,0,1-.11-.22.46.46,0,0,1,0-.26,3.14,3.14,0,0,0,.23-.53c0-.05,0-.08,0-.09a7.77,7.77,0,0,1-.85-.29,8.65,8.65,0,0,1-.8-.36l-.07-.05-.06,0a.52.52,0,0,1-.15-.38.5.5,0,0,1,.17-.38l5.21-5.22a.71.71,0,0,1,.51-.21.69.69,0,0,1,.51.21l1.22,1.21a.72.72,0,0,1,0,1l-2.62,2.61a.7.7,0,0,1-.51.22.72.72,0,0,1-.51-.22l-1.06-1.06s-.06,0-.1,0l-1.66,1.66s0,.08,0,.1h0a5,5,0,0,0,1.07.35s.08,0,.09,0c.07-.19.14-.38.2-.57s.12-.37.17-.54a.48.48,0,0,1,.1-.19.42.42,0,0,1,.45-.09.35.35,0,0,1,.18.11.48.48,0,0,1,.13.23A.39.39,0,0,1,641.32,299.94Zm3.89.86s-.06,0-.07.07a4.68,4.68,0,0,1-1.13,2.85,2.44,2.44,0,0,1-.87.6,1.6,1.6,0,0,1-.79.11,1.56,1.56,0,0,1-.66-.22,1.87,1.87,0,0,1-.47-.4.3.3,0,0,1-.09-.28.43.43,0,0,1,.13-.27.37.37,0,0,1,.36-.12.59.59,0,0,1,.32.19.86.86,0,0,0,.61.26,1.27,1.27,0,0,0,.86-.47,3.79,3.79,0,0,0,.9-2.26.69.69,0,0,1,.09-.34,1,1,0,0,1,.2-.28,1,1,0,0,1,.46-.27c.33-.11.65-.23,1-.37a7.5,7.5,0,0,0,1-.55s0-.08,0-.11l-.79-.79a.07.07,0,0,0-.1,0L640,304.26a.41.41,0,0,1-.3.12.38.38,0,0,1-.3-.13.41.41,0,0,1-.12-.3.4.4,0,0,1,.12-.29l6.23-6.24a.73.73,0,0,1,.51-.21.69.69,0,0,1,.51.21l1.2,1.2a.6.6,0,0,1,.18.48.53.53,0,0,1-.26.44,9.84,9.84,0,0,1-1.37.78A8.81,8.81,0,0,1,645.21,300.8Zm-3-3.67a.07.07,0,0,0-.1,0l-.82.83s0,.06,0,.1l.9.91a.08.08,0,0,0,.11,0l.82-.83a.07.07,0,0,0,0-.1Zm1.5.32a.08.08,0,0,0,.11,0l.81-.82a.07.07,0,0,0,0-.1l-.91-.91a.07.07,0,0,0-.1,0l-.81.82a.06.06,0,0,0,0,.1Z"/><path class="cls-3" d="M632.64,313.71l-6-6a.45.45,0,0,1-.14-.32.39.39,0,0,1,.13-.31A.45.45,0,0,1,627,307a.43.43,0,0,1,.32.14l6,6a.43.43,0,0,1,.14.32.45.45,0,0,1-.14.32.4.4,0,0,1-.31.13A.45.45,0,0,1,632.64,313.71Zm2-4.15-3.87-3.87a.45.45,0,0,1-.12-.32.44.44,0,0,1,.13-.32.45.45,0,0,1,.64,0l3.87,3.87a.47.47,0,0,1,0,.65.44.44,0,0,1-.33.13A.54.54,0,0,1,634.67,309.56Zm3.34-1.95-5.26-5.26a.45.45,0,0,1-.14-.32.42.42,0,0,1,.13-.32.44.44,0,0,1,.32-.13.42.42,0,0,1,.32.13l5.27,5.27a.42.42,0,0,1,.13.32.41.41,0,0,1-.14.32.42.42,0,0,1-.31.13A.45.45,0,0,1,638,307.61Z"/><path class="cls-3" d="M624.55,309.7l6.09,6.09a.45.45,0,0,1,.14.32.45.45,0,0,1-.14.33.43.43,0,0,1-.31.12.42.42,0,0,1-.32-.13l-2.52-2.52s-.07,0-.1,0l-4.72,4.72a1.78,1.78,0,0,1-1.48.62,2.54,2.54,0,0,1-1.45-.79,3.64,3.64,0,0,1-.36-.41.41.41,0,0,1-.1-.33.47.47,0,0,1,.14-.29.4.4,0,0,1,.34-.13.42.42,0,0,1,.31.17l.17.2.16.17a1.41,1.41,0,0,0,.88.5A1.06,1.06,0,0,0,622,318l4.72-4.72s0-.06,0-.1l-2.83-2.82a.44.44,0,0,1-.13-.32.49.49,0,0,1,.13-.31.47.47,0,0,1,.32-.14A.44.44,0,0,1,624.55,309.7Z"/><path class="cls-3" d="M617.31,318.9l4.16,4.16a.72.72,0,0,1,0,1L615.54,330a.7.7,0,0,1-1,0l-4.16-4.16a.7.7,0,0,1,0-1l5.93-5.93a.7.7,0,0,1,.51-.22A.74.74,0,0,1,617.31,318.9Zm-4.47,4.83a.07.07,0,0,0-.1,0l-1.56,1.57s0,.06,0,.1l3.77,3.77a.07.07,0,0,0,.11,0l1.56-1.56a.07.07,0,0,0,0-.1Zm5.76,1.9a.07.07,0,0,0,0-.11l-3.77-3.77s-.07,0-.1,0L613.49,323s0,.06,0,.1l3.77,3.77s.07,0,.1,0Zm.65-.75a.07.07,0,0,0,.1,0l1.28-1.28s0-.07,0-.1l-3.78-3.78s-.06,0-.1,0L615.47,321s0,.07,0,.1Z"/><path class="cls-3" d="M603.21,331a.41.41,0,0,1,0,.61l-.75.56c-.29.2-.58.38-.88.56a.38.38,0,0,1-.27.05.47.47,0,0,1-.25-.13.31.31,0,0,1-.11-.26.33.33,0,0,1,.1-.25.24.24,0,0,1,.09-.07c.27-.15.55-.32.84-.52s.55-.39.78-.58a.41.41,0,0,1,.25-.07A.33.33,0,0,1,603.21,331Zm3.26,2.27q-.44.4-.93.81a12.66,12.66,0,0,1-1,.78,2.5,2.5,0,0,1-1.3.43,1.82,1.82,0,0,1-1.25-.67.38.38,0,0,1-.12-.32A.48.48,0,0,1,602,334a.36.36,0,0,1,.31-.12.42.42,0,0,1,.29.14,1.12,1.12,0,0,0,.65.42,1.34,1.34,0,0,0,.78-.28,6.91,6.91,0,0,0,.9-.66l.81-.72s0-.06,0-.1L604,331a.7.7,0,0,1,0-1l3.23-3.23a.7.7,0,0,1,1,0l2.19,2.19a.41.41,0,0,1,0,.58.36.36,0,0,1-.28.12.38.38,0,0,1-.29-.12l-.73-.73s-.07,0-.1,0l-.56.55s0,.07,0,.1l.6.6a.34.34,0,0,1,.11.28.4.4,0,0,1-.12.29.39.39,0,0,1-.28.11.37.37,0,0,1-.28-.11l-.59-.6a.08.08,0,0,0-.11,0l-.55.55a.08.08,0,0,0,0,.11l.6.59a.39.39,0,0,1,0,.56.4.4,0,0,1-.29.12.34.34,0,0,1-.28-.11l-.6-.6s-.06,0-.1,0l-.55.56s0,.06,0,.1l.47.46a.73.73,0,0,1,.21.51A.63.63,0,0,1,606.47,333.31Zm-3.57,0a.38.38,0,0,1-.24.13.42.42,0,0,1-.27-.06.27.27,0,0,1-.13-.21.32.32,0,0,1,.08-.23,7.67,7.67,0,0,0,.61-.74q.25-.37.48-.78l.06-.08a.37.37,0,0,1,.23-.1.31.31,0,0,1,.22.09.43.43,0,0,1,.11.21.36.36,0,0,1,0,.23,7.45,7.45,0,0,1-.5.79A7,7,0,0,1,602.9,333.27Zm1.67-1.48a.28.28,0,0,1,.06.38,9.11,9.11,0,0,1-1,1.45.35.35,0,0,1-.24.12.35.35,0,0,1-.26-.1.28.28,0,0,1,0-.39l.51-.67a6.23,6.23,0,0,0,.43-.72.32.32,0,0,1,.5-.07Zm3.46,7.68a.49.49,0,0,1-.14.45.44.44,0,0,1-.31.14.37.37,0,0,1-.28-.09.38.38,0,0,1-.09-.18,4.42,4.42,0,0,1-.1-1.35,7.9,7.9,0,0,1,.25-1.6,9.76,9.76,0,0,1,.57-1.62,7.7,7.7,0,0,1,.86-1.45.08.08,0,0,0,0-.11l-.39-.38s-.06,0-.1,0l-.59.56c-.27.26-.59.53-1,.84s-.77.61-1.2.92a10.44,10.44,0,0,1-1.32.84.45.45,0,0,1-.32.06.47.47,0,0,1-.28-.14.42.42,0,0,1-.13-.31.37.37,0,0,1,.11-.28l0,0,.07,0A11.46,11.46,0,0,0,605,335c.41-.29.8-.59,1.18-.9s.7-.61,1-.88l.73-.7,2.48-2.49a.71.71,0,0,1,.51-.21.69.69,0,0,1,.51.21l2.23,2.23a.7.7,0,0,1,.22.51.67.67,0,0,1-.22.51l-2.12,2.12a.69.69,0,0,1-.51.21.73.73,0,0,1-.51-.21l-1-1s-.07,0-.1,0a7.4,7.4,0,0,0-.84,1.53,8.61,8.61,0,0,0-.51,1.8A5.44,5.44,0,0,0,608,339.47ZM604,333.92l0,0a.23.23,0,0,1,0-.35,5.18,5.18,0,0,0,.47-.58c.14-.2.27-.41.39-.62a.23.23,0,0,1,.05-.07.31.31,0,0,1,.19-.09.28.28,0,0,1,.2.09.29.29,0,0,1,0,.37,6.32,6.32,0,0,1-.89,1.23.26.26,0,0,1-.2.11A.34.34,0,0,1,604,333.92Zm2-3.33a.07.07,0,0,0,0-.1l-.61-.61s-.07,0-.1,0l-.56.55a.07.07,0,0,0,0,.1l.62.61s.06,0,.1,0Zm0-1.38s0,.06,0,.1l.61.61s.06,0,.1,0l.55-.55a.07.07,0,0,0,0-.1l-.61-.61a.06.06,0,0,0-.1,0Zm1.83-.51a.07.07,0,0,0,.1,0l.55-.55a.07.07,0,0,0,0-.11l-.61-.61a.07.07,0,0,0-.1,0l-.55.56s0,.06,0,.1Zm5,4.06a.07.07,0,0,0,0-.1l-1.89-1.88s-.06,0-.1,0L609,332.56a.07.07,0,0,0,0,.1l1.88,1.88a.07.07,0,0,0,.11,0Z"/><rect class="cls-2" x="501.31" y="41.43" width="122.97" height="92.01" rx="12.16"/><path class="cls-3" d="M588.42,75.92V66.7a14,14,0,0,0-14-14H551a14,14,0,0,0-14,14V90.08a14,14,0,0,0,14,14h23.38a14,14,0,0,0,14-14V85.25H560.49c-1.11,0-4.67-.22-4.67-3.55V57.32h18.55A9.39,9.39,0,0,1,581,60a9.27,9.27,0,0,1,2.72,6.61v9.22h4.72Zm-27.93,14h23.26v.17A9.38,9.38,0,0,1,581,96.69a9.23,9.23,0,0,1-6.61,2.72H551.05a9.48,9.48,0,0,1-6.61-2.72,9.23,9.23,0,0,1-2.72-6.61V66.7a9.46,9.46,0,0,1,2.72-6.6,9.23,9.23,0,0,1,6.61-2.72h.16V81.75C551.16,86.64,554.88,89.91,560.49,89.91Z"/><path class="cls-3" d="M595.58,117.84a.92.92,0,0,0,.61-.27.82.82,0,0,0,0-1.23.92.92,0,0,0-.61-.27h-3.33v-1.72h3.38a.94.94,0,0,0,.62-.28.92.92,0,0,0,.27-.61.88.88,0,0,0-.27-.61.89.89,0,0,0-.62-.28h-4.27a.87.87,0,0,0-.61.28.85.85,0,0,0-.28.61v7.72a.89.89,0,0,0,.28.61.9.9,0,0,0,.61.27h4.27a.89.89,0,0,0,0-1.77h-3.38v-2.56h3.33Z"/><path class="cls-3" d="M529.06,113.46v7.72a.89.89,0,0,0,.28.61.9.9,0,0,0,.61.27h4.27a.95.95,0,0,0,.89-.88.89.89,0,0,0-.28-.62.88.88,0,0,0-.61-.27h-3.44V113.4a.89.89,0,0,0-.28-.61.87.87,0,0,0-.61-.28.89.89,0,0,0-.61.28A1.1,1.1,0,0,0,529.06,113.46Z"/><path class="cls-3" d="M587.47,116.12h-3.33V114.4h3.39a.89.89,0,0,0,.61-.28.87.87,0,0,0,.28-.61.89.89,0,0,0-.28-.61.93.93,0,0,0-.61-.28h-4.28a1,1,0,0,0-.89.89v7.72a.65.65,0,0,0,.06.33,1.14,1.14,0,0,0,.17.28.42.42,0,0,0,.27.17.8.8,0,0,0,.34,0,.76.76,0,0,0,.33,0,1.37,1.37,0,0,0,.28-.17.49.49,0,0,0,.16-.28.65.65,0,0,0,.06-.33v-3.44h3.33a.87.87,0,0,0,.61-.28.8.8,0,0,0,0-1.22A.82.82,0,0,0,587.47,116.12Z"/><path class="cls-3" d="M544.5,121l-3.17-7.83a1,1,0,0,0-.28-.38.58.58,0,0,0-.44-.17h-.17a.6.6,0,0,0-.44.17,1.08,1.08,0,0,0-.28.38L536.56,121a.67.67,0,0,0,0,.67.75.75,0,0,0,.5.44.7.7,0,0,0,.66,0,.79.79,0,0,0,.45-.5l.55-1.38h3.5l.55,1.38a1.3,1.3,0,0,0,.45.5.7.7,0,0,0,.66,0,1.21,1.21,0,0,0,.5-.44A.75.75,0,0,0,544.5,121Zm-5-2.5,1-2.61,1.06,2.61Z"/><path class="cls-3" d="M580.42,121l-3.16-7.83a1.08,1.08,0,0,0-.28-.38.6.6,0,0,0-.45-.17h-.16a.6.6,0,0,0-.45.17.94.94,0,0,0-.27.38L572.48,121a.72.72,0,0,0,0,.67.78.78,0,0,0,.5.44.72.72,0,0,0,.67,0,.75.75,0,0,0,.44-.5l.56-1.38h3.49l.56,1.38a1.28,1.28,0,0,0,.44.5.72.72,0,0,0,.67,0,1.28,1.28,0,0,0,.5-.44A.71.71,0,0,0,580.42,121Zm-5-2.5,1-2.61,1.06,2.61Z"/><path class="cls-3" d="M551.33,116.9a2.7,2.7,0,0,0-.28-3.44,2.65,2.65,0,0,0-1.89-.78h-1.72a1,1,0,0,0-.89.89v7.66a.89.89,0,0,0,.28.61.87.87,0,0,0,.61.28h2a3,3,0,0,0,1.67-.56,2.88,2.88,0,0,0,1.05-1.38,2.57,2.57,0,0,0,.06-1.73A3,3,0,0,0,551.33,116.9Zm-3-2.5h.83a.89.89,0,0,1,0,1.78h-.83Zm1.16,5.94h-1.16V118h1.16a1.13,1.13,0,0,1,1.17,1.17,1.13,1.13,0,0,1-.33.83A1.26,1.26,0,0,1,549.49,120.34Z"/><path class="cls-3" d="M559,116.34h-1.11v-1.11a.89.89,0,0,0-1.77,0v1.11H555a.93.93,0,0,0-.61.28.89.89,0,0,0-.28.61.87.87,0,0,0,.28.61.89.89,0,0,0,.61.28h1.11v1.11a1,1,0,0,0,.89.89.89.89,0,0,0,.61-.28.87.87,0,0,0,.28-.61v-1.11H559a.85.85,0,0,0,.61-.28.87.87,0,0,0,.28-.61.89.89,0,0,0-.28-.61A2,2,0,0,0,559,116.34Z"/><path class="cls-3" d="M562.1,117.34a5.18,5.18,0,0,0,.89,2.84,4.74,4.74,0,0,0,2.38,1.77,4.8,4.8,0,0,0,3,.06,5,5,0,0,0,2.44-1.67.72.72,0,0,0,.17-.66,1.27,1.27,0,0,0-.34-.61.7.7,0,0,0-.66-.17,1.26,1.26,0,0,0-.61.33,3.06,3.06,0,0,1-1.56,1.06,3.21,3.21,0,0,1-1.89-.06,3.33,3.33,0,0,1-1.5-1.11,3,3,0,0,1-.55-1.78,3.22,3.22,0,0,1,.55-1.77,3,3,0,0,1,1.5-1.11,3.05,3.05,0,0,1,3.45,1,.54.54,0,0,0,.27.22.9.9,0,0,0,.34.11h.33l.33-.17a.48.48,0,0,0,.22-.28.74.74,0,0,0,.12-.33v-.33a2,2,0,0,0-.17-.28,4.88,4.88,0,0,0-5.39-1.61,5,5,0,0,0-2.38,1.78A4.07,4.07,0,0,0,562.1,117.34Z"/><path class="cls-2" d="M492.61,201.19l37.46-96.72a.67.67,0,0,0-.22-.76L521,97a.66.66,0,0,0-1,.35L491.36,200.78A.66.66,0,0,0,492.61,201.19Z"/><circle class="cls-3" cx="613.55" cy="258.66" r="5.21"/><path class="cls-5" d="M601.49,375.29a.35.35,0,0,1-.06.46.37.37,0,0,1-.27.12.33.33,0,0,1-.25-.1.16.16,0,0,1,0-.08,7.48,7.48,0,0,1-.49-1.2,10.46,10.46,0,0,1-.36-1.36,11.18,11.18,0,0,1-.17-1.27c0-.06,0-.07-.08,0l-1.33,1.33a.36.36,0,0,1-.26.11.38.38,0,0,1-.37-.37.36.36,0,0,1,.11-.26l1.29-1.29c0-.05,0-.07,0-.07a6.55,6.55,0,0,1-1-.14c-.36-.07-.71-.16-1.06-.26s-.67-.22-1-.34-.54-.24-.75-.34l-.09-.06a.31.31,0,0,1-.08-.22.33.33,0,0,1,.1-.25.35.35,0,0,1,.21-.1.4.4,0,0,1,.24,0,9.72,9.72,0,0,0,1.08.44q.58.19,1.17.33a7.76,7.76,0,0,0,1.09.16s0,0,0,0,0,0,0,0l-1.07-1.07a.58.58,0,0,1-.18-.42.58.58,0,0,1,.18-.43l1.7-1.7a.58.58,0,0,1,.43-.18.58.58,0,0,1,.42.18l1.51,1.51a.06.06,0,0,0,.08,0l.42-.42a.06.06,0,0,0,0-.09l-2.41-2.41a.34.34,0,0,1-.11-.25.36.36,0,0,1,.11-.26.33.33,0,0,1,.25-.1.35.35,0,0,1,.26.1l2.41,2.41s0,0,.08,0l.31-.3a.35.35,0,0,1,.26-.11.38.38,0,0,1,.37.37.35.35,0,0,1-.11.26l-.3.31s0,.05,0,.08l2.41,2.41a.41.41,0,0,1,.11.26.33.33,0,0,1-.11.26.33.33,0,0,1-.25.1.36.36,0,0,1-.26-.11l-2.41-2.41a.06.06,0,0,0-.09,0l-.41.42s0,.06,0,.08l1.52,1.52a.61.61,0,0,1,.17.43.59.59,0,0,1-.17.42L602.53,373a.61.61,0,0,1-.42.17.61.61,0,0,1-.43-.17l-1-1a.06.06,0,0,0,0,0s0,0,0,0a9.66,9.66,0,0,0,.29,1.61A8.71,8.71,0,0,0,601.49,375.29Zm-.91-5.32a.06.06,0,0,0,0-.09l-1.36-1.35s-.05,0-.08,0l-.43.42s0,.06,0,.08l1.36,1.36a.06.06,0,0,0,.09,0Zm.5-.59a.06.06,0,0,0,.09,0l.41-.42s0,0,0-.08l-1.35-1.36a.06.06,0,0,0-.09,0l-.42.42a.06.06,0,0,0,0,.08Zm.11,1.11a.06.06,0,0,0-.09,0l-.42.42a.06.06,0,0,0,0,.09l1.37,1.37a.06.06,0,0,0,.09,0l.42-.42a.06.06,0,0,0,0-.09Zm1.87.87a.06.06,0,0,0,.09,0l.41-.42s0-.05,0-.08l-1.37-1.37s-.05,0-.08,0l-.42.41a.06.06,0,0,0,0,.09Z"/><path class="cls-5" d="M591.7,377a.35.35,0,0,1-.09.39.37.37,0,0,1-.14.09,4.37,4.37,0,0,1-1,.15,6.14,6.14,0,0,1-1.05,0,5.49,5.49,0,0,1-1-.19.27.27,0,0,1-.16-.08.31.31,0,0,1-.09-.19.33.33,0,0,1,0-.22l0-.07,0-.07a.4.4,0,0,1,.43-.11,5.45,5.45,0,0,0,1.23.2,4.74,4.74,0,0,0,1.26-.11.38.38,0,0,1,.4.1A.37.37,0,0,1,591.7,377Zm3.1,2.4-1.26-1.26a.06.06,0,0,0-.09,0l-1.8,1.81a.62.62,0,0,1-.58.21,1.54,1.54,0,0,1-.76-.49l-.14-.15-.15-.17a.38.38,0,0,1-.1-.3.46.46,0,0,1,.13-.29.31.31,0,0,1,.26-.09.29.29,0,0,1,.24.13l.22.25.16.18c.12.12.21.15.27.1l1.72-1.72a.06.06,0,0,0,0-.09l-1.26-1.26a.58.58,0,0,1-.18-.43.58.58,0,0,1,.18-.42l1.1-1.1a.58.58,0,0,1,.43-.18.58.58,0,0,1,.42.18l3.15,3.15a.58.58,0,0,1,.18.42.58.58,0,0,1-.18.43l-1.1,1.1a.58.58,0,0,1-.42.18A.58.58,0,0,1,594.8,379.42Zm1.27-1.5a.06.06,0,0,0,0-.09L593.24,375s-.06,0-.08,0l-.82.82a.06.06,0,0,0,0,.09l2.82,2.83a.06.06,0,0,0,.09,0Zm2.37.16L593,372.63a.36.36,0,0,1-.11-.26.41.41,0,0,1,.11-.26.36.36,0,0,1,.26-.11.36.36,0,0,1,.27.11l2.41,2.41s.05,0,.08,0l.45-.44a.34.34,0,0,1,.27-.12.37.37,0,0,1,.27.12.36.36,0,0,1,.11.26.37.37,0,0,1-.11.27l-.45.45s0,.06,0,.08l2.41,2.41a.36.36,0,0,1,.11.27.34.34,0,0,1-.11.26.36.36,0,0,1-.52,0Zm-4.06,4.31a.28.28,0,0,1,0,.2.52.52,0,0,1-.1.18.6.6,0,0,1-.15.09.38.38,0,0,1-.39-.11.36.36,0,0,1-.1-.15,5.7,5.7,0,0,1-.23-1.55,5.16,5.16,0,0,1,.15-1.42.28.28,0,0,1,.09-.18.35.35,0,0,1,.39-.09.54.54,0,0,1,.16.1.43.43,0,0,1,.11.41,4.27,4.27,0,0,0-.14,1.28A5.36,5.36,0,0,0,594.38,382.39Z"/><path class="cls-5" d="M587.87,387.12a.43.43,0,0,1-.13.34.57.57,0,0,1-.28.14.35.35,0,0,1-.29-.1.36.36,0,0,1-.11-.25,10,10,0,0,0-.19-1.78c0-.06,0-.08-.1-.07a10.15,10.15,0,0,1-2.14.07,10,10,0,0,1-2.15-.36.32.32,0,0,1-.17-.1.37.37,0,0,1-.1-.39.4.4,0,0,1,.1-.17.39.39,0,0,1,.4-.11,10.26,10.26,0,0,0,1.94.34,10.8,10.8,0,0,0,1.89-.05l.06,0s0-.05,0-.08a8.68,8.68,0,0,0-.85-1.81.37.37,0,0,1,.06-.5.41.41,0,0,1,.58,0l.06.07a9,9,0,0,1,.54,1c.15.36.29.72.41,1.09l0,.05a.09.09,0,0,0,.09,0,10.78,10.78,0,0,0,3-1.2.34.34,0,0,1,.26-.05.41.41,0,0,1,.23.11.36.36,0,0,1,.11.29.41.41,0,0,1-.11.28l-.07.06a11.22,11.22,0,0,1-1.51.76,10.33,10.33,0,0,1-1.66.52l-.05,0s0,0,0,.08a7.56,7.56,0,0,1,.16.91Q587.86,386.7,587.87,387.12Z"/><path class="cls-5" d="M581.25,394.08a.4.4,0,0,1-.12.29.43.43,0,0,1-.29.13.34.34,0,0,1-.36-.36,6.46,6.46,0,0,0-.15-1.63,4.31,4.31,0,0,0-.68-1.44v0a.09.09,0,0,0-.12,0L577,393.56a.36.36,0,0,1-.27.12.4.4,0,0,1-.29-.12.41.41,0,0,1,0-.56l4.8-4.79a.38.38,0,0,1,.28-.12.41.41,0,0,1,.28.11.4.4,0,0,1,.12.29.39.39,0,0,1-.12.28l-1.62,1.61a.11.11,0,0,0,0,.14,4.68,4.68,0,0,1,.63,1.11,6,6,0,0,1,.43,2.45Z"/><path class="cls-5" d="M570.32,400.68a4.84,4.84,0,0,1-1.16-1.62,1.64,1.64,0,0,1,.14-1.44c.11-.2.25-.41.41-.65s.36-.47.57-.72.41-.46.61-.66a1.6,1.6,0,0,1,.91-.5,1.91,1.91,0,0,1,1,.13,2.59,2.59,0,0,1,.83.56l1.65,1.65a2.65,2.65,0,0,1,.63.9,1.53,1.53,0,0,1,.09.81,1.87,1.87,0,0,1-.27.71,3,3,0,0,1-.47.6l-.14.14-.16.13a4.65,4.65,0,0,1-.39.3c-.17.13-.35.26-.55.39l-.54.33a1.74,1.74,0,0,1-1.69.06,3.34,3.34,0,0,1-.74-.48C570.78,401.12,570.55,400.9,570.32,400.68Zm.7-.38a6.13,6.13,0,0,0,.82.71,1.33,1.33,0,0,0,.61.23,1.18,1.18,0,0,0,.58-.16q.3-.16.72-.45c.21-.14.39-.27.55-.4a3.89,3.89,0,0,0,.41-.37,1.46,1.46,0,0,0,.51-.94,1.37,1.37,0,0,0-.5-.94l-1.65-1.64a1.43,1.43,0,0,0-.91-.49,1,1,0,0,0-.79.33,9.84,9.84,0,0,0-1,1.11c-.22.32-.37.54-.44.67a2.49,2.49,0,0,0-.14.41.68.68,0,0,0,0,.44,1.94,1.94,0,0,0,.35.6A8.9,8.9,0,0,0,571,400.3Z"/><path class="cls-5" d="M593.47,366.52a.36.36,0,0,1-.25.47,2.22,2.22,0,0,1-.93.09,1.36,1.36,0,0,1-.77-.44,1.43,1.43,0,0,1-.49-1.08,1.56,1.56,0,0,1,.51-1.07l2.91-2.92s0-.05,0-.08l-1-1s-.05,0-.09,0a9.78,9.78,0,0,1-2.31,1.3.16.16,0,0,0-.06.08,6.78,6.78,0,0,1-.1,1,5,5,0,0,1-.24.92.57.57,0,0,1-.08.13.37.37,0,0,1-.27.11.35.35,0,0,1-.28-.11.44.44,0,0,1-.09-.18.41.41,0,0,1,0-.22,3.48,3.48,0,0,0,.2-.67,4.4,4.4,0,0,0,.1-.74s0-.06-.07-.05a6,6,0,0,1-1.73.14,7.7,7.7,0,0,1-1.77-.32l-.07,0-.06,0a.31.31,0,0,1-.09-.18.3.3,0,0,1,0-.21.34.34,0,0,1,.09-.14.42.42,0,0,1,.43-.11,6.69,6.69,0,0,0,1.62.27,5.37,5.37,0,0,0,1.58-.18s0,0,0-.07a7.43,7.43,0,0,0-.09-.81,6.89,6.89,0,0,0-.18-.75.35.35,0,0,1,.09-.39.32.32,0,0,1,.26-.1.37.37,0,0,1,.24.1l0,.06,0,.07a6,6,0,0,1,.33,1.56s0,.06.07,0a8.61,8.61,0,0,0,.86-.43,10,10,0,0,0,.9-.6s0,0,0-.08L591,358.08a.35.35,0,0,1-.1-.26.32.32,0,0,1,.1-.26.35.35,0,0,1,.27-.11.34.34,0,0,1,.25.11l1.87,1.86a.06.06,0,0,0,.09,0c.39-.33.79-.69,1.21-1.08a.41.41,0,0,1,.28-.11.37.37,0,0,1,.27.12.39.39,0,0,1,.11.26.34.34,0,0,1-.11.25c-.2.21-.41.4-.62.59l-.59.52s0,0,0,.07l1.06,1.06a.58.58,0,0,1,.18.43.58.58,0,0,1-.18.42l-3,3.06a.79.79,0,0,0-.29.56.8.8,0,0,0,.27.53.62.62,0,0,0,.41.23,1.51,1.51,0,0,0,.55-.07.35.35,0,0,1,.37.09A.57.57,0,0,1,593.47,366.52Z"/><path class="cls-5" d="M581.11,369.37a.42.42,0,0,1-.12-.08.39.39,0,0,1-.1-.27.38.38,0,0,1,.12-.28.43.43,0,0,1,.22-.12.4.4,0,0,1,.24,0,7.75,7.75,0,0,0,1.84.54,8,8,0,0,0,1.68.07,8.57,8.57,0,0,0,1.49-.26,10.07,10.07,0,0,0,1.28-.45c.39-.16.74-.33,1-.49a.38.38,0,0,1,.46.07.39.39,0,0,1,.12.28.36.36,0,0,1-.11.28l0,0-.05,0a11.74,11.74,0,0,1-2.64,1,8.94,8.94,0,0,1-2.72.25A8.33,8.33,0,0,1,581.11,369.37Z"/><path class="cls-5" d="M580.58,374.05a.06.06,0,0,0,0,.09l1.95,1.95a.58.58,0,0,1,.18.43.58.58,0,0,1-.18.42l-3.75,3.75c-.57.57-1.21.48-1.92-.29a.39.39,0,0,1-.1-.27.38.38,0,0,1,.12-.28.37.37,0,0,1,.28-.11.38.38,0,0,1,.26.13l.09.1a.46.46,0,0,0,.07.07c.17.17.3.26.39.26a.44.44,0,0,0,.27-.14l3.61-3.61s0-.06,0-.08l-1.78-1.78s-.05,0-.08,0a4.2,4.2,0,0,0-.36.79,7.1,7.1,0,0,0-.25,1,7.74,7.74,0,0,0-.1,1.07,5.21,5.21,0,0,0,.09,1,.48.48,0,0,1-.12.41.38.38,0,0,1-.28.12.37.37,0,0,1-.25-.1.35.35,0,0,1-.09-.16,5.36,5.36,0,0,1-.12-1.16,7.46,7.46,0,0,1,.13-1.24,9.22,9.22,0,0,1,.28-1.15s0,0,0,0,0,0-.06,0a5.56,5.56,0,0,1-1.23.32,6.65,6.65,0,0,1-1.25.07,5.07,5.07,0,0,1-1.14-.15.38.38,0,0,1-.15-.09A.32.32,0,0,1,575,375a.24.24,0,0,1,.09-.14.37.37,0,0,1,.39-.1,4.78,4.78,0,0,0,1.25.12,5.71,5.71,0,0,0,1.41-.2,3.84,3.84,0,0,0,1.26-.59s0,0,0-.08l-1.79-1.78s0,0-.08,0l-4.15,4.15a.36.36,0,0,1-.54,0,.37.37,0,0,1-.11-.27.36.36,0,0,1,.11-.26l4.3-4.3a.58.58,0,0,1,.42-.18.58.58,0,0,1,.43.18l2,1.95a.06.06,0,0,0,.09,0l.82-.82a.34.34,0,0,1,.26-.12.41.41,0,0,1,.39.39.34.34,0,0,1-.12.26Z"/><path class="cls-5" d="M568.07,381.17a.41.41,0,0,1,.12.3.36.36,0,0,1-.14.27c-.29.24-.61.48-.94.73a6.1,6.1,0,0,1-1,.61.37.37,0,0,1-.25,0,.48.48,0,0,1-.22-.12.34.34,0,0,1-.11-.24.3.3,0,0,1,.1-.22l0,0,.05,0a5.84,5.84,0,0,0,1-.59c.31-.22.61-.46.91-.72a.27.27,0,0,1,.23-.08A.33.33,0,0,1,568.07,381.17Zm1.81.86s0,0,0-.08l-.21-.11-.22-.13a.08.08,0,0,0-.08,0l-2.39,2.4a.35.35,0,0,1-.26.1.36.36,0,0,1-.27-.1.4.4,0,0,1-.11-.27.41.41,0,0,1,.11-.26l2.3-2.29s0-.06,0-.08a3.51,3.51,0,0,1-.36-.29l-.32-.26a.35.35,0,0,1-.13-.3.46.46,0,0,1,.13-.29.52.52,0,0,1,.19-.12.62.62,0,0,1,.24,0,2.71,2.71,0,0,0,.51,0,5.32,5.32,0,0,0,.56,0,.06.06,0,0,0,.05-.06,4,4,0,0,0,.1-.59,5.13,5.13,0,0,0,0-.53.69.69,0,0,1,.56-.65,8.12,8.12,0,0,0,.81-.22,5.21,5.21,0,0,0,.71-.32.42.42,0,0,1,.24-.05.41.41,0,0,1,.22.1.34.34,0,0,1,.11.26.37.37,0,0,1-.1.25l-.07,0a6.4,6.4,0,0,1-.84.4,4.36,4.36,0,0,1-.88.22s-.05,0-.05.06,0,.29,0,.44,0,.29,0,.43,0,0,0,.05,0,0,0,0a9.4,9.4,0,0,0,1-.31,5.69,5.69,0,0,0,1-.49.29.29,0,0,1,.24,0,.3.3,0,0,1,.2.1.37.37,0,0,1,.12.27.45.45,0,0,1-.12.27l-.07.05a7.2,7.2,0,0,1-1.22.58,8.73,8.73,0,0,1-1.25.34,5.24,5.24,0,0,1-1,.12.06.06,0,0,0,0,0s0,0,0,0l.44.3a4.54,4.54,0,0,0,.44.28.06.06,0,0,0,.09,0l.08-.2a1.34,1.34,0,0,0,.07-.18.36.36,0,0,1,.08-.12.32.32,0,0,1,.23-.09.35.35,0,0,1,.25.12.37.37,0,0,1,.12.2.38.38,0,0,1,0,.24,6.79,6.79,0,0,1-.3.61,5.38,5.38,0,0,1-.38.66.39.39,0,0,1-.28.18.32.32,0,0,1-.31-.1.44.44,0,0,1-.1-.19.3.3,0,0,1,.06-.22Zm.46.93.92.92a.46.46,0,0,1,0,.64l0,.05-.07,0a4.64,4.64,0,0,1-1.59.47A4.28,4.28,0,0,1,568,385a.35.35,0,0,1-.15-.07.34.34,0,0,1-.08-.35.31.31,0,0,1,.09-.14.4.4,0,0,1,.37-.11,3.9,3.9,0,0,0,1.18.09,2.9,2.9,0,0,0,1.06-.24c.06,0,.06,0,0-.08l-.67-.67a.33.33,0,0,1-.1-.23.37.37,0,0,1,.1-.25.36.36,0,0,1,.24-.09A.32.32,0,0,1,570.34,383Zm-1.58.94a.45.45,0,0,1-.28.15.31.31,0,0,1-.29-.09.33.33,0,0,1,0-.43c.11-.16.22-.32.31-.47a3.81,3.81,0,0,0,.22-.46.41.41,0,0,1,.07-.11.33.33,0,0,1,.24-.1.38.38,0,0,1,.26.11.56.56,0,0,1,.11.2.33.33,0,0,1,0,.22c-.08.16-.16.32-.26.49Zm3.12,4.19a.42.42,0,0,1-.12.4.34.34,0,0,1-.48,0,.22.22,0,0,1-.08-.15,5.47,5.47,0,0,1-.1-1.34,7.58,7.58,0,0,1,.16-1.3s0,0,0-.05,0,0-.06,0l-1.08,1.08a.62.62,0,0,1-.55.18,1.35,1.35,0,0,1-.67-.39l-.08-.09-.08-.09a.33.33,0,0,1-.07-.25.36.36,0,0,1,.38-.33.34.34,0,0,1,.26.15l.07.08.07.07c.1.11.18.14.22.1l2.18-2.18a.36.36,0,0,1,.5,0,.38.38,0,0,1,.11.26.33.33,0,0,1-.1.25l-.07.07a.1.1,0,0,0,0,.07,6.55,6.55,0,0,0-.32,1c0,.05,0,.07.05.07h.67a4.31,4.31,0,0,0,.71-.09.36.36,0,0,1,.31.1.3.3,0,0,1,.1.25.37.37,0,0,1-.1.23.42.42,0,0,1-.14.09,3.87,3.87,0,0,1-.84.13,7.17,7.17,0,0,1-.81,0s-.07,0-.07.05a5.48,5.48,0,0,0,0,.81A5,5,0,0,0,571.88,388.09Zm1.54-3.14-2-2a.59.59,0,0,1-.17-.42.55.55,0,0,1,.17-.42l1.66-1.66a.56.56,0,0,1,.42-.18.58.58,0,0,1,.43.18l.52.52s0,0,.08,0l.24-.1.24-.1a.37.37,0,0,1,.46.08.33.33,0,0,1,.1.24.3.3,0,0,1-.1.24.13.13,0,0,1-.06.05l-.13.07-.15.07s-.06.05,0,.08l.8.81a.58.58,0,0,1,.18.42.58.58,0,0,1-.18.43L574.27,385a.58.58,0,0,1-.43.18A.58.58,0,0,1,573.42,385Zm-.85-2.87s-.05,0-.08,0l-.43.42a.06.06,0,0,0,0,.09l1.73,1.73a.06.06,0,0,0,.09,0l.42-.42a.06.06,0,0,0,0-.09Zm2.24,1.23s.05,0,.08,0l.4-.4a.06.06,0,0,0,0-.09l-1.73-1.73s-.06,0-.08,0l-.41.4a.08.08,0,0,0,0,.09Z"/><path class="cls-5" d="M537,302a.35.35,0,0,1,.28.12.39.39,0,0,1,.1.26v.06a.14.14,0,0,1,0,.06,6,6,0,0,1-.47,1,8.81,8.81,0,0,1-.71,1.09c0,.05,0,.07,0,.07h.8a.36.36,0,0,1,.26.11.33.33,0,0,1,.1.25.34.34,0,0,1-.36.36h-1.44a.11.11,0,0,0-.07,0l-.3.33a2.5,2.5,0,0,1-.32.33.06.06,0,0,0,0,.05l0,0h1.45a.58.58,0,0,1,.43.18.57.57,0,0,1,.17.42v2.84a.57.57,0,0,1-.17.43.61.61,0,0,1-.43.17h-2.11a.61.61,0,0,1-.42-.17.58.58,0,0,1-.18-.43v-2.41c0-.06,0-.07-.07,0l-.25.17-.26.15a.24.24,0,0,1-.15,0,.32.32,0,0,1-.18-.06.34.34,0,0,1-.13-.16.41.41,0,0,1,0-.16.43.43,0,0,1,.23-.38,6.37,6.37,0,0,0,.88-.58,8.91,8.91,0,0,0,.8-.7,0,0,0,0,0,0,0s0,0,0,0h-1.36a.37.37,0,0,1-.26-.1.36.36,0,0,1-.11-.26.34.34,0,0,1,.11-.25.38.38,0,0,1,.26-.11h1.14a.05.05,0,0,0,.06-.06v-1a.05.05,0,0,0-.06-.06h-.68a.33.33,0,0,1-.25-.1.36.36,0,0,1-.11-.26.38.38,0,0,1,.36-.36h.68a.05.05,0,0,0,.06-.06V302a.36.36,0,0,1,.11-.26.38.38,0,0,1,.26-.11.37.37,0,0,1,.27.11.33.33,0,0,1,.11.26v.77a.05.05,0,0,0,.06.06h.64a.36.36,0,0,1,.26.11.33.33,0,0,1,.1.25.34.34,0,0,1-.36.36h-.64a.05.05,0,0,0-.06.06v1a.05.05,0,0,0,.06.06h.06a.08.08,0,0,0,.08,0,9.34,9.34,0,0,0,.82-1.19,7,7,0,0,0,.57-1.22A.37.37,0,0,1,537,302Zm-2.62,5.69a.05.05,0,0,0,.06.06h1.74a.05.05,0,0,0,.06-.06v-.73a.05.05,0,0,0-.06-.06h-1.74a.05.05,0,0,0-.06.06Zm.06.77a.05.05,0,0,0-.06.06v.94a.05.05,0,0,0,.06.06h1.74a.05.05,0,0,0,.06-.06v-.94a.05.05,0,0,0-.06-.06Zm5.52-3.63a.06.06,0,0,0,0,.09,4.28,4.28,0,0,1,.65.63,3.41,3.41,0,0,1,.5.79,2.3,2.3,0,0,1,.19.95,1.72,1.72,0,0,1-.29,1.07,1.59,1.59,0,0,1-.76.57,2.92,2.92,0,0,1-1,.16A.36.36,0,0,1,539,309a.41.41,0,0,1-.11-.28.34.34,0,0,1,.11-.24.37.37,0,0,1,.24-.1,1.51,1.51,0,0,0,1-.27,1.08,1.08,0,0,0,.27-.79,1.65,1.65,0,0,0-.16-.75,2.47,2.47,0,0,0-.43-.62c-.18-.19-.39-.38-.61-.57a.57.57,0,0,1-.21-.46.65.65,0,0,1,.13-.39,4.51,4.51,0,0,0,.51-.8,5.38,5.38,0,0,0,.38-.92s0-.07,0-.07h-1.63a.05.05,0,0,0-.06.06v7.15a.34.34,0,0,1-.37.37.33.33,0,0,1-.25-.1.37.37,0,0,1-.11-.27v-7.33a.56.56,0,0,1,.18-.42.58.58,0,0,1,.42-.18h2.22a.5.5,0,0,1,.35.14.42.42,0,0,1,.14.33v.06a.14.14,0,0,1,0,.06,6.74,6.74,0,0,1-.46,1.25A5.38,5.38,0,0,1,539.94,304.8Z"/><path class="cls-5" d="M539,312.81c0,.05,0,.07,0,.07h1.21a.61.61,0,0,1,.43.17.57.57,0,0,1,.17.43v1.2a.38.38,0,0,1-.37.37.34.34,0,0,1-.26-.11.36.36,0,0,1-.11-.26v-1a.05.05,0,0,0-.06-.06h-6.2a.05.05,0,0,0-.06.06v1a.38.38,0,0,1-.37.37.34.34,0,0,1-.26-.11.36.36,0,0,1-.11-.26v-1.2a.58.58,0,0,1,.18-.43.61.61,0,0,1,.42-.17h1c.06,0,.07,0,0-.07a1.67,1.67,0,0,0-.18-.28,1.9,1.9,0,0,0-.24-.28.34.34,0,0,1-.12-.27.35.35,0,0,1,.13-.26.44.44,0,0,1,.27-.09.41.41,0,0,1,.33.16,4,4,0,0,1,.34.5,4.74,4.74,0,0,1,.29.54s0,.05.07.05h.8c.06,0,.08,0,.05-.07a2.21,2.21,0,0,0-.18-.34,2.39,2.39,0,0,0-.25-.33.32.32,0,0,1-.08-.21.37.37,0,0,1,0-.16.34.34,0,0,1,.12-.12.68.68,0,0,1,.22,0,.41.41,0,0,1,.39.21,5,5,0,0,1,.49,1v0s0,.05.07.05h.59a.09.09,0,0,0,.07,0,3,3,0,0,0,.49-.51,4.59,4.59,0,0,0,.37-.57.42.42,0,0,1,.37-.22.34.34,0,0,1,.27.11.33.33,0,0,1,.1.24.27.27,0,0,1,0,.16c-.07.12-.15.25-.24.38S539.1,312.69,539,312.81Zm-2.19,4.49c0,.05,0,.07,0,.07h2.67a.58.58,0,0,1,.43.18.55.55,0,0,1,.17.42v1.64a.57.57,0,0,1-.17.43.61.61,0,0,1-.43.17h-5.16a.61.61,0,0,1-.42-.17.58.58,0,0,1-.18-.43V318a.56.56,0,0,1,.18-.42.58.58,0,0,1,.42-.18h1.39a.09.09,0,0,0,.07,0,2,2,0,0,0,.51-.68s0-.07-.05-.07H535.2a.61.61,0,0,1-.42-.17.58.58,0,0,1-.18-.43v-1.07a.56.56,0,0,1,.18-.42.58.58,0,0,1,.42-.18h3.48a.58.58,0,0,1,.43.18.55.55,0,0,1,.17.42V316a.57.57,0,0,1-.17.43.61.61,0,0,1-.43.17H537.2a.06.06,0,0,0-.06.05A3.39,3.39,0,0,1,536.81,317.3Zm-2.31,2.12a.05.05,0,0,0,.06.06h4.76a.05.05,0,0,0,.06-.06v-1.25a.05.05,0,0,0-.06-.06h-4.76a.05.05,0,0,0-.06.06Zm4-4.33a.05.05,0,0,0-.06-.06h-3.1a.05.05,0,0,0-.06.06v.73a.05.05,0,0,0,.06.06h3.1a.05.05,0,0,0,.06-.06Z"/><path class="cls-5" d="M541,329.5a.38.38,0,0,1,.22.36.33.33,0,0,1-.11.27.37.37,0,0,1-.26.1l-.14,0a5.85,5.85,0,0,1-1.1-.71,9.67,9.67,0,0,1-1-1,10.41,10.41,0,0,1-.88-1.13,9.91,9.91,0,0,1-.67-1.14s0,0,0,0,0,0-.05,0a6.85,6.85,0,0,1-.94,1.59,8.65,8.65,0,0,1-1.31,1.39,6.55,6.55,0,0,1-1.47,1,.27.27,0,0,1-.16,0,.34.34,0,0,1-.33-.23.19.19,0,0,0,0-.07.24.24,0,0,1,0-.08.39.39,0,0,1,.22-.35,6.22,6.22,0,0,0,1.25-.84,7.83,7.83,0,0,0,1.09-1.14,7.46,7.46,0,0,0,.83-1.27,5,5,0,0,0,.45-1.27s0-.06-.06-.06h-3.23a.35.35,0,0,1-.26-.1.37.37,0,0,1-.11-.27.38.38,0,0,1,.37-.37h3.29a.05.05,0,0,0,.06-.06v-2.07a.38.38,0,0,1,.38-.38.37.37,0,0,1,.27.11.36.36,0,0,1,.11.27v2.07a.05.05,0,0,0,.06.06h3.29a.37.37,0,0,1,.27.11.33.33,0,0,1,.11.26.33.33,0,0,1-.11.27.36.36,0,0,1-.27.1H537.4s-.06,0,0,.1a5.7,5.7,0,0,0,.62,1.44,9.15,9.15,0,0,0,2,2.35A6,6,0,0,0,541,329.5Z"/><path class="cls-5" d="M533,335a.39.39,0,0,1-.21-.13.4.4,0,0,1-.08-.23.39.39,0,0,1,.38-.39h.09c.23.06.48.13.75.22a6,6,0,0,1,.76.3.38.38,0,0,1,.23.38.36.36,0,0,1-.1.27.29.29,0,0,1-.23.1h-.07l-.08,0c-.2-.09-.43-.18-.68-.27S533.23,335.06,533,335Zm1.59,1.26a.38.38,0,0,1,.28.11.39.39,0,0,1,.1.27.28.28,0,0,1,0,.1,11.25,11.25,0,0,1-.39,1.21c-.16.41-.32.81-.5,1.18a8.13,8.13,0,0,1-.5.95.35.35,0,0,1-.17.15.42.42,0,0,1-.22,0,.63.63,0,0,1-.19,0,.3.3,0,0,1-.19-.29.35.35,0,0,1,.05-.18,10.38,10.38,0,0,0,.81-1.56,11.09,11.09,0,0,0,.57-1.68.48.48,0,0,1,.14-.2A.37.37,0,0,1,534.56,336.26Zm-1.35-3.57a.39.39,0,0,1-.21-.13.4.4,0,0,1-.08-.23.41.41,0,0,1,.11-.28.4.4,0,0,1,.27-.11h.09c.25.06.51.14.78.23a6,6,0,0,1,.76.33.38.38,0,0,1,.2.36.35.35,0,0,1-.1.27.36.36,0,0,1-.24.09l-.14,0c-.2-.09-.42-.18-.67-.27A7.74,7.74,0,0,0,533.21,332.69Zm5.21,6.5a.05.05,0,0,0,.06.06h2.33a.38.38,0,0,1,.37.38.38.38,0,0,1-.37.37h-5.55a.34.34,0,0,1-.26-.11.36.36,0,0,1-.11-.26.4.4,0,0,1,.11-.27.38.38,0,0,1,.26-.11h2.34a.05.05,0,0,0,.06-.06v-5.93a.05.05,0,0,0-.06-.06h-1.84a.35.35,0,0,1-.26-.1.37.37,0,0,1-.11-.27.38.38,0,0,1,.37-.37h4.55a.37.37,0,0,1,.27.11.35.35,0,0,1,.1.26.34.34,0,0,1-.37.37h-1.83a.05.05,0,0,0-.06.06Z"/><path class="cls-5" d="M533.18,350.13a.29.29,0,0,1-.22.08.37.37,0,0,1-.31-.16l0-.1a.5.5,0,0,1,0-.12.45.45,0,0,1,.17-.34,2.7,2.7,0,0,0,.65-.75,3.71,3.71,0,0,0,.37-.82,4.32,4.32,0,0,0,.18-.78,3.8,3.8,0,0,0,0-.61v-2.14a.62.62,0,0,1,.6-.6h4.88a.58.58,0,0,1,.43.18.57.57,0,0,1,.17.42v2.11a.58.58,0,0,1-.6.6h-4.7s0,0-.07,0a5.55,5.55,0,0,1-.47,1.62A4,4,0,0,1,533.18,350.13Zm7.4-7.33H533.3a.36.36,0,0,1-.27-.11.37.37,0,0,1-.11-.27.38.38,0,0,1,.11-.26.4.4,0,0,1,.27-.11h7.28a.36.36,0,0,1,.37.37.36.36,0,0,1-.1.27A.33.33,0,0,1,540.58,342.8Zm-5.77,1.73a.05.05,0,0,0-.06.06v1.72a.05.05,0,0,0,.06.06h4.46a.05.05,0,0,0,.06-.06v-1.72a.05.05,0,0,0-.06-.06Z"/><path class="cls-5" d="M535.39,356.37s0,0-.07,0l-.23.07-.24.06s-.05,0-.05.06v3.39a.37.37,0,0,1-.63.26.36.36,0,0,1-.11-.26v-3.24s0-.06-.06-.05l-.46.05-.41,0a.34.34,0,0,1-.3-.12.41.41,0,0,1-.12-.3.54.54,0,0,1,0-.21.7.7,0,0,1,.16-.19,2.85,2.85,0,0,0,.39-.33,3.76,3.76,0,0,0,.38-.41.06.06,0,0,0,0-.08,4.14,4.14,0,0,0-.34-.48,4.81,4.81,0,0,0-.36-.4.65.65,0,0,1-.19-.47.69.69,0,0,1,.12-.39,4.67,4.67,0,0,0,.42-.72,4.5,4.5,0,0,0,.28-.73.41.41,0,0,1,.14-.21.37.37,0,0,1,.22-.08.33.33,0,0,1,.26.11.33.33,0,0,1,.1.24.22.22,0,0,1,0,.09,4.71,4.71,0,0,1-.31.87,3.44,3.44,0,0,1-.47.78.06.06,0,0,0,0,.08l.3.32a2.88,2.88,0,0,1,.27.34s0,0,0,0a0,0,0,0,0,0,0,6.63,6.63,0,0,0,.49-.92,5.18,5.18,0,0,0,.35-1.05.39.39,0,0,1,.13-.2.37.37,0,0,1,.22-.08.35.35,0,0,1,.28.12.35.35,0,0,1,.1.26.22.22,0,0,1,0,.09,6.13,6.13,0,0,1-.46,1.28,8.44,8.44,0,0,1-.64,1.12,4.83,4.83,0,0,1-.62.79.06.06,0,0,0,0,.05s0,0,.05,0l.53-.1a3.66,3.66,0,0,0,.5-.12s.06,0,0-.08a1.54,1.54,0,0,0-.08-.19,1,1,0,0,0-.08-.18.39.39,0,0,1,0-.14.34.34,0,0,1,.36-.33.39.39,0,0,1,.23.07.27.27,0,0,1,.15.18c.08.19.15.4.23.64a6.17,6.17,0,0,1,.19.74.38.38,0,0,1-.36.47.31.31,0,0,1-.2-.07.31.31,0,0,1-.12-.19Zm-1.89.67a.38.38,0,0,1,.3.13.31.31,0,0,1,.09.29c0,.38-.08.77-.15,1.18a5.53,5.53,0,0,1-.29,1.15.28.28,0,0,1-.15.2.4.4,0,0,1-.24.07.35.35,0,0,1-.25-.09.33.33,0,0,1-.09-.23.43.43,0,0,1,0-.05s0,0,0-.06a5.77,5.77,0,0,0,.29-1.12,10.83,10.83,0,0,0,.13-1.16.39.39,0,0,1,.11-.22A.35.35,0,0,1,533.5,357Zm2.42,1.44a.4.4,0,0,1-.08.31.34.34,0,0,1-.28.14.31.31,0,0,1-.21-.07.37.37,0,0,1-.12-.21,4.88,4.88,0,0,0-.12-.55,3.38,3.38,0,0,0-.16-.48.28.28,0,0,1,0-.13.37.37,0,0,1,.1-.24.41.41,0,0,1,.48,0,.29.29,0,0,1,.14.17,4.64,4.64,0,0,1,.16.53A5.78,5.78,0,0,1,535.92,358.48Zm.46-1.78h1.3a.45.45,0,0,1,.33.13.42.42,0,0,1,.13.31v.07a.1.1,0,0,1,0,.07,4.7,4.7,0,0,1-.79,1.46,4.55,4.55,0,0,1-1.13,1,.24.24,0,0,1-.16.05.32.32,0,0,1-.3-.19.38.38,0,0,1,0-.16.44.44,0,0,1,.19-.34,3.91,3.91,0,0,0,.9-.77,3.07,3.07,0,0,0,.58-.92s0-.07,0-.07h-.94a.33.33,0,0,1-.24-.1.33.33,0,0,1-.1-.24.34.34,0,0,1,.34-.34Zm3.58-.77h-2.81a.61.61,0,0,1-.42-.17.58.58,0,0,1-.18-.43V353a.56.56,0,0,1,.18-.42.58.58,0,0,1,.42-.18h.74s.07,0,.07,0l.11-.24a1.17,1.17,0,0,0,.09-.24.38.38,0,0,1,.38-.27.37.37,0,0,1,.25.1.33.33,0,0,1,.1.24.17.17,0,0,1,0,.08.83.83,0,0,1,0,.15l-.06.15c0,.05,0,.07,0,.07H540a.58.58,0,0,1,.43.18.55.55,0,0,1,.17.42v2.34a.57.57,0,0,1-.17.43A.61.61,0,0,1,540,355.93Zm-.18-2.14a.05.05,0,0,0,.06-.06v-.57a.05.05,0,0,0-.06-.06h-2.45a.05.05,0,0,0-.06.06v.57a.05.05,0,0,0,.06.06Zm-2.45.71a.05.05,0,0,0-.06.06v.6a.05.05,0,0,0,.06.06h2.45a.05.05,0,0,0,.06-.06v-.6a.05.05,0,0,0-.06-.06Zm3.76,4.74a.41.41,0,0,1,.2.37.34.34,0,0,1-.1.26.31.31,0,0,1-.22.09.23.23,0,0,1-.17,0,5.66,5.66,0,0,1-1-.88,7.71,7.71,0,0,1-.8-1s0,0,0,0,0,0,0,0v1.53a.6.6,0,0,1-.26.52,1.26,1.26,0,0,1-.75.19h-.24a.32.32,0,0,1-.22-.12.36.36,0,0,1-.09-.24.35.35,0,0,1,.13-.27.4.4,0,0,1,.28-.08h.2c.16,0,.23,0,.23-.09v-3.08a.34.34,0,0,1,.11-.24.34.34,0,0,1,.25-.11.36.36,0,0,1,.26.11.33.33,0,0,1,.1.24v.1a.15.15,0,0,0,0,.08,7.06,7.06,0,0,0,.49.93s.06,0,.08,0A5.26,5.26,0,0,0,540,357a4,4,0,0,0,.43-.56.35.35,0,0,1,.29-.15.32.32,0,0,1,.26.11.34.34,0,0,1,.08.23.27.27,0,0,1,0,.16,3.49,3.49,0,0,1-.49.69,6.08,6.08,0,0,1-.59.56s0,.07,0,.09a7.81,7.81,0,0,0,.56.59A5.54,5.54,0,0,0,541.09,359.24Z"/><path class="cls-5" d="M160.08,309.43a.35.35,0,0,1,.28.37.4.4,0,0,1-.11.27.34.34,0,0,1-.24.11l-.1,0a8.23,8.23,0,0,1-1.19-.5,11.48,11.48,0,0,1-1.22-.72,10.4,10.4,0,0,1-1-.77s-.07,0-.07,0v1.88a.34.34,0,0,1-.11.25.38.38,0,0,1-.26.11.36.36,0,0,1-.26-.11.31.31,0,0,1-.11-.25v-1.83c0-.07,0-.08-.07,0a6.81,6.81,0,0,1-.82.63c-.3.2-.62.38-.94.56s-.63.32-.92.44l-.77.3-.1,0a.32.32,0,0,1-.22-.1.33.33,0,0,1-.1-.25.34.34,0,0,1,.07-.22.35.35,0,0,1,.2-.14,9.57,9.57,0,0,0,1.08-.45,10.93,10.93,0,0,0,1-.6,7.33,7.33,0,0,0,.89-.65.06.06,0,0,0,0,0l0,0h-1.51a.58.58,0,0,1-.43-.18.57.57,0,0,1-.17-.42v-2.41a.58.58,0,0,1,.6-.6h2.13a.05.05,0,0,0,.06-.06v-.59a.05.05,0,0,0-.06-.06H152.2a.36.36,0,0,1-.26-.11.33.33,0,0,1-.1-.25.34.34,0,0,1,.36-.36h3.41a.05.05,0,0,0,.06-.06v-.43a.38.38,0,0,1,.37-.37.34.34,0,0,1,.26.11.36.36,0,0,1,.11.26v.43a.05.05,0,0,0,.06.06h3.41a.37.37,0,0,1,.26.1.36.36,0,0,1,.11.26.34.34,0,0,1-.11.25.38.38,0,0,1-.26.11h-3.41a.05.05,0,0,0-.06.06V304a.05.05,0,0,0,.06.06h2.15a.57.57,0,0,1,.42.17.58.58,0,0,1,.18.43v2.41a.62.62,0,0,1-.6.6H157.2s0,0-.06,0,0,0,0,0a11.26,11.26,0,0,0,1.35.93A8.26,8.26,0,0,0,160.08,309.43Zm-4.47-3.89a.05.05,0,0,0,.06-.06v-.59a.05.05,0,0,0-.06-.06h-1.92a.05.05,0,0,0-.06.06v.59a.05.05,0,0,0,.06.06Zm.06.77a.05.05,0,0,0-.06-.06h-1.92a.05.05,0,0,0-.06.06v.6a.05.05,0,0,0,.06.06h1.92a.05.05,0,0,0,.06-.06Zm2.74-.77a.05.05,0,0,0,.06-.06v-.59a.05.05,0,0,0-.06-.06h-1.94a.05.05,0,0,0-.06.06v.59a.05.05,0,0,0,.06.06Zm-1.94.71a.05.05,0,0,0-.06.06v.6a.05.05,0,0,0,.06.06h1.94a.05.05,0,0,0,.06-.06v-.6a.05.05,0,0,0-.06-.06Z"/><path class="cls-5" d="M164.38,307.58a.35.35,0,0,1,.21.34.42.42,0,0,1,0,.16,4.69,4.69,0,0,1-.59.8,6.65,6.65,0,0,1-.77.73,7.49,7.49,0,0,1-.82.56.32.32,0,0,1-.37,0,.38.38,0,0,1-.15-.16l0-.08a.25.25,0,0,1,0-.08.39.39,0,0,1,.23-.38,5.73,5.73,0,0,0,1-.73,4.91,4.91,0,0,0,.81-1,.39.39,0,0,1,.36-.21A.29.29,0,0,1,164.38,307.58Zm5.51-4h-7.7a.36.36,0,0,1-.37-.37.34.34,0,0,1,.37-.37h3.41a.05.05,0,0,0,.06-.06v-.63a.38.38,0,0,1,.38-.38.36.36,0,0,1,.27.11.37.37,0,0,1,.11.27v.63a.05.05,0,0,0,.06.06h3.41a.35.35,0,0,1,.26.1.37.37,0,0,1,.11.27.38.38,0,0,1-.11.26A.36.36,0,0,1,169.89,303.56Zm-1.62,3.52h-1.79a.05.05,0,0,0-.06.06v2.55a.65.65,0,0,1-.26.56,1.62,1.62,0,0,1-.88.19h-.44a.4.4,0,0,1-.28-.14.43.43,0,0,1-.11-.3.3.3,0,0,1,.11-.25.3.3,0,0,1,.27-.08l.33,0h.24c.17,0,.26,0,.26-.12v-2.43a.05.05,0,0,0-.06-.06h-1.79a.58.58,0,0,1-.43-.18.57.57,0,0,1-.17-.42v-1.56a.57.57,0,0,1,.17-.43.61.61,0,0,1,.43-.17h4.46a.61.61,0,0,1,.42.17.58.58,0,0,1,.18.43v1.56a.62.62,0,0,1-.6.6Zm-.17-2a.05.05,0,0,0-.06-.06h-4a.05.05,0,0,0-.06.06v1.16a.05.05,0,0,0,.06.06h4a.05.05,0,0,0,.06-.06Zm2,4.36a.31.31,0,0,1,.15.13.49.49,0,0,1,.05.2.47.47,0,0,1,0,.17.39.39,0,0,1-.35.2.48.48,0,0,1-.18,0,5.7,5.7,0,0,1-1.26-.93,6.09,6.09,0,0,1-.9-1.11.35.35,0,0,1-.06-.19.39.39,0,0,1,.4-.38.41.41,0,0,1,.36.21,4.56,4.56,0,0,0,.81,1A5.09,5.09,0,0,0,170.07,309.48Z"/><path class="cls-5" d="M178.81,307.43a.4.4,0,0,1,.15.33.59.59,0,0,1-.1.29.37.37,0,0,1-.28.14.36.36,0,0,1-.25-.1,9.89,9.89,0,0,0-1.39-1.12c-.06,0-.1,0-.12,0a10.89,10.89,0,0,1-3.24,2.83.49.49,0,0,1-.19.05.38.38,0,0,1-.35-.21.36.36,0,0,1,0-.19.39.39,0,0,1,.21-.36,10.47,10.47,0,0,0,1.6-1.14,10.58,10.58,0,0,0,1.31-1.37.14.14,0,0,0,0-.06s0-.06,0-.06a8.37,8.37,0,0,0-1.88-.68.38.38,0,0,1-.31-.4.41.41,0,0,1,.12-.3.39.39,0,0,1,.29-.11h.09a7.34,7.34,0,0,1,1.1.34,10.11,10.11,0,0,1,1.06.48l.06,0a.1.1,0,0,0,.07,0,10.82,10.82,0,0,0,1.24-2.93.31.31,0,0,1,.14-.22.39.39,0,0,1,.25-.08.41.41,0,0,1,.4.4s0,.07,0,.09a10.75,10.75,0,0,1-1.33,3.14.07.07,0,0,0,0,.06.08.08,0,0,0,.05.07,7.81,7.81,0,0,1,.75.53C178.38,307,178.6,307.23,178.81,307.43Z"/><path class="cls-5" d="M189.05,307a.38.38,0,0,1,.12.29.53.53,0,0,1-.11.3.38.38,0,0,1-.26.11.34.34,0,0,1-.25-.11,5.75,5.75,0,0,0-1.27-1.05,4,4,0,0,0-1.49-.54h0c-.06,0-.08,0-.08.08v3.55a.37.37,0,0,1-.12.27.39.39,0,0,1-.56,0,.36.36,0,0,1-.11-.27v-6.78a.38.38,0,0,1,.11-.29.41.41,0,0,1,.56,0,.38.38,0,0,1,.12.29v2.28s0,.08.09.1a4.24,4.24,0,0,1,1.24.34,5.49,5.49,0,0,1,1.11.63A5.94,5.94,0,0,1,189.05,307Z"/><path class="cls-5" d="M196,309.42a4.89,4.89,0,0,1-2-.32,1.69,1.69,0,0,1-.92-1.12,6.1,6.1,0,0,1-.16-.75,8.39,8.39,0,0,1-.11-.91c0-.31,0-.62,0-.9a1.61,1.61,0,0,1,.3-1,1.81,1.81,0,0,1,.77-.59,2.53,2.53,0,0,1,1-.19h2.33a2.53,2.53,0,0,1,1.07.19,1.48,1.48,0,0,1,.64.5,1.94,1.94,0,0,1,.32.7,3.22,3.22,0,0,1,.09.76c0,.06,0,.13,0,.2s0,.13,0,.2,0,.28-.07.49-.07.43-.11.66-.1.43-.15.62a1.83,1.83,0,0,1-.45.8,2,2,0,0,1-.7.44,4,4,0,0,1-.87.18C196.62,309.4,196.31,309.42,196,309.42Zm.23-.76a5.91,5.91,0,0,0,1.07-.08,1.39,1.39,0,0,0,.6-.27,1.25,1.25,0,0,0,.3-.52c.06-.22.13-.5.19-.83s.08-.46.1-.67,0-.39,0-.55a1.45,1.45,0,0,0-.31-1,1.36,1.36,0,0,0-1-.32h-2.32a1.49,1.49,0,0,0-1,.29,1,1,0,0,0-.32.8,10.75,10.75,0,0,0,.11,1.45,4.83,4.83,0,0,0,.17.79,2.32,2.32,0,0,0,.18.39.76.76,0,0,0,.34.29,2,2,0,0,0,.67.18A9.5,9.5,0,0,0,196.22,308.66Z"/><path class="cls-5" d="M156.42,314.61a.05.05,0,0,0,.06.06h3.36a.34.34,0,0,1,.26.11.36.36,0,0,1,.11.26.38.38,0,0,1-.37.37h-3.36a.05.05,0,0,0-.06.06v.7a.05.05,0,0,0,.06.06H159a.57.57,0,0,1,.42.17.58.58,0,0,1,.18.43v4.52a1.07,1.07,0,0,1-.3.8,1.62,1.62,0,0,1-1.13.29.42.42,0,0,1-.26-.12.36.36,0,0,1-.11-.27.33.33,0,0,1,.11-.27.33.33,0,0,1,.28-.1,2.7,2.7,0,0,0,.45,0c.09,0,.15-.05.17-.1a.56.56,0,0,0,0-.21V317a.05.05,0,0,0-.06-.06h-5.56a.05.05,0,0,0-.06.06v5.05a.4.4,0,0,1-.11.27.38.38,0,0,1-.26.11.37.37,0,0,1-.27-.11.36.36,0,0,1-.11-.27v-5.25a.58.58,0,0,1,.6-.6h2.56a.05.05,0,0,0,.06-.06v-.7a.05.05,0,0,0-.06-.06h-3.36a.36.36,0,0,1-.26-.11.37.37,0,0,1-.1-.26.35.35,0,0,1,.1-.26.33.33,0,0,1,.26-.11h3.36a.05.05,0,0,0,.06-.06v-.5a.38.38,0,0,1,.38-.38.36.36,0,0,1,.27.11.37.37,0,0,1,.11.27Zm1.46,6.18h-1.41a.05.05,0,0,0-.06.06v1.24a.36.36,0,0,1-.11.26.38.38,0,0,1-.26.11.36.36,0,0,1-.26-.11.33.33,0,0,1-.11-.26v-1.24a.05.05,0,0,0-.06-.06H154.2a.36.36,0,0,1-.26-.11.33.33,0,0,1-.1-.25.34.34,0,0,1,.36-.36h1.41a.05.05,0,0,0,.06-.06v-.76a.05.05,0,0,0-.06-.06H154.4a.34.34,0,0,1-.25-.11.35.35,0,0,1,.25-.6H155s.07,0,0-.05l0-.06-.24-.33-.27-.33a.39.39,0,0,1-.11-.27.32.32,0,0,1,.13-.28.41.41,0,0,1,.26-.09.35.35,0,0,1,.31.15l.28.4a3.91,3.91,0,0,1,.26.44l0,.07s0,.05,0,.08a.48.48,0,0,1-.07.2s0,.07,0,.07H156a.11.11,0,0,0,.07,0,4.77,4.77,0,0,0,.48-.52,5,5,0,0,0,.38-.63.37.37,0,0,1,.35-.22l.14,0a.37.37,0,0,1,.23.35s0,.05,0,.08l0,.08c-.07.14-.15.27-.23.41l-.25.38s0,.07,0,.07h.51a.33.33,0,0,1,.24.1.34.34,0,0,1,0,.5.34.34,0,0,1-.24.11h-1.21a.05.05,0,0,0-.06.06V320a.05.05,0,0,0,.06.06h1.41a.37.37,0,0,1,.26.1.36.36,0,0,1,.11.26.34.34,0,0,1-.11.25A.38.38,0,0,1,157.88,320.79Z"/><path class="cls-5" d="M164.92,313.85a.38.38,0,0,1,.38.38V322a.38.38,0,0,1-.38.38.37.37,0,0,1-.27-.11.36.36,0,0,1-.11-.27V320.6c0-.06,0-.08-.07,0a10.06,10.06,0,0,1-1.14.63,10.79,10.79,0,0,1-1.15.47h-.11a.3.3,0,0,1-.24-.11.39.39,0,0,1-.1-.27.37.37,0,0,1,.28-.38,11.31,11.31,0,0,0,1.33-.57,6.06,6.06,0,0,0,1.17-.76.11.11,0,0,0,0-.07v-2.28a.05.05,0,0,0-.06-.06H162.2a.37.37,0,0,1-.27-.11.33.33,0,0,1-.11-.26.38.38,0,0,1,.38-.38h2.28a.05.05,0,0,0,.06-.06v-2.14a.36.36,0,0,1,.11-.27A.37.37,0,0,1,164.92,313.85Zm5.22,7a.37.37,0,0,1,.19.34s0,.05,0,.09a.69.69,0,0,1,0,.1,3,3,0,0,1-.35.46,1.48,1.48,0,0,1-.55.37,2.44,2.44,0,0,1-.93.15,3,3,0,0,1-1.48-.29,1.17,1.17,0,0,1-.47-1.1v-6.75a.38.38,0,0,1,.38-.38.36.36,0,0,1,.27.11.37.37,0,0,1,.11.27v3c0,.05,0,.07.07.05a12.62,12.62,0,0,0,1.22-.61c.4-.24.78-.49,1.16-.77a.34.34,0,0,1,.23-.08.35.35,0,0,1,.3.16.49.49,0,0,1,.07.25.4.4,0,0,1-.16.32,13.72,13.72,0,0,1-1.37.86c-.48.26-1,.49-1.47.7,0,0-.05,0-.05.07v2.74a1,1,0,0,0,.07.4.55.55,0,0,0,.33.24,2.3,2.3,0,0,0,.75.09,1.48,1.48,0,0,0,.81-.17,1.56,1.56,0,0,0,.44-.5.33.33,0,0,1,.31-.18A.23.23,0,0,1,170.14,320.87Z"/><path class="cls-5" d="M174.49,318.55s0-.05-.07,0l-.23.06-.24.07s0,0,0,.06v3.39a.38.38,0,0,1-.37.37.36.36,0,0,1-.37-.37v-3.24c0-.05,0-.07-.06-.05l-.46.05-.41,0a.41.41,0,0,1-.31-.12.43.43,0,0,1-.11-.3.42.42,0,0,1,.05-.22.39.39,0,0,1,.16-.18l.38-.33.39-.41a.06.06,0,0,0,0-.08,5.07,5.07,0,0,0-.7-.88.64.64,0,0,1-.19-.47.69.69,0,0,1,.12-.39,5.73,5.73,0,0,0,.41-.73,6.38,6.38,0,0,0,.29-.72.33.33,0,0,1,.13-.21.34.34,0,0,1,.23-.08.35.35,0,0,1,.26.1.37.37,0,0,1,.1.25s0,.07,0,.09a6.41,6.41,0,0,1-.31.87,5.21,5.21,0,0,1-.47.78s0,.05,0,.08.19.21.29.32a3.17,3.17,0,0,1,.28.34s0,0,0,0,0,0,0,0a8.79,8.79,0,0,0,.48-.92,6.51,6.51,0,0,0,.36-1.05.33.33,0,0,1,.13-.21.34.34,0,0,1,.22-.07.37.37,0,0,1,.27.11.4.4,0,0,1,.11.27s0,.07,0,.09a6.67,6.67,0,0,1-.46,1.27,9.89,9.89,0,0,1-.64,1.13,8.14,8.14,0,0,1-.62.79s0,0,0,.05h.05l.52-.1.51-.12s0,0,0-.08a1.67,1.67,0,0,1-.08-.2l-.08-.17a.44.44,0,0,1,0-.14.34.34,0,0,1,.09-.24.37.37,0,0,1,.27-.09.49.49,0,0,1,.23.06.36.36,0,0,1,.15.19c.07.18.14.4.22.64s.14.48.2.74a.41.41,0,0,1-.07.32.35.35,0,0,1-.29.15.38.38,0,0,1-.21-.07.29.29,0,0,1-.11-.19Zm-1.89.67a.38.38,0,0,1,.29.12.37.37,0,0,1,.1.3c0,.37-.09.76-.15,1.18a7.73,7.73,0,0,1-.29,1.15.43.43,0,0,1-.15.2.55.55,0,0,1-.24.07.34.34,0,0,1-.25-.1.31.31,0,0,1-.09-.22v-.06s0,0,0-.05a6.7,6.7,0,0,0,.29-1.13c.06-.38.1-.76.13-1.15a.28.28,0,0,1,.11-.22A.32.32,0,0,1,172.6,319.22Zm2.42,1.44a.44.44,0,0,1-.09.3.32.32,0,0,1-.27.15.35.35,0,0,1-.22-.08.31.31,0,0,1-.11-.2c0-.2-.08-.38-.12-.55a3.85,3.85,0,0,0-.16-.48.31.31,0,0,1,0-.13.3.3,0,0,1,.1-.24.33.33,0,0,1,.26-.1.43.43,0,0,1,.22.06.34.34,0,0,1,.14.17c.06.16.11.34.16.53Zm.46-1.78h1.3a.44.44,0,0,1,.33.13.44.44,0,0,1,.13.31v.07a.25.25,0,0,1,0,.07,4.84,4.84,0,0,1-.8,1.46,4.72,4.72,0,0,1-1.12,1,.37.37,0,0,1-.16.05.32.32,0,0,1-.3-.19.29.29,0,0,1,0-.16.39.39,0,0,1,.19-.34,4.36,4.36,0,0,0,.89-.77,3.48,3.48,0,0,0,.59-.92c0-.05,0-.07-.05-.07h-.94a.33.33,0,0,1-.24-.1.33.33,0,0,1-.1-.24.34.34,0,0,1,.34-.34Zm3.58-.77h-2.81a.58.58,0,0,1-.43-.18.57.57,0,0,1-.17-.42v-2.34a.57.57,0,0,1,.17-.43.61.61,0,0,1,.43-.17H177a.07.07,0,0,0,.07,0,2.44,2.44,0,0,1,.1-.24,2.44,2.44,0,0,0,.1-.24.37.37,0,0,1,.38-.27.33.33,0,0,1,.24.1.3.3,0,0,1,.11.24s0,.06,0,.08,0,.09,0,.14,0,.1-.05.16,0,.07,0,.07h1.14a.61.61,0,0,1,.42.17.58.58,0,0,1,.18.43v2.34a.62.62,0,0,1-.6.6Zm-.18-2.14a.05.05,0,0,0,.06-.06v-.57a.05.05,0,0,0-.06-.06h-2.45a.05.05,0,0,0-.06.06v.57a.05.05,0,0,0,.06.06Zm-2.45.71a.05.05,0,0,0-.06.06v.6a.05.05,0,0,0,.06.06h2.45a.05.05,0,0,0,.06-.06v-.6a.05.05,0,0,0-.06-.06Zm3.76,4.74a.42.42,0,0,1,.2.37.36.36,0,0,1-.1.25.34.34,0,0,1-.22.1.26.26,0,0,1-.17-.05,5.77,5.77,0,0,1-1-.88,7.35,7.35,0,0,1-.8-1s0,0-.05,0,0,0,0,.06v1.53a.6.6,0,0,1-.27.51,1.23,1.23,0,0,1-.74.2h-.24a.38.38,0,0,1-.23-.13.34.34,0,0,1-.08-.23.32.32,0,0,1,.12-.27.34.34,0,0,1,.29-.08h.2c.15,0,.23,0,.23-.09v-3.08a.33.33,0,0,1,.1-.25.35.35,0,0,1,.26-.1.33.33,0,0,1,.25.1.34.34,0,0,1,.11.25v.1a.11.11,0,0,0,0,.08,7.11,7.11,0,0,0,.49.93.05.05,0,0,0,.08,0c.16-.14.31-.3.47-.47a6,6,0,0,0,.44-.56.34.34,0,0,1,.29-.15.3.3,0,0,1,.25.1.36.36,0,0,1,.09.24.42.42,0,0,1,0,.16,3.6,3.6,0,0,1-.5.68,6.15,6.15,0,0,1-.58.57s0,.06,0,.09a6.11,6.11,0,0,0,.56.58A5.9,5.9,0,0,0,180.19,321.42Z"/><path class="cls-5" d="M599,274.87a.45.45,0,0,1,.29-.1.35.35,0,0,1,.33.18.44.44,0,0,1,.1.28.43.43,0,0,1-.2.38,4.47,4.47,0,0,1-.77.42,5.23,5.23,0,0,1-.93.24,10,10,0,0,1-1.34.07,2.89,2.89,0,0,1-1.9-.57,1.78,1.78,0,0,1-.64-1.57l.13-1.65v0c0-.07,0-.1-.11-.1l-1.25,0q-.59,0-1.05.06a.4.4,0,0,1-.33-.12.38.38,0,0,1-.13-.3.44.44,0,0,1,.13-.33.51.51,0,0,1,.33-.15q.48,0,1.11-.06l1.29,0a.11.11,0,0,0,.12-.11c0-.32.06-.65.08-1s.05-.6.07-.85v0c0-.06,0-.09-.11-.09h-.9q-.44,0-.75,0a.44.44,0,0,1-.34-.12.42.42,0,0,1-.15-.32.44.44,0,0,1,.42-.46c.28,0,.6,0,1,0h3.81l1.06,0a.44.44,0,0,1,.34.12.45.45,0,0,1,.14.33.41.41,0,0,1-.12.3.43.43,0,0,1-.29.15l-1.37,0h-1.64a.13.13,0,0,0-.12.1c0,.25,0,.53-.07.84s-.05.63-.09.95v0c0,.07,0,.1.11.1l1.62,0h2.44a.43.43,0,0,1,.32.14.44.44,0,0,1,.12.32.42.42,0,0,1-.13.32.47.47,0,0,1-.32.12H596.8l-1.65,0a.11.11,0,0,0-.12.11l-.16,1.62a1,1,0,0,0,.41,1,2.58,2.58,0,0,0,1.41.32,4.62,4.62,0,0,0,1.38-.18A3.31,3.31,0,0,0,599,274.87Z"/><path class="cls-5" d="M612,275.83a.59.59,0,0,1,.1.29.54.54,0,0,1-.21.42.43.43,0,0,1-.26.09.44.44,0,0,1-.37-.19,8,8,0,0,0-.9-1.06,9.58,9.58,0,0,0-1.11-.91,6.06,6.06,0,0,0-1.19-.65.12.12,0,0,0-.14,0,15.5,15.5,0,0,1-1.76,1.41,13.14,13.14,0,0,1-2.26,1.26.39.39,0,0,1-.18,0,.44.44,0,0,1-.29-.12.39.39,0,0,1-.14-.32.61.61,0,0,1,.08-.3.52.52,0,0,1,.24-.2,10.91,10.91,0,0,0,2.11-1.18,12.09,12.09,0,0,0,1.63-1.36,11.78,11.78,0,0,0,1.15-1.33,6.7,6.7,0,0,0,.68-1.07c.07-.15.13-.3.18-.44a1.24,1.24,0,0,0,.07-.39.48.48,0,0,0-.12-.33.6.6,0,0,0-.43-.12l-.34,0c-.27,0-.63.08-1.09.12l-1.49.1-1.58,0a.42.42,0,0,1-.31-.13.45.45,0,0,1-.12-.31.42.42,0,0,1,.14-.34.49.49,0,0,1,.33-.13h.54c.71,0,1.38,0,2-.07a13.28,13.28,0,0,0,1.45-.17l.25,0,.23,0a1.43,1.43,0,0,1,1.08.39,1.33,1.33,0,0,1,.37,1,2.82,2.82,0,0,1-.32,1.24,7.79,7.79,0,0,1-.51.88,9.88,9.88,0,0,1-.75,1s0,0,0,.07a.09.09,0,0,0,.06.08,7.87,7.87,0,0,1,1.21.74,9.41,9.41,0,0,1,1.11,1A7.27,7.27,0,0,1,612,275.83Z"/><path class="cls-5" d="M567.49,289.08a.4.4,0,0,1-.3.11.4.4,0,0,1-.36-.18.45.45,0,0,1-.1-.29.46.46,0,0,1,.18-.38,7.49,7.49,0,0,0,1.33-1.41,7.76,7.76,0,0,0,.78-1.37c.18-.45.34-.88.47-1.28a.53.53,0,0,1,.17-.25.5.5,0,0,1,.29-.09.45.45,0,0,1,.34.15.49.49,0,0,1,.14.34.53.53,0,0,1,0,.13,10.84,10.84,0,0,1-.6,1.59,8.39,8.39,0,0,1-.91,1.49A9.87,9.87,0,0,1,567.49,289.08Zm8.2.17a.43.43,0,0,1-.28-.11.49.49,0,0,1-.16-.3,4.76,4.76,0,0,0-.48-1.45,7.33,7.33,0,0,0-.79-1.2c-.3-.36-.59-.69-.89-1a11.28,11.28,0,0,1-.77-.89.48.48,0,0,1-.09-.27.42.42,0,0,1,.21-.38.54.54,0,0,1,.27-.07.44.44,0,0,1,.4.2c.22.27.48.57.78.88s.6.67.92,1.06a7.74,7.74,0,0,1,.84,1.31,5.71,5.71,0,0,1,.54,1.65.51.51,0,0,1-.11.39A.48.48,0,0,1,575.69,289.25Zm-.74-5.6a.29.29,0,0,1-.17.05.29.29,0,0,1-.26-.15c-.13-.19-.28-.4-.45-.62a6,6,0,0,0-.5-.57.32.32,0,0,1-.1-.22.29.29,0,0,1,.09-.21.4.4,0,0,1,.24-.09.25.25,0,0,1,.21.08,4.84,4.84,0,0,1,.55.62c.18.23.34.46.49.68a.25.25,0,0,1,0,.16A.3.3,0,0,1,575,283.65Zm.9-.52a.25.25,0,0,1-.16.05.3.3,0,0,1-.26-.14c-.13-.2-.28-.4-.44-.62a7.26,7.26,0,0,0-.48-.55.26.26,0,0,1-.1-.21.32.32,0,0,1,.08-.21.4.4,0,0,1,.24-.09.29.29,0,0,1,.22.08,6.23,6.23,0,0,1,.52.6q.25.33.48.66a.29.29,0,0,1,0,.17A.28.28,0,0,1,575.85,283.13Z"/><path class="cls-5" d="M587.3,286.48h-7.49a.41.41,0,0,1-.32-.13.45.45,0,0,1-.14-.33.45.45,0,0,1,.14-.32.41.41,0,0,1,.32-.13h7.49a.42.42,0,0,1,.32.13.44.44,0,0,1,.13.32.44.44,0,0,1-.13.33A.42.42,0,0,1,587.3,286.48Z"/><path class="cls-5" d="M596.84,283.73l.48,0a1.74,1.74,0,0,1,1.4.51,2,2,0,0,1,.43,1.3,3.64,3.64,0,0,1,0,.45c0,.26-.07.54-.11.84s-.08.58-.12.86-.07.49-.1.67,0,.27,0,.27a2.34,2.34,0,0,1-.62,1.32,2,2,0,0,1-1.45.47,4.59,4.59,0,0,1-.78-.07.44.44,0,0,1-.29-.16.48.48,0,0,1-.12-.33.43.43,0,0,1,.18-.36.48.48,0,0,1,.39-.11,4,4,0,0,0,.71.07,1,1,0,0,0,.79-.26,1.43,1.43,0,0,0,.26-.71c0-.18.07-.42.11-.7s.08-.6.13-.93.09-.67.13-1a1.1,1.1,0,0,0,0-.18.86.86,0,0,0,0-.16.89.89,0,0,0-.21-.65.88.88,0,0,0-.69-.22h-.18l-.19,0-1.24.13a.13.13,0,0,0-.12.09,12.8,12.8,0,0,1-1.4,3.24,8.38,8.38,0,0,1-2.12,2.36.37.37,0,0,1-.25.08.43.43,0,0,1-.38-.2.46.46,0,0,1-.07-.26.44.44,0,0,1,.2-.4,8.15,8.15,0,0,0,1.75-1.95,10.86,10.86,0,0,0,1.26-2.75v0c0-.07,0-.09-.1-.08l-.59,0h-.6c-.4,0-.83,0-1.27,0a.45.45,0,0,1-.32-.14.44.44,0,0,1-.12-.3.46.46,0,0,1,.15-.36.4.4,0,0,1,.36-.12l1.17,0H594l.73,0c.08,0,.12-.06.12-.11.08-.34.14-.69.19-1.05s.09-.73.11-1.1a.55.55,0,0,1,.16-.31.42.42,0,0,1,.31-.13.45.45,0,0,1,.34.13.41.41,0,0,1,.12.35c0,.33-.06.67-.1,1s-.09.67-.15,1v0c0,.08,0,.1.1.09Zm2.13-1.81a4,4,0,0,1,1,1.44.32.32,0,0,1-.3.44.25.25,0,0,1-.26-.19,3.07,3.07,0,0,0-.84-1.23.33.33,0,0,1-.11-.24.3.3,0,0,1,.08-.2.33.33,0,0,1,.24-.1A.24.24,0,0,1,599,281.92Zm2,1a.23.23,0,0,1,0,.13.26.26,0,0,1-.18.27l-.12,0a.29.29,0,0,1-.27-.18,3.69,3.69,0,0,0-.86-1.31.27.27,0,0,1-.09-.2.28.28,0,0,1,.08-.2.29.29,0,0,1,.21-.08.31.31,0,0,1,.21.07,4.25,4.25,0,0,1,.58.67A5,5,0,0,1,600.94,282.92Z"/><path class="cls-5" d="M611.3,286.48h-7.49a.41.41,0,0,1-.32-.13.45.45,0,0,1-.14-.33.45.45,0,0,1,.14-.32.41.41,0,0,1,.32-.13h7.49a.42.42,0,0,1,.32.13.44.44,0,0,1,.13.32.44.44,0,0,1-.13.33A.42.42,0,0,1,611.3,286.48Z"/><path class="cls-5" d="M320.29,237.51a.52.52,0,0,1,.28.48.47.47,0,0,1-.16.39.51.51,0,0,1-.34.14.56.56,0,0,1-.26-.08,11.21,11.21,0,0,1-1.23-.91,18.21,18.21,0,0,1-1.37-1.3,16.21,16.21,0,0,1-1.24-1.45s0,0-.05,0a.06.06,0,0,0,0,.06v2.67c0,.05,0,.08.07.08h1.72a.49.49,0,0,1,.35.15.47.47,0,0,1,.15.35.51.51,0,0,1-.15.37.49.49,0,0,1-.35.15H316s-.07,0-.07.07V240a.51.51,0,0,1-.15.37.51.51,0,0,1-.37.16.5.5,0,0,1-.36-.16.51.51,0,0,1-.15-.37v-1.32a.06.06,0,0,0-.07-.07h-1.72a.47.47,0,0,1-.35-.15.51.51,0,0,1-.15-.37.51.51,0,0,1,.5-.5h1.72a.07.07,0,0,0,.07-.08v-2.6a.06.06,0,0,0,0-.06s0,0-.06,0a18,18,0,0,1-1.19,1.39,15.92,15.92,0,0,1-1.35,1.27,11.7,11.7,0,0,1-1.27.94.59.59,0,0,1-.25.07.5.5,0,0,1-.47-.3.69.69,0,0,1-.06-.25.54.54,0,0,1,.29-.5,9.49,9.49,0,0,0,1.08-.78q.58-.48,1.17-1c.38-.39.74-.78,1.06-1.18a8.12,8.12,0,0,0,.77-1.13c0-.05,0-.08-.05-.08H311a.53.53,0,0,1-.36-.15.5.5,0,0,1-.15-.37.49.49,0,0,1,.15-.35.53.53,0,0,1,.36-.15h3.8a.06.06,0,0,0,.07-.07v-1.62a.5.5,0,0,1,.15-.37.46.46,0,0,1,.36-.16.47.47,0,0,1,.37.16.5.5,0,0,1,.15.37v1.62c0,.05,0,.07.07.07h3.79a.49.49,0,0,1,.36.15.49.49,0,0,1,.15.35.5.5,0,0,1-.15.37.49.49,0,0,1-.36.15h-3.43c-.05,0-.07,0-.05.1a9.68,9.68,0,0,0,.8,1.15,14.06,14.06,0,0,0,1,1.17,15.27,15.27,0,0,0,1.13,1A11.07,11.07,0,0,0,320.29,237.51Z"/><path class="cls-5" d="M325.09,234.84a.52.52,0,0,1,.41.19.48.48,0,0,1,.12.43,7.61,7.61,0,0,1-.58,1.83,8.78,8.78,0,0,1-1,1.66,5.53,5.53,0,0,1-1.25,1.22.35.35,0,0,1-.25.09.45.45,0,0,1-.42-.29.56.56,0,0,1-.05-.23.7.7,0,0,1,.25-.52,5.58,5.58,0,0,0,1.56-1.89s0-.06,0-.07,0,0-.07,0l-.6.14-.63.09a.5.5,0,0,1-.37-.12.46.46,0,0,1-.18-.33,1,1,0,0,1,.25-.8,10.4,10.4,0,0,0,1-1.4.11.11,0,0,0,0-.1,4.92,4.92,0,0,0-.37-.5,4.25,4.25,0,0,0-.47-.48.76.76,0,0,1-.26-.6.91.91,0,0,1,.13-.48,5,5,0,0,0,.47-1,8.43,8.43,0,0,0,.31-1.17.49.49,0,0,1,.16-.3.51.51,0,0,1,.31-.11.5.5,0,0,1,.41.19.61.61,0,0,1,.13.43q-.06.34-.18.78a6.45,6.45,0,0,1-.27.85,3.93,3.93,0,0,1-.37.74.08.08,0,0,0,0,.1l.22.21.28.32s.07,0,.09,0c.09-.21.17-.42.25-.64a5.39,5.39,0,0,0,.18-.66.5.5,0,0,1,.18-.27.48.48,0,0,1,.29-.11H325a.6.6,0,0,1,.3.19.57.57,0,0,1,.11.33v.06a.13.13,0,0,1,0,.06,8.61,8.61,0,0,1-.4,1.22,13.08,13.08,0,0,1-.6,1.25,8.75,8.75,0,0,1-.63,1,.07.07,0,0,0,0,.06s0,0,.06,0l.32-.11.3-.09a.14.14,0,0,0,.06-.07,2.25,2.25,0,0,0,.09-.35c0-.11,0-.23.07-.34a.52.52,0,0,1,.18-.29A.44.44,0,0,1,325.09,234.84ZM328,236c.19.38.39.79.6,1.25s.38.89.54,1.29a.6.6,0,0,1,0,.2.51.51,0,0,1-.33.5.42.42,0,0,1-.2.05.45.45,0,0,1-.45-.33l-.16-.39a.06.06,0,0,0-.09,0c-.24.13-.5.25-.76.36a7.78,7.78,0,0,1-.74.28.6.6,0,0,1-.2,0,.58.58,0,0,1-.42-.18.64.64,0,0,1-.18-.45v-7.38a.79.79,0,0,1,.23-.56.74.74,0,0,1,.57-.23h1.71a.78.78,0,0,1,.56.22.75.75,0,0,1,.23.57v3.69a.79.79,0,0,1-.79.8h-1.43a.06.06,0,0,0-.07.07v2.17q0,.09.09.06l.42-.19c.13-.07.26-.13.38-.21a.05.05,0,0,0,0-.09c-.18-.38-.36-.73-.52-1.06a.49.49,0,0,1-.06-.23.44.44,0,0,1,.28-.44.6.6,0,0,1,.24-.05A.54.54,0,0,1,328,236Zm-.14-3.46s.08,0,.08-.07v-1a.07.07,0,0,0-.08-.07h-1.14a.07.07,0,0,0-.07.07v1a.06.06,0,0,0,.07.07Zm-1.14,1a.06.06,0,0,0-.07.07v1a.06.06,0,0,0,.07.07h1.14s.08,0,.08-.07v-1c0-.05,0-.07-.08-.07Zm4.73.38a.17.17,0,0,0,0,.1,4.63,4.63,0,0,1,1.2,2.82,2.56,2.56,0,0,1-.19,1.07,1.67,1.67,0,0,1-.51.66,1.72,1.72,0,0,1-.65.32,1.82,1.82,0,0,1-.64.06.49.49,0,0,1-.3-.16.48.48,0,0,1-.12-.33.47.47,0,0,1,.17-.38.67.67,0,0,1,.43-.13.68.68,0,0,0,.61-.28,1.32,1.32,0,0,0,.22-.83,3.74,3.74,0,0,0-1-2.19,1,1,0,0,1-.24-.68,1.19,1.19,0,0,1,.14-.56,7.3,7.3,0,0,0,.41-.9,9.42,9.42,0,0,0,.29-1q0-.09-.06-.09h-1a.06.06,0,0,0-.07.07V240a.46.46,0,0,1-.15.34.49.49,0,0,1-.36.15.5.5,0,0,1-.49-.49v-8.82a.8.8,0,0,1,.23-.56.77.77,0,0,1,.56-.23h1.7a.66.66,0,0,1,.48.2.63.63,0,0,1,.2.46.45.45,0,0,1,0,.13,10.49,10.49,0,0,1-.42,1.51A6.55,6.55,0,0,1,331.44,233.87Z"/><path class="cls-5" d="M339.61,239.25H344a.49.49,0,0,1,.36.15.5.5,0,0,1,.16.36.51.51,0,0,1-.16.37.49.49,0,0,1-.36.15h-4.42a6.4,6.4,0,0,1-1.56-.16,3.65,3.65,0,0,1-1.05-.41,3.13,3.13,0,0,1-.7-.59q0-.08-.09,0a5,5,0,0,1-1.52,1.28.48.48,0,0,1-.21.06.44.44,0,0,1-.31-.14.5.5,0,0,1-.15-.38.65.65,0,0,1,.31-.56,4.05,4.05,0,0,0,.81-.65,3.53,3.53,0,0,0,.55-.77s0,0,0-.08v-2.4s0-.07-.07-.07h-.86a.51.51,0,0,1-.52-.52.49.49,0,0,1,.15-.36.5.5,0,0,1,.37-.15H336a.72.72,0,0,1,.52.21.71.71,0,0,1,.22.52v2.82s0,.06,0,.07a2.19,2.19,0,0,0,1.05.95A4.5,4.5,0,0,0,339.61,239.25Zm-4.95-7.49a.47.47,0,0,1-.3-.18.58.58,0,0,1-.11-.34.46.46,0,0,1,.2-.39.5.5,0,0,1,.42-.1c.24.06.51.13.8.22l.84.26a.52.52,0,0,1,.27.22.63.63,0,0,1,.1.32.48.48,0,0,1-.15.37.52.52,0,0,1-.36.14.74.74,0,0,1-.18,0,7.71,7.71,0,0,0-.77-.27Zm7.14-.62s0,0,0-.06a.06.06,0,0,0-.06,0h-3.48a.45.45,0,0,1-.33-.14.46.46,0,0,1-.15-.34.45.45,0,0,1,.15-.34.45.45,0,0,1,.33-.14h4.65a.49.49,0,0,1,.36.15.45.45,0,0,1,.14.33.53.53,0,0,1-.06.23,5.25,5.25,0,0,1-1.37,1.54s0,0,0,0,0,0,.06,0h1a.79.79,0,0,1,.56.23.77.77,0,0,1,.23.56v4.53a1,1,0,0,1-.36.88,1.84,1.84,0,0,1-1.17.27.44.44,0,0,1-.36-.16.52.52,0,0,1-.15-.38A.44.44,0,0,1,342,238a.46.46,0,0,1,.37-.13h.31c.09,0,.14,0,.16,0a.16.16,0,0,0,0-.11V237s0-.07-.07-.07h-1.39c-.05,0-.07,0-.07.07v1.2a.49.49,0,0,1-.14.34.45.45,0,0,1-.34.15.49.49,0,0,1-.34-.14.47.47,0,0,1-.15-.35V237s0-.07-.08-.07h-1.38a.06.06,0,0,0-.07.07v1.31a.46.46,0,0,1-.15.34.49.49,0,0,1-.35.15.51.51,0,0,1-.51-.49v-5.08a.8.8,0,0,1,.23-.56.78.78,0,0,1,.57-.23h1a.06.06,0,0,0,.06,0s0,0,0,0a2.62,2.62,0,0,0-.51-.3.46.46,0,0,1-.28-.42.46.46,0,0,1,.05-.21.43.43,0,0,1,.19-.21.48.48,0,0,1,.26-.09.46.46,0,0,1,.21,0,3,3,0,0,1,.58.31,3.42,3.42,0,0,1,.52.4.17.17,0,0,0,.1,0,4.32,4.32,0,0,0,.53-.34A4.74,4.74,0,0,0,341.8,231.14Zm-1.53,3c.05,0,.08,0,.08-.07v-.62c0-.05,0-.07-.08-.07h-1.38a.06.06,0,0,0-.07.07v.62a.06.06,0,0,0,.07.07Zm-1.38,1a.06.06,0,0,0-.07.07v.63a.07.07,0,0,0,.07.08h1.38a.07.07,0,0,0,.08-.08v-.63s0-.07-.08-.07Zm2.43-1s0,.07.07.07h1.39c.05,0,.07,0,.07-.07v-.62c0-.05,0-.07-.07-.07h-1.39c-.05,0-.07,0-.07.07Zm.07,1c-.05,0-.07,0-.07.07v.63s0,.08.07.08h1.39c.05,0,.07,0,.07-.08v-.63s0-.07-.07-.07Z"/><path class="cls-5" d="M350.05,236.72a.56.56,0,0,1-.26.07.45.45,0,0,1-.43-.27,5.6,5.6,0,0,1-.47-1.49,9.09,9.09,0,0,1-.12-1.43,11,11,0,0,1,.06-1.19c0-.36.07-.66.08-.9a.59.59,0,0,1,.18-.37.46.46,0,0,1,.34-.15.57.57,0,0,1,.4.15.45.45,0,0,1,.13.37c0,.29,0,.62-.1,1a7.51,7.51,0,0,0-.08,1.19,6.38,6.38,0,0,0,.1,1.12,4.69,4.69,0,0,0,.38,1.19.65.65,0,0,1,.06.25A.51.51,0,0,1,350.05,236.72Zm0,3.34-.06,0H350a.53.53,0,0,1-.52-.52.57.57,0,0,1,.13-.36.63.63,0,0,1,.33-.2,4.16,4.16,0,0,0,2.46-1.65,5,5,0,0,0,.85-3,8.59,8.59,0,0,0-.17-1.62,10.56,10.56,0,0,0-.51-1.74.45.45,0,0,1,0-.18.52.52,0,0,1,.14-.35.51.51,0,0,1,.38-.16.59.59,0,0,1,.31.09.49.49,0,0,1,.21.26,10.12,10.12,0,0,1,.55,1.8,9,9,0,0,1,.2,1.85,7.19,7.19,0,0,1-.24,1.86,5.55,5.55,0,0,1-.73,1.67A5,5,0,0,1,352,239.2,5.84,5.84,0,0,1,350.08,240.06Z"/></g></g></svg>