<svg xmlns="http://www.w3.org/2000/svg" viewBox="0 0 281.03 63.95"><defs><style>.cls-1{fill:#3f2929;}</style></defs><g id="Layer_2" data-name="Layer 2"><g id="Layer_7" data-name="Layer 7"><path class="cls-1" d="M110.9,6c-.42.68-.84,1.38-1.25,2.06a2.09,2.09,0,0,0,2,3.17,84.4,84.4,0,0,0,10.54-1.83,2.09,2.09,0,0,1,2.56,1.92l.11,2a2.1,2.1,0,0,1-1.81,2.19c-8.35,1.15-11.64,1.52-18.11,1.9a2.09,2.09,0,0,0-1.63.94c-.37.56-.75,1.14-1.14,1.71A2.09,2.09,0,0,0,104,23.21h.34c6.52,0,8.55,3.53,9.23,6.17a2.07,2.07,0,0,0,2.75,1.41c5.1-1.94,10.24-3.84,15.38-5.7a2.1,2.1,0,0,1,2.7,1.32l.89,2.71a2.08,2.08,0,0,1-1.53,2.69,148.64,148.64,0,0,0-18.28,5.45,2.08,2.08,0,0,0-1.39,2c0,2.17,0,4.76.08,6.9a2.08,2.08,0,0,1-2.09,2.11h-2.33a2.08,2.08,0,0,1-2.09-2.09V43.34a2.09,2.09,0,0,0-3-1.9c-5,2.29-9.57,5-9.57,8.62,0,6.12,12.17,6.12,16,6.12a117.54,117.54,0,0,0,16.71-1.1,2.1,2.1,0,0,1,2.38,2.07v2.58a2.09,2.09,0,0,1-1.94,2.08c-7.5.59-12.93.71-15.06.71-5.33,0-15.05-.22-20.23-4.32a9.61,9.61,0,0,1-4.18-7.71c0-7.79,9.48-12.27,17.52-15.85a2.08,2.08,0,0,0,1.24-2c-.15-2.08-.89-4.14-4.43-4.14-6.37,0-9.55,3.07-18.78,13.73a2.1,2.1,0,0,1-3,.14l-1.85-1.8a2.09,2.09,0,0,1,0-3A100.06,100.06,0,0,0,94.08,21.37a2.09,2.09,0,0,0-1.79-3.29c-2.5.1-4.86.16-5.45.16-.43,0-.87,0-1.32,0a2.1,2.1,0,0,1-2-2l-.07-2A2.09,2.09,0,0,1,85.65,12c2.18.11,4.58.15,7.45.15,1.38,0,3,0,5.63-.15a2.09,2.09,0,0,0,1.76-1.14c1.45-2.87,2.51-5.32,3.64-8a2.09,2.09,0,0,1,2.7-1.15l3,1.21A2.1,2.1,0,0,1,110.9,6Z"/><path class="cls-1" d="M269.27,6.93a2.1,2.1,0,0,1-.48,2.92c-2.13,1.52-3.94,3.13-10.44,8.89l-3.87,3.44a2.09,2.09,0,0,0,1.69,3.63,32.91,32.91,0,0,1,5.06-.37c10.58,0,19.8,6.12,19.8,17.35,0,10.87-8.57,19.73-23.48,19.73-10.08,0-18.72-3.82-18.72-11.09,0-5.26,5.62-8.21,10.66-8.21a14.87,14.87,0,0,1,9.5,3.6,15.29,15.29,0,0,1,4.82,6.83,2.12,2.12,0,0,0,3,1.11c4.7-2.6,6.72-6.76,6.72-11.9,0-8.49-7.35-12-15-12-10.9,0-18.56,6.37-26.74,13.72a2.09,2.09,0,0,1-2.95-.16l-2.07-2.31a2.08,2.08,0,0,1,.2-3c8.29-7,19.75-17.33,27.05-24.22a2.09,2.09,0,0,0-1.82-3.58c-3.38.62-7.72,1.22-13.54,1.72a2.1,2.1,0,0,1-2.27-1.91l-.21-2.53a2.09,2.09,0,0,1,2-2.27C250.25,5.7,260,4.57,264.91,3.19a2.06,2.06,0,0,1,2.24.8ZM255.5,57.12A2.09,2.09,0,0,0,257.29,54c-1.49-2.53-4-5.41-7.94-5.41-3.39,0-4.61,2.38-4.61,3.67,0,2,3.38,4.9,10.73,4.9Z"/><path class="cls-1" d="M164.11,50.2A54.46,54.46,0,0,1,155,63.14a2.1,2.1,0,0,1-3.17-.24,17.32,17.32,0,0,0-1.71-2,2.07,2.07,0,0,1,.07-3c5.53-5.22,10.29-11.64,11.74-21.45a2.09,2.09,0,0,0-2.07-2.39h-8.66A2.09,2.09,0,0,1,149.12,32V30.33a2.09,2.09,0,0,1,2.09-2.09h9.71a2.08,2.08,0,0,0,2.09-2c.07-1.72.08-4.2.08-8.66A2.1,2.1,0,0,0,161,15.5h-.65a2.07,2.07,0,0,0-1.94,1.32c-.83,2.11-1.84,4.42-2.86,6.49a2.08,2.08,0,0,1-2.91.87c-.57-.33-1.16-.66-1.82-1a2.09,2.09,0,0,1-1-2.84,75.77,75.77,0,0,0,6.59-18.53A2.08,2.08,0,0,1,159.05.28l2.3.66a2.1,2.1,0,0,1,1.43,2.58c-.31,1.07-.61,2.15-.9,3.22a2.08,2.08,0,0,0,2,2.64h13.52a2.08,2.08,0,0,1,2.09,2.09v1.94a2.09,2.09,0,0,1-2.09,2.09h-5.82a2.09,2.09,0,0,0-2.09,2.09c0,4.38,0,6.86-.05,8.52a2.09,2.09,0,0,0,2.09,2.13h7.17a2.1,2.1,0,0,1,2.09,2.09V32a2.1,2.1,0,0,1-2.09,2.09h-8.05a2.08,2.08,0,0,0-2.07,1.79c-.16,1.12-.25,2.26-.48,3.29C167.29,42.78,167.65,43.48,164.11,50.2Z"/><path class="cls-1" d="M207.58,9.38h-22a2.09,2.09,0,0,0-2.09,2.09V60.79a2.1,2.1,0,0,0,2.09,2.09h1.94a2.09,2.09,0,0,0,2.09-2.09V58.06a2.09,2.09,0,0,1,2.1-2.09h9a2.08,2.08,0,0,1,2.09,2.09v1.07a2.09,2.09,0,0,0,2.09,2.09h2.73a2.08,2.08,0,0,0,2.09-2.09V11.47A2.08,2.08,0,0,0,207.58,9.38ZM203,47.76a2.1,2.1,0,0,1-2.09,2.09h-9.21a2.1,2.1,0,0,1-2.1-2.09V22.54l6.9-6.9h4.41A2.1,2.1,0,0,1,203,17.73Z"/><circle class="cls-1" cx="172.96" cy="52.89" r="5.59"/><path class="cls-1" d="M64.94,52.76a24.18,24.18,0,0,1-2.37-1.49,1.54,1.54,0,0,0-2.37.88c-.45,1.79-1,3.56-1.67,3.56s-4.31-5.53-5.76-22.47a1.54,1.54,0,0,1,1.54-1.68h8.22A1.54,1.54,0,0,0,64.08,30V27.48a1.54,1.54,0,0,0-1.55-1.54H54a1.54,1.54,0,0,1-1.54-1.54c0-5.09.09-10.35.36-15A1.52,1.52,0,0,1,54,8c1.84-.44,3.79-.92,5.8-1.51a1.54,1.54,0,0,0,.91-2.23L58.94,1.14A1.54,1.54,0,0,0,57.1.43,199.09,199.09,0,0,1,34.57,6.62a1.52,1.52,0,0,1-.67,0L32.07,6.2a1.54,1.54,0,0,0-1.88,1.5V52.77a3.71,3.71,0,0,1-3.07,3.66l-2.89.49A1.54,1.54,0,0,0,23,58.87l1,3.47a1.54,1.54,0,0,0,1.83,1.06c4.75-1.14,13.28-3.25,20.93-5.51a1.55,1.55,0,0,0,1.1-1.48V53.7A1.54,1.54,0,0,0,46,52.21c-2.78.68-5.61,1.29-8,1.85a1.55,1.55,0,0,1-1.89-1.51V33.1a1.54,1.54,0,0,1,1.54-1.54h7.55A1.54,1.54,0,0,1,46.71,33c.57,7.32,1.55,17.85,6.21,25.58,1.92,3.13,5,5.4,7,5.4,2.87,0,4.48-4.91,5.72-9.46A1.52,1.52,0,0,0,64.94,52.76ZM36.08,24.4V12.87a1.53,1.53,0,0,1,1.26-1.51c2.37-.45,4.72-.88,7-1.3a1.54,1.54,0,0,1,1.81,1.52V24.41a1.53,1.53,0,0,1-1.54,1.53h-7A1.54,1.54,0,0,1,36.08,24.4Z"/><path class="cls-1" d="M22.11,36.43h0a1.49,1.49,0,0,0,2,.94l2.75-1.08a1.49,1.49,0,0,0,.86-1.91q-1.59-4.16-3.59-8.13a1.51,1.51,0,0,0-1.81-.74l-2.65.9a1.49,1.49,0,0,0-.87,2.06l.2.4A1.5,1.5,0,0,1,17.78,31c-.85.09-1.73.17-2.59.24A1.49,1.49,0,0,1,13.81,29c2.75-4.51,8-13,10.39-16.93A1.49,1.49,0,0,0,23.66,10L20.33,8.1a1.5,1.5,0,0,0-2.07.63C16.9,11.45,15.4,14.46,14,17a1.48,1.48,0,0,1-2.13.51l-.89-.6a1.54,1.54,0,0,1-.64-2c1.89-3.63,4.14-8.11,5.63-11.1a1.48,1.48,0,0,0-.63-2L12.29.18a1.49,1.49,0,0,0-2.1.77C8.85,4.42,7.24,8.17,5.77,11.52a1.5,1.5,0,0,1-2.09.71l0,0a1.5,1.5,0,0,0-2.06.65L.26,15.52a1.49,1.49,0,0,0,.6,1.95A73.72,73.72,0,0,1,9.09,23a1.51,1.51,0,0,1,.4,1.9C8.33,27.12,7.23,29.13,6.25,31a1.08,1.08,0,0,1-.91.59l-3.72.23A1.49,1.49,0,0,0,.23,33.47l.31,2.82a1.49,1.49,0,0,0,1.67,1.32c2.2-.29,4.65-.58,7-.9a1.49,1.49,0,0,1,1.7,1.48V62.1a1.49,1.49,0,0,0,1.5,1.49h3.27a1.49,1.49,0,0,0,1.49-1.49v-25a1.49,1.49,0,0,1,1.3-1.48c.71-.1,1.42-.18,2.09-.26A1.49,1.49,0,0,1,22.11,36.43Z"/><path class="cls-1" d="M24.79,52.15h0A1.55,1.55,0,0,0,26,50.27c-.38-1.67-.7-3.34-1-5a4.12,4.12,0,0,0-4.57-3.44h0a1.55,1.55,0,0,0-1.35,1.73q.34,2.69.89,5.33A4.17,4.17,0,0,0,24.79,52.15Z"/><path class="cls-1" d="M2.45,46.09A83.58,83.58,0,0,1,.05,56.18a1.1,1.1,0,0,0,.77,1.39H.87a4.84,4.84,0,0,0,6-3.57Q8,48.82,8.79,43.55a1.11,1.11,0,0,0-.9-1.25h0A4.67,4.67,0,0,0,2.45,46.09Z"/></g></g></svg>