<svg xmlns="http://www.w3.org/2000/svg" viewBox="0 0 1238.41 603.11"><defs><style>.cls-1{fill:#e4ab3b;}.cls-2{fill:#e4633d;}.cls-3{fill:#66bd8c;}.cls-4{fill:#e74e21;}.cls-5{fill:none;stroke:#66bd8c;stroke-miterlimit:10;stroke-width:5px;}</style></defs><g id="Layer_2" data-name="Layer 2"><g id="Layer_11" data-name="Layer 11"><polygon class="cls-1" points="842.74 241.34 842.74 241.34 842.74 241.34 842.74 241.34"/><path class="cls-2" d="M1238,314.44l-115.21.54a186.21,186.21,0,0,1-64.6,127.87l71.83,90.25a302.21,302.21,0,0,0,108-218.66Z"/><path class="cls-3" d="M853.54,467.11c-91.45-46.46-127.92-158.25-81.46-249.69S930.33,89.5,1021.78,136a187.83,187.83,0,0,1,25.77,15.83h0l80.14-83.72h0a302.6,302.6,0,0,0-54.27-35.31C925-42.65,743.49,16.55,668.07,165S651.86,494.94,800.31,570.35c110.84,56.32,240.09,37.56,329.86-37.34l-71.83-90.26A185.75,185.75,0,0,1,853.54,467.11Z"/><path class="cls-3" d="M1200.81,155.8l-107.35,44.6h0a186.44,186.44,0,0,1,29.48,114.49l115.21-.54A302.71,302.71,0,0,0,1200.81,155.8Z"/><rect class="cls-4" x="78.93" y="331.57" width="35.92" height="87.56"/><rect class="cls-1" x="78.93" y="252.07" width="35.92" height="79.5"/><rect class="cls-4" x="167.37" y="355.98" width="35.92" height="62.48"/><rect class="cls-1" x="167.37" y="237.5" width="35.92" height="118.48"/><rect class="cls-4" x="248.47" y="328.98" width="35.92" height="90.19"/><rect class="cls-1" x="248.47" y="283.15" width="35.92" height="45.83"/><polyline class="cls-5" points="3.53 174.42 16.25 158.87 28.27 174.42"/><polyline class="cls-5" points="355.1 406.76 370.65 419.49 355.1 431.5"/><line class="cls-5" x1="15.9" y1="158.87" x2="15.9" y2="431.85"/><line class="cls-5" y1="419.49" x2="370.65" y2="419.49"/></g></g></svg>