<svg xmlns="http://www.w3.org/2000/svg" viewBox="0 0 389.61 714.91"><defs><style>.cls-1{fill:#e4633d;}.cls-2{fill:#66bd8c;}.cls-3{fill:#e74e21;}.cls-4{fill:#e4ab3b;}.cls-5{fill:none;stroke:#66bd8c;stroke-miterlimit:10;stroke-width:5px;}</style></defs><g id="Layer_2" data-name="Layer 2"><g id="Layer_11" data-name="Layer 11"><path class="cls-1" d="M267.3,136.43l-51.09.24a79.12,79.12,0,0,1-8.74,30.7,80.65,80.65,0,0,1-19.91,24.77l31.85,39.16a130.73,130.73,0,0,0,33.48-41.17A128.18,128.18,0,0,0,267.3,136.43Z"/><path class="cls-2" d="M96.78,202.67C56.23,182.52,40.05,134,60.66,94.33S130.84,38.83,171.39,59a83.41,83.41,0,0,1,11.43,6.87h0l35.54-36.32h0a133.67,133.67,0,0,0-24.07-15.32C128.46-18.51,48,7.18,14.53,71.59S7.34,214.75,73.17,247.47a136.12,136.12,0,0,0,146.29-16.21L187.6,192.1A83.81,83.81,0,0,1,96.78,202.67Z"/><path class="cls-2" d="M250.79,67.6,203.18,87h0a79.64,79.64,0,0,1,13.08,49.68l51.09-.24A129,129,0,0,0,250.79,67.6Z"/><rect class="cls-3" x="209.39" y="652.58" width="21.69" height="52.88"/><rect class="cls-4" x="209.39" y="604.56" width="21.69" height="48.02"/><rect class="cls-3" x="262.81" y="667.32" width="21.69" height="37.74"/><rect class="cls-4" x="262.81" y="595.75" width="21.69" height="71.56"/><rect class="cls-3" x="311.8" y="651.01" width="21.69" height="54.48"/><rect class="cls-4" x="311.8" y="623.33" width="21.69" height="27.68"/><polyline class="cls-5" points="163.86 557.66 171.54 548.26 178.8 557.66"/><polyline class="cls-5" points="376.2 697.99 385.59 705.67 376.2 712.93"/><line class="cls-5" x1="171.33" y1="548.26" x2="171.33" y2="713.14"/><line class="cls-5" x1="161.72" y1="705.67" x2="385.59" y2="705.67"/></g></g></svg>