<svg xmlns="http://www.w3.org/2000/svg" viewBox="0 0 257.44 51"><defs><style>.cls-1{fill:#e3e3e2;}</style></defs><g id="Layer_2" data-name="Layer 2"><g id="Photos"><path class="cls-1" d="M11.83,9.79H5.35V15.2H0v6.49H5.35V27h6.48V21.69h5.35V15.2H11.83ZM40,0a17.78,17.78,0,0,0,0,35.56h.9L31.12,51H40L54.36,28.11A17.78,17.78,0,0,0,40,0Zm0,28.05A10.27,10.27,0,1,1,50.16,17.78,10.26,10.26,0,0,1,40,28.05Z"/><path class="cls-1" d="M96.35,30.7h-1.8V29A3.94,3.94,0,0,1,90.83,31a5,5,0,0,1-5.11-5.29,5,5,0,0,1,5-5.29,4,4,0,0,1,3.66,1.93V17.12h1.92Zm-8.71-5a3.37,3.37,0,0,0,3.49,3.48,3.54,3.54,0,0,0,2.46-1,3.18,3.18,0,0,0,1-2.52,3.3,3.3,0,0,0-1-2.46,3.5,3.5,0,0,0-2.46-1,3.4,3.4,0,0,0-3.43,3.48Z"/><path class="cls-1" d="M99.78,26.31a3.27,3.27,0,0,0,3.36,3.06A3.14,3.14,0,0,0,106,27.69h2A5.62,5.62,0,0,1,106,30.16a5.18,5.18,0,0,1-2.82.84,5.37,5.37,0,1,1,5.17-4.69Zm6.61-1.5a3.36,3.36,0,0,0-6.61,0Z"/><path class="cls-1" d="M114.55,23.31A1.24,1.24,0,0,0,113.11,22a1.28,1.28,0,0,0-1.44,1.26c.06.78.78,1.14,1.8,1.44,1.51.42,3.19.84,3.25,3a3.28,3.28,0,0,1-3.55,3.25,3.35,3.35,0,0,1-3.6-3.19h1.86a1.66,1.66,0,0,0,1.74,1.62,1.56,1.56,0,0,0,1.63-1.5c0-1-.79-1.32-2.53-1.92-1.38-.42-2.46-1.08-2.52-2.58a3.11,3.11,0,0,1,3.36-3,3,3,0,0,1,3.31,2.89h-1.87Z"/><path class="cls-1" d="M118.34,17.12h1.92v2h-1.92Zm0,3.6h1.92v10h-1.92Z"/><path class="cls-1" d="M132.4,29.55a5.09,5.09,0,0,1-1.21,3.73,5.49,5.49,0,0,1-4.2,1.8,4.8,4.8,0,0,1-4.93-3.3h2.23a3.25,3.25,0,0,0,1.08,1.14,3.07,3.07,0,0,0,1.74.54A3.31,3.31,0,0,0,130.47,30V29a3.87,3.87,0,0,1-3.6,2.05,5.08,5.08,0,0,1-5.17-5.23,5.09,5.09,0,0,1,5.17-5.29,4,4,0,0,1,3.6,2V20.78h1.93Zm-8.71-3.84a3.36,3.36,0,0,0,3.42,3.48,3.21,3.21,0,0,0,2.46-1,3.39,3.39,0,0,0,1-2.46,3.79,3.79,0,0,0-.78-2.34,3.1,3.1,0,0,0-2.64-1.2,3.48,3.48,0,0,0-3.42,3.54Z"/><path class="cls-1" d="M134.56,20.72h1.8v1.57a3.52,3.52,0,0,1,3.36-1.87c3.19.06,4,2.35,4,4.39v5.83h-1.92V25.23c0-1.8-.72-3.06-2.65-3.06s-2.7,1.2-2.7,2.88v5.53h-1.92Z"/><path class="cls-1" d="M145.79,17.12h1.92v2h-1.92Zm0,3.6h1.92v10h-1.92Z"/><path class="cls-1" d="M150.24,20.72H152v1.57a3.52,3.52,0,0,1,3.36-1.87c3.19.06,4,2.35,4,4.39v5.83h-1.92V25.23c0-1.8-.73-3.06-2.65-3.06s-2.7,1.2-2.7,2.88v5.53h-1.92V20.72Z"/><path class="cls-1" d="M171.56,29.55a5.14,5.14,0,0,1-1.2,3.73,5.49,5.49,0,0,1-4.2,1.8,4.79,4.79,0,0,1-4.93-3.3h2.22a3.25,3.25,0,0,0,1.08,1.14,3.1,3.1,0,0,0,1.75.54A3.31,3.31,0,0,0,169.64,30V29A3.87,3.87,0,0,1,166,31a5.07,5.07,0,0,1-5.17-5.23A5.09,5.09,0,0,1,166,20.48a4,4,0,0,1,3.6,2V20.78h1.92Zm-8.71-3.84a3.36,3.36,0,0,0,3.43,3.48,3.21,3.21,0,0,0,2.46-1,3.39,3.39,0,0,0,1-2.46,3.79,3.79,0,0,0-.78-2.34,3.1,3.1,0,0,0-2.64-1.2,3.49,3.49,0,0,0-3.43,3.54Z"/><path class="cls-1" d="M179.43,20.72h1.8v1.75a4.29,4.29,0,0,1,3.79-2,5.09,5.09,0,0,1,5,5.35A5,5,0,0,1,185,31a4.21,4.21,0,0,1-3.73-1.93V34.3h-1.92V20.72Zm8.77,5a3.4,3.4,0,0,0-3.48-3.48,3.34,3.34,0,0,0-2.47,1,3.5,3.5,0,0,0-1,2.46,3.39,3.39,0,0,0,1,2.46,3.59,3.59,0,0,0,2.47,1,3.41,3.41,0,0,0,3.48-3.48Z"/><path class="cls-1" d="M191.93,17.12h1.92V30.7h-1.92Z"/><path class="cls-1" d="M205.14,30.7h-1.8V29.13A3.44,3.44,0,0,1,200,31c-3.19,0-4-2.35-4-4.45V20.72h1.92v5.41c0,1.8.72,3.06,2.65,3.06s2.7-1.2,2.7-2.88V20.72h1.92Z"/><path class="cls-1" d="M211.63,23.31A1.24,1.24,0,0,0,210.19,22a1.28,1.28,0,0,0-1.44,1.26c.06.78.72,1.14,1.8,1.44,1.5.42,3.18.84,3.24,3a3.28,3.28,0,0,1-3.54,3.25,3.36,3.36,0,0,1-3.61-3.19h1.87a1.66,1.66,0,0,0,1.74,1.62,1.55,1.55,0,0,0,1.62-1.5c0-1-.78-1.32-2.52-1.92-1.39-.42-2.47-1.08-2.53-2.58a3.12,3.12,0,0,1,3.37-3,3,3,0,0,1,3.3,2.89h-1.86Z"/><path class="cls-1" d="M220.52,20.72h1.8v1.57a3.53,3.53,0,0,1,3.37-1.87c3.18.06,4,2.35,4,4.39v5.83h-1.92V25.23c0-1.8-.72-3.06-2.65-3.06s-2.7,1.2-2.7,2.88v5.53h-1.92Z"/><path class="cls-1" d="M232,17.12h1.93v2H232Zm0,3.6h1.93v10H232Z"/><path class="cls-1" d="M236.38,20.72h1.8v1.57a3.52,3.52,0,0,1,3.36-1.87c3.19.06,4,2.35,4,4.39v5.83h-1.92V25.23c0-1.8-.72-3.06-2.65-3.06s-2.7,1.2-2.7,2.88v5.53h-1.92Z"/><path class="cls-1" d="M248.87,26.31a3.28,3.28,0,0,0,3.37,3.06,3.14,3.14,0,0,0,2.88-1.68h2a5.29,5.29,0,0,1-2,2.47,5.18,5.18,0,0,1-2.82.84,5.29,5.29,0,1,1,3.66-9.13,5.48,5.48,0,0,1,1.5,4.44Zm6.67-1.5a3.36,3.36,0,0,0-6.61,0Z"/></g></g></svg>