<svg xmlns="http://www.w3.org/2000/svg" viewBox="0 0 40 40"><defs><style>.cls-1{fill:#3f2929;}</style></defs><g id="Layer_2" data-name="Layer 2"><g id="Layer_11" data-name="Layer 11"><path class="cls-1" d="M16.5,11.14l-4,4a.6.6,0,0,0-.18.44V29H27.66V11H16.94A.59.59,0,0,0,16.5,11.14Zm1,3.11a1.94,1.94,0,0,1,.07-.63,1.21,1.21,0,0,1,1.16-.83,1.22,1.22,0,0,1,1.16.83,1.94,1.94,0,0,1,.07.63V17.1a2.69,2.69,0,0,1,0,.5,1.28,1.28,0,0,1-.92.92,2.07,2.07,0,0,1-.5,0H15.63a1.83,1.83,0,0,1-.62-.07,1.23,1.23,0,0,1,0-2.32,1.83,1.83,0,0,1,.62-.07h1.85Z"/><path class="cls-1" d="M20,0A20,20,0,1,0,40,20,20,20,0,0,0,20,0ZM30.72,30.4a2.8,2.8,0,0,1,0,.38,1.54,1.54,0,0,1-1.3,1.31H10.6a1.55,1.55,0,0,1-1.3-1.31,2.8,2.8,0,0,1,0-.38V15.15c0-.13,0-.25,0-.37A2.39,2.39,0,0,1,10,13.29l4.65-4.65a2.46,2.46,0,0,1,1.49-.73H29a2.44,2.44,0,0,1,.38,0,1.54,1.54,0,0,1,1.3,1.31,2.8,2.8,0,0,1,0,.38Z"/></g></g></svg>