<svg xmlns="http://www.w3.org/2000/svg" viewBox="0 0 40 40"><defs><style>.cls-1{fill:#3f2929;}</style></defs><g id="Layer_2" data-name="Layer 2"><g id="Layer_11" data-name="Layer 11"><path class="cls-1" d="M20,0A20,20,0,1,0,40,20,20,20,0,0,0,20,0ZM30.11,16.08A13.61,13.61,0,0,1,9.17,28.16a9.59,9.59,0,0,0,7.08-2,4.8,4.8,0,0,1-4.47-3.32,4.74,4.74,0,0,0,2.16-.09A4.79,4.79,0,0,1,10.1,18a4.86,4.86,0,0,0,2.17.6,4.8,4.8,0,0,1-1.48-6.39,13.61,13.61,0,0,0,9.87,5,4.79,4.79,0,0,1,8.16-4.37,9.49,9.49,0,0,0,3-1.16,4.8,4.8,0,0,1-2.11,2.65,9.42,9.42,0,0,0,2.75-.76A9.59,9.59,0,0,1,30.11,16.08Z"/></g></g></svg>